<svg viewBox="0 0 511.999 511.999" xmlns="http://www.w3.org/2000/svg"><circle cx="305.403" cy="215.579" fill="#f1f4fb" r="152.702"/><path d="M395.227 222.316h-6.737v-69.614c0-6.201-5.027-11.228-11.228-11.228s-11.228 5.027-11.228 11.228v69.614h-37.649l14.93-67.18c1.342-6.053-2.474-12.048-8.527-13.395-6.097-1.364-12.052 2.469-13.404 8.527L303.42 231.11a11.235 11.235 0 0 0 2.211 9.461 11.207 11.207 0 0 0 8.755 4.202h51.649v24.702c0 6.201 5.027 11.228 11.228 11.228s11.228-5.027 11.228-11.228v-24.702h6.737c6.201 0 11.228-5.027 11.228-11.228 0-6.202-5.027-11.229-11.229-11.229zM255.789 239.574c19.106-10.425 42.878-23.399 42.878-53.508-.001-24.588-21.159-44.592-47.159-44.592s-47.158 20.004-47.158 44.592c0 6.201 5.027 11.228 11.228 11.228s11.228-5.027 11.228-11.228c0-12.206 11.079-22.136 24.702-22.136s24.702 9.93 24.702 22.136c0 15.974-11.851 23.25-31.176 33.799-18.131 9.89-40.684 22.201-40.684 49.609 0 6.201 5.027 11.228 11.228 11.228h71.86c6.201 0 11.228-5.027 11.228-11.228s-5.027-11.228-11.228-11.228h-57.316c4.535-6.825 13.509-12.036 25.667-18.672z" fill="#a0d755"/><path d="M465.324 359.473l-14.68 2.935c39.171-38.698 61.355-91.199 61.355-146.829 0-113.917-92.675-206.596-206.596-206.596-67.14 0-130.324 32.816-169.026 87.781-2.86 4.057-1.886 9.658 2.167 12.517 4.07 2.846 9.666 1.877 12.517-2.176 35.343-50.192 93.044-80.157 154.342-80.157 104.009 0 188.632 84.618 188.632 188.632 0 51.465-20.803 100.001-57.456 135.462l3.386-16.926c.973-4.864-2.184-9.597-7.043-10.57-4.86-.96-9.606 2.179-10.57 7.043l-8.982 44.912a8.99 8.99 0 0 0 2.457 8.115 8.98 8.98 0 0 0 8.114 2.457l44.912-8.982c4.86-.973 8.018-5.706 7.043-10.57a8.968 8.968 0 0 0-10.572-7.048z" fill="#a0d755"/><path d="M305.403 80.842a8.98 8.98 0 0 1-8.982-8.982V53.895c0-4.961 4.017-8.982 8.982-8.982s8.982 4.022 8.982 8.982V71.86a8.98 8.98 0 0 1-8.982 8.982zM305.403 386.246a8.98 8.98 0 0 1-8.982-8.982v-17.965c0-4.961 4.017-8.982 8.982-8.982s8.982 4.022 8.982 8.982v17.965a8.98 8.98 0 0 1-8.982 8.982z" fill="#afb9d2"/><g fill="#d5dced"><path d="M180.93 152.702a8.938 8.938 0 0 1-4.482-1.201l-15.561-8.982c-4.298-2.483-5.772-7.974-3.29-12.272 2.492-4.303 7.974-5.777 12.272-3.29l15.561 8.982c4.298 2.483 5.772 7.974 3.29 12.272a8.988 8.988 0 0 1-7.79 4.491zM445.42 305.403a8.938 8.938 0 0 1-4.482-1.201l-15.561-8.982c-4.298-2.483-5.772-7.974-3.29-12.272a8.986 8.986 0 0 1 12.272-3.29l15.561 8.982c4.298 2.483 5.772 7.974 3.29 12.272a8.985 8.985 0 0 1-7.79 4.491zM377.254 100.096a8.938 8.938 0 0 1-4.482-1.201c-4.298-2.483-5.772-7.978-3.29-12.272l8.982-15.556a8.983 8.983 0 0 1 12.272-3.29c4.298 2.483 5.772 7.978 3.29 12.272l-8.982 15.556a8.985 8.985 0 0 1-7.79 4.491zM224.552 364.583a8.938 8.938 0 0 1-4.482-1.201c-4.298-2.483-5.772-7.978-3.29-12.272l8.982-15.557c2.483-4.303 7.982-5.777 12.272-3.29 4.298 2.483 5.772 7.978 3.29 12.272l-8.982 15.557a8.987 8.987 0 0 1-7.79 4.491zM429.876 152.702a8.985 8.985 0 0 1-7.79-4.491c-2.483-4.298-1.008-9.79 3.29-12.272l15.561-8.982c4.289-2.487 9.781-1.013 12.272 3.29 2.483 4.298 1.008 9.79-3.29 12.272l-15.561 8.982a8.943 8.943 0 0 1-4.482 1.201zM165.385 305.403a8.985 8.985 0 0 1-7.79-4.491c-2.483-4.298-1.008-9.79 3.29-12.272l15.561-8.982c4.281-2.478 9.781-1.008 12.272 3.29 2.483 4.298 1.008 9.79-3.29 12.272l-15.561 8.982a8.938 8.938 0 0 1-4.482 1.201zM233.552 100.096a8.985 8.985 0 0 1-7.79-4.491l-8.982-15.556c-2.483-4.294-1.008-9.79 3.29-12.272 4.272-2.478 9.781-1.013 12.272 3.29l8.982 15.556c2.483 4.294 1.008 9.79-3.29 12.272a8.928 8.928 0 0 1-4.482 1.201zM386.254 364.583a8.985 8.985 0 0 1-7.79-4.491l-8.982-15.557c-2.483-4.294-1.008-9.79 3.29-12.272 4.281-2.487 9.781-1.013 12.272 3.29l8.982 15.557c2.483 4.294 1.008 9.79-3.29 12.272a8.938 8.938 0 0 1-4.482 1.201z"/></g><path d="M412.985 410.816l-89.929-50.584a26.948 26.948 0 0 0-32.266 4.432l-31.579 31.579c-9.433 9.433-24.364 10.636-35.071 2.68-21.587-16.04-43.288-34.71-64.311-55.735s-39.695-42.725-55.735-64.311c-7.956-10.707-6.753-25.638 2.68-35.071l31.579-31.579a26.947 26.947 0 0 0 4.432-32.266L92.201 90.032c-8.642-15.364-29.846-17.759-42.776-4.83l-33.307 33.307c-43.407 43.407 3.874 161.06 105.601 262.789s219.383 149.008 262.789 105.601l33.307-33.307c12.929-12.929 10.534-34.133-4.83-42.776z" fill="#b4e66e"/><path d="M115.368 235.211l22.985-22.985a26.947 26.947 0 0 0 4.432-32.266L92.201 90.032c-8.642-15.364-29.846-17.759-42.776-4.83L39.149 95.478zM267.806 387.649l22.985-22.985a26.947 26.947 0 0 1 32.266-4.432l89.929 50.584c15.364 8.642 17.759 29.846 4.83 42.776l-10.276 10.276z" fill="#a0d755"/><path d="M467.087 224.561h-17.965c-4.965 0-8.982-4.022-8.982-8.982s4.017-8.982 8.982-8.982h17.965c4.965 0 8.982 4.022 8.982 8.982s-4.017 8.982-8.982 8.982zM161.684 224.561h-17.965c-4.965 0-8.982-4.022-8.982-8.982s4.017-8.982 8.982-8.982h17.965c4.965 0 8.982 4.022 8.982 8.982s-4.017 8.982-8.982 8.982z" fill="#afb9d2"/></svg>