<svg clip-rule="evenodd" fill-rule="evenodd" stroke-linecap="round" stroke-linejoin="round" viewBox="0 0 100 100" xmlns="http://www.w3.org/2000/svg" xmlns:xlink="http://www.w3.org/1999/xlink"><radialGradient id="c" cx="0" cy="0" gradientTransform="matrix(9.97276 -4.3695 4.81023 10.7501 -894.159 -1332.89)" gradientUnits="userSpaceOnUse" r="1"><stop offset="0" stop-color="#f3e3d2"/><stop offset=".24" stop-color="#f1e0cb"/><stop offset=".55" stop-color="#f2dcc3"/><stop offset="1" stop-color="#f3dabd"/></radialGradient><linearGradient id="a"><stop offset="0" stop-color="#e2b19d" stop-opacity=".902"/><stop offset=".05" stop-color="#e2b19d" stop-opacity=".902"/><stop offset="1" stop-color="#f3dabd" stop-opacity=".902"/></linearGradient><radialGradient id="d" cx="0" cy="0" gradientTransform="matrix(5.77559 -.44725 .41376 5.23194 -609.121 -551.438)" gradientUnits="userSpaceOnUse" r="1" xlink:href="#a"/><radialGradient id="e" cx="0" cy="0" gradientTransform="matrix(6.17759 .5845 -.58513 6.05549 -616.328 173.272)" gradientUnits="userSpaceOnUse" r="1" xlink:href="#a"/><radialGradient id="f" cx="0" cy="0" gradientTransform="matrix(3.82365 1.74712 -1.0869 2.32921 -1526.76 -269.391)" gradientUnits="userSpaceOnUse" r="1"><stop offset="0" stop-color="#c5a18d"/><stop offset=".02" stop-color="#c5a18d"/><stop offset="1" stop-color="#eed8bd"/></radialGradient><clipPath id="b"><path clip-rule="nonzero" d="M2.115 3.696h97.322V100H2.115z"/></clipPath><path d="M0 0h100v100H0z" fill="none"/><g clip-path="url(#b)"><path d="M50.278 82.54h-.007c-1.959-.018-3.547-1.618-3.529-3.556l.049-5.273c.018-1.938 1.635-3.509 3.593-3.491h.007c1.959.017 3.546 1.617 3.529 3.555l-.049 5.274c-.018 1.938-1.635 3.509-3.593 3.491z" fill="#f1d8bc" fill-rule="nonzero"/><path d="M53.912 74.603l.008-.831c.018-1.936-1.572-3.535-3.532-3.552-1.96-.018-3.579 1.551-3.597 3.488l-.02 2.173c2.478.446 4.926-.133 7.141-1.278z" fill="#f3dabd" fill-opacity=".89" fill-rule="nonzero"/><path d="M71.763 53.245c-.599-.306-1.323-.277-2.069.019.788-7.753-.274-14.556-.274-14.556s-.822-14.855-18.271-16.22C37.335 21.175 35.86 36.712 35.86 36.712c-.01.126-1.696 6.21-2.189 13.521-.896-1.228-2.029-1.905-3.086-1.676-1.807.393-2.704 3.264-2.006 6.413.7 3.15 2.729 5.389 4.532 4.997.28-.06.533-.185.762-.352 1.103 8.406 5.53 14.734 16.305 15.24 9.364.438 14.366-4.582 17.032-11.023 1.578.047 3.558-1.488 4.813-3.881 1.498-2.862 1.383-5.868-.26-6.706z" fill="#f3dabd" fill-rule="nonzero"/><path d="M61.695 41.477c1.82 4.054-2.249 9.726-9.09 12.668-6.84 2.943-13.861 2.042-15.681-2.012s2.249-9.725 9.09-12.668c6.84-2.942 13.861-2.042 15.681 2.012z" fill="url(#c)" fill-rule="nonzero"/><path d="M39.645 34.047c6.267 7.206 16.66 3.344 24.571 1.404 1.758-.369 3.476 1.094 5.139 2.65-.379-2.809-2.881-14.414-18.206-15.613C37.335 21.175 35.86 36.712 35.86 36.712c-.009.122-1.655 6.073-2.171 13.27.042.109.086.217.138.323 3.692-4.859 6.816-10.018 5.818-16.258z" fill="#f3dabd" fill-opacity=".89" fill-rule="nonzero"/><path d="M69.693 53.264c-2.343-4.587-1.791-15.207-1.791-15.207s-3.141-4.933-5.685-3.793c-3.912 1.754-4.832 3.441-13.272 2.613-10.477-1.031-9.435-5.543-9.435-5.543s-1.97 14.979-5.839 18.899c-.289.863-6.313-14.914 1.516-20.978 0 0-5.347-12.318 10.668-8.068 0 0 15.774-5.861 25.219 8.466 0 0 6.699 5.187-1.381 23.611z" fill="#4e2d19" fill-rule="nonzero"/><path d="M32.259 54.184c-.655-.271-.983-.407-1.442-.232-.132.31-.723.795-.2 1.377.263-.621.856-1.105 1.378-.523.719 1.028.518 2.405.449 3.472 1.12-1.727.666-3.375.671-5.199-.259-1.203-1.304-2.367-2.747-2.6a4.448 4.448 0 0 0-.449.191c.238.086.459.178.644.255 1.31.543 1.437 2.056 1.696 3.259zM69.365 58.359c.604-.22.907-.329 1.286-.137.076.302.532.796.004 1.318-.153-.605-.609-1.099-1.137-.577-.755.934-.751 2.251-.823 3.267-.762-1.702-.161-3.239.061-4.969.375-1.126 1.431-2.169 2.718-2.306.125.064.25.129.367.207-.218.068-.422.142-.593.204-1.21.44-1.508 1.868-1.883 2.993z" fill="#f3dabd" fill-opacity=".89" fill-rule="nonzero"/><path d="M46.25 57.907c.203 2.685-2.394 5.07-5.797 5.323-3.402.252-6.33-1.723-6.534-4.408s2.394-5.07 5.796-5.323c3.403-.253 6.331 1.722 6.535 4.408z" fill="url(#d)"/><path d="M67.728 61.245c-.3 3.107-3.494 5.35-7.128 5.006-3.633-.344-6.339-3.146-6.039-6.253.301-3.107 3.494-5.35 7.128-5.006s6.34 3.146 6.039 6.253z" fill="url(#e)"/><path d="M52.345 58.195c-.106.228-.782.147-1.509-.181-.728-.329-1.233-.78-1.128-1.009.105-.228.781-.146 1.509.182.727.328 1.233.78 1.128 1.008z" fill="url(#f)"/><path d="M50.363 56.19c-1.159 1.024-.585 1.782 1.32 2.211" fill="none" stroke="#9e6b5a" stroke-width=".24"/><path d="M65.115 46.326c-.321-.294-.599-.696-1.316-1-.923-.391-1.54-.314-1.884-.184-.463.177.437-1.139 2.113-.445 1.172.486 1.453 1.963 1.087 1.629zM38.207 43.787c.4-.178.793-.47 1.571-.533 1.002-.08 1.562.187 1.845.419.382.313-.045-1.218-1.857-1.087-1.269.092-2.014 1.403-1.559 1.201z" fill="#9e6b5a" fill-rule="nonzero"/><path d="M40.048 51.993c-1.496-.241-2.875.561-3.08 1.792s.918 1.764 2.415 2.006c1.496.243 2.799.102 3.004-1.13.205-1.231-.842-2.425-2.339-2.668zm-.377 3.739c-1.311-.212-2.296-.68-2.116-1.759s1.389-1.782 2.7-1.57c1.312.212 2.23 1.259 2.05 2.338-.179 1.079-1.322 1.203-2.634.991z" fill="#644135" fill-rule="nonzero"/><path d="M42.346 54.814c-.205 1.232-1.509 1.372-3.005 1.13-1.497-.241-2.619-.775-2.415-2.006.205-1.232 1.584-2.034 3.081-1.791 1.496.241 2.543 1.436 2.339 2.667z" fill="#e3cbb3" fill-rule="nonzero"/><path d="M42.264 54.894c-.18 1.079-1.323 1.203-2.634.991-1.312-.212-2.296-.68-2.117-1.759.18-1.079 1.389-1.783 2.701-1.57 1.311.212 2.229 1.259 2.05 2.338z" fill="#fff" fill-rule="nonzero"/><path d="M41.508 54.505c-.15.903-1.036 1.513-1.978 1.361-.942-.153-1.586-1.01-1.436-1.913.149-.903 1.035-1.513 1.977-1.361.942.153 1.586 1.01 1.437 1.913z" fill="#644135"/><path d="M41.113 53.925c-.068.411-.471.688-.9.619-.428-.07-.721-.46-.653-.871.067-.411.471-.688.899-.619.429.069.722.459.654.871z" fill="#fff" fill-opacity=".2"/><path d="M40.992 53.754a.439.439 0 0 1-.509.35.434.434 0 0 1-.37-.493.439.439 0 0 1 .509-.35c.243.039.409.26.37.493z" fill="#fff"/><path d="M36.926 53.938c-.204 1.231.918 1.765 2.415 2.006 1.496.242 2.8.101 3.005-1.13.204-1.231-.843-2.426-2.339-2.667-1.497-.242-2.876.559-3.081 1.791zm.587.188c.045-.27.155-.516.314-.731.079-.107.171-.206.274-.296a2.342 2.342 0 0 1 1.027-.503 2.814 2.814 0 0 1 1.086-.04c.819.132 1.485.591 1.826 1.18.136.235.22.492.241.756.01.133.005.267-.017.402-.068.405-.271.675-.567.844-.494.281-1.248.279-2.067.147-1.312-.212-2.296-.68-2.117-1.759z" fill="#e3cbb3" fill-rule="nonzero"/><path d="M58.042 56.509c-.049 1.247 1.2 1.643 2.715 1.701 1.516.059 2.723-.241 2.771-1.489.048-1.247-1.141-2.305-2.656-2.364-1.516-.059-2.783.905-2.83 2.152zm.063.094c.043-1.093 1.153-1.937 2.481-1.886 1.329.052 2.371.98 2.329 2.073s-1.101 1.356-2.429 1.305c-1.328-.052-2.422-.399-2.381-1.492z" fill="#644135" fill-rule="nonzero"/><path d="M58.052 56.667c-.048 1.247 1.201 1.642 2.716 1.701s2.723-.242 2.771-1.488c.048-1.248-1.142-2.306-2.657-2.365s-2.782.905-2.83 2.152z" fill="#e3cbb3" fill-rule="nonzero"/><path d="M58.116 56.761c-.042 1.093 1.053 1.44 2.381 1.492 1.328.051 2.387-.212 2.429-1.305.042-1.094-1.001-2.021-2.329-2.073-1.328-.051-2.439.793-2.481 1.886z" fill="#fff" fill-rule="nonzero"/><path d="M58.935 56.529c.036-.914.84-1.627 1.794-1.59s1.699.81 1.663 1.725c-.036.914-.84 1.627-1.794 1.59s-1.699-.81-1.663-1.725z" fill="#644135"/><path d="M59.44 56.039c.016-.416.382-.741.816-.724s.773.369.756.785c-.016.416-.382.74-.816.723s-.773-.368-.756-.784z" fill="#fff" fill-opacity=".2"/><path d="M59.592 55.895a.438.438 0 0 1 .462-.41c.246.01.438.209.428.444a.437.437 0 0 1-.462.41.436.436 0 0 1-.428-.444z" fill="#fff"/><g fill-rule="nonzero"><path d="M60.882 54.515c-1.515-.059-2.782.905-2.83 2.152s1.201 1.643 2.716 1.701c1.515.059 2.723-.242 2.771-1.489s-1.142-2.305-2.657-2.364zm-.385 3.738c-.83-.032-1.569-.18-1.996-.553-.257-.224-.401-.529-.385-.939.005-.137.027-.269.064-.397.074-.255.208-.49.389-.693.453-.51 1.198-.828 2.028-.796a2.868 2.868 0 0 1 1.056.254c.368.168.683.404.904.696.083.109.153.224.209.345.113.242.17.504.16.778-.042 1.093-1.101 1.356-2.429 1.305z" fill="#e3cbb3"/><path d="M56.544 66.471c1.046-1.724 1.106-3.817 1.06-4.841a.567.567 0 0 0-.649-.532c-5.421.772-11.033-.337-12.882-.763a.571.571 0 0 0-.701.518c-.068 1.046-.041 3.133.961 4.956 3.28-2.782 8.376-1.397 12.211.662z" fill="#a72e49"/><path d="M44.333 65.809c.93 1.693 2.704 3.159 6.031 3.351 3.383.196 5.206-1.088 6.18-2.689-3.835-2.059-8.931-3.444-12.211-.662z" fill="#d05d7e"/><path d="M32.608 107.954a1.635 1.635 0 0 1 .081-1.055l7.535-17.487-3.557-11.161s-3.66 1.357-4.83 3.522c-.686 1.269-7.742 22.622-7.502 25.189.241 2.566 3.163 9.196 3.163 9.196l6.644 12.932s1.346 5.361 3.535 6.081c1.943.641 3.149-.055 3.388-2.455.31-3.115-2.04-6.073-2.04-6.073l-4.728-12.204zM68.81 82.266c-1.23-2.235-5.143-3.674-5.143-3.674l-3.963 11.395 8.464 18.919c.124.278.129.593.014.875l-2.22 5.434-5.445 12.95s-2.701 4.74-2.129 6.818c.573 2.077 1.766 2.108 3.77 1.588 2.005-.519 3.572-5.833 3.572-5.833l7.301-13.169s3.223-6.759 3.514-9.386-7.015-24.608-7.735-25.917zM55.712 76.563c-1.6-.2-3.335-.343-5.194-.424a46.764 46.764 0 0 0-5.081.061l4.554 6.464z" fill="#f1d8bc"/><path d="M58.849 77.066a43.128 43.128 0 0 0-3.137-.503l-5.721 6.101-4.554-6.464a37.395 37.395 0 0 0-3.342.369c-4.207.67-7.92 2.164-8.065 5.153 0 0 2.079 18.638-.155 42.467-.059.631.539 1.143 1.158 1.319 2.149.613 7.803 1.901 17.585 1.989 12.872.116 12.697-2.416 12.697-2.416s.782-30.157 2.165-41.442c.396-3.233-2.868-5.409-8.631-6.573z" fill="#0071ba"/><path d="M66.773 106.885l-2.642-7.509-.464-20.784s4.3 1.484 5.143 3.674c.842 2.19 8.19 20.747 8.19 20.747zM36.667 78.251s-4.037 1.442-4.83 3.522C31.043 83.853 23 102.93 23 102.93l10.31 3.86 6.914-17.378z" fill="#0071ba"/><path d="M45.829 76.992a39.02 39.02 0 0 0-1.915.175l-1.682 7.975 3.708-2.662 4.051.184z" fill="#b6b8b9" fill-opacity=".42"/><path d="M46.79 74.869c-.002.168.43 2.523.927 3.927.478 1.351 2.274 3.868 2.274 3.868l-4.328-2.431-4.06 3.827 1.48-6.817z" fill="#bdd6f0"/><path d="M55.938 77.068c.629.095.913.837 1.543.964l.764 7.303-2.883-2.807-5.371.136z" fill="#b6b8b9" fill-opacity=".42"/><path d="M53.91 74.868c-.013.168-.255 2.449-.869 3.807-.592 1.306-3.05 3.989-3.05 3.989l4.974-2.387 3.721 4.148-.79-6.622z" fill="#bdd6f0"/></g></g></svg>