<?xml version="1.0" encoding="UTF-8" standalone="no"?><!DOCTYPE svg PUBLIC "-//W3C//DTD SVG 1.1//EN" "http://www.w3.org/Graphics/SVG/1.1/DTD/svg11.dtd"><svg width="100%" height="100%" viewBox="0 0 100 100" version="1.1" xmlns="http://www.w3.org/2000/svg" xmlns:xlink="http://www.w3.org/1999/xlink" xml:space="preserve" xmlns:serif="http://www.serif.com/" style="fill-rule:evenodd;clip-rule:evenodd;stroke-linecap:round;stroke-linejoin:round;"><rect id="Artboard3" x="0" y="0" width="100" height="100" style="fill:none;"/><g><g><g><clipPath id="_clip1"><rect x="2.115" y="3.696" width="97.322" height="96.304" clip-rule="nonzero"/></clipPath><g clip-path="url(#_clip1)"><path d="M50.278,82.54l-0.007,0c-1.959,-0.018 -3.547,-1.618 -3.529,-3.556l0.049,-5.273c0.018,-1.938 1.635,-3.509 3.593,-3.491l0.007,0c1.959,0.017 3.546,1.617 3.529,3.555l-0.049,5.274c-0.018,1.938 -1.635,3.509 -3.593,3.491Z" style="fill:#f1d8bc;fill-rule:nonzero;"/><path d="M53.912,74.603l0.008,-0.831c0.018,-1.936 -1.572,-3.535 -3.532,-3.552c-1.96,-0.018 -3.579,1.551 -3.597,3.488l-0.02,2.173c2.478,0.446 4.926,-0.133 7.141,-1.278Z" style="fill:#f3dabd;fill-opacity:0.890196;fill-rule:nonzero;"/><path d="M71.763,53.245c-0.599,-0.306 -1.323,-0.277 -2.069,0.019c0.788,-7.753 -0.274,-14.556 -0.274,-14.556c0,0 -0.822,-14.855 -18.271,-16.22c-13.814,-1.313 -15.289,14.224 -15.289,14.224c-0.01,0.126 -1.696,6.21 -2.189,13.521c-0.896,-1.228 -2.029,-1.905 -3.086,-1.676c-1.807,0.393 -2.704,3.264 -2.006,6.413c0.7,3.15 2.729,5.389 4.532,4.997c0.28,-0.06 0.533,-0.185 0.762,-0.352c1.103,8.406 5.53,14.734 16.305,15.24c9.364,0.438 14.366,-4.582 17.032,-11.023c1.578,0.047 3.558,-1.488 4.813,-3.881c1.498,-2.862 1.383,-5.868 -0.26,-6.706Z" style="fill:#f3dabd;fill-rule:nonzero;"/><path d="M61.695,41.477c1.82,4.054 -2.249,9.726 -9.09,12.668c-6.84,2.943 -13.861,2.042 -15.681,-2.012c-1.82,-4.054 2.249,-9.725 9.09,-12.668c6.84,-2.942 13.861,-2.042 15.681,2.012Z" style="fill:url(#_Radial2);fill-rule:nonzero;"/><path d="M39.645,34.047c6.267,7.206 16.66,3.344 24.571,1.404c1.758,-0.369 3.476,1.094 5.139,2.65c-0.379,-2.809 -2.881,-14.414 -18.206,-15.613c-13.814,-1.313 -15.289,14.224 -15.289,14.224c-0.009,0.122 -1.655,6.073 -2.171,13.27c0.042,0.109 0.086,0.217 0.138,0.323c3.692,-4.859 6.816,-10.018 5.818,-16.258Z" style="fill:#f3dabd;fill-opacity:0.890196;fill-rule:nonzero;"/><path d="M69.693,53.264c-2.343,-4.587 -1.791,-15.207 -1.791,-15.207c0,0 -3.141,-4.933 -5.685,-3.793c-3.912,1.754 -4.832,3.441 -13.272,2.613c-10.477,-1.031 -9.435,-5.543 -9.435,-5.543c0,0 -1.97,14.979 -5.839,18.899c-0.289,0.863 -6.313,-14.914 1.516,-20.978c0,0 -5.347,-12.318 10.668,-8.068c0,0 15.774,-5.861 25.219,8.466c0,0 6.699,5.187 -1.381,23.611Z" style="fill:#4e2d19;fill-rule:nonzero;"/><path d="M32.259,54.184c-0.655,-0.271 -0.983,-0.407 -1.442,-0.232c-0.132,0.31 -0.723,0.795 -0.2,1.377c0.263,-0.621 0.856,-1.105 1.378,-0.523c0.719,1.028 0.518,2.405 0.449,3.472c1.12,-1.727 0.666,-3.375 0.671,-5.199c-0.259,-1.203 -1.304,-2.367 -2.747,-2.6c-0.153,0.058 -0.304,0.117 -0.449,0.191c0.238,0.086 0.459,0.178 0.644,0.255c1.31,0.543 1.437,2.056 1.696,3.259Z" style="fill:#f3dabd;fill-opacity:0.890196;fill-rule:nonzero;"/><path d="M69.365,58.359c0.604,-0.22 0.907,-0.329 1.286,-0.137c0.076,0.302 0.532,0.796 0.004,1.318c-0.153,-0.605 -0.609,-1.099 -1.137,-0.577c-0.755,0.934 -0.751,2.251 -0.823,3.267c-0.762,-1.702 -0.161,-3.239 0.061,-4.969c0.375,-1.126 1.431,-2.169 2.718,-2.306c0.125,0.064 0.25,0.129 0.367,0.207c-0.218,0.068 -0.422,0.142 -0.593,0.204c-1.21,0.44 -1.508,1.868 -1.883,2.993Z" style="fill:#f3dabd;fill-opacity:0.890196;fill-rule:nonzero;"/><path d="M46.25,57.907c0.203,2.685 -2.394,5.07 -5.797,5.323c-3.402,0.252 -6.33,-1.723 -6.534,-4.408c-0.204,-2.685 2.394,-5.07 5.796,-5.323c3.403,-0.253 6.331,1.722 6.535,4.408Z" style="fill:url(#_Radial3);"/><path d="M67.728,61.245c-0.3,3.107 -3.494,5.35 -7.128,5.006c-3.633,-0.344 -6.339,-3.146 -6.039,-6.253c0.301,-3.107 3.494,-5.35 7.128,-5.006c3.634,0.344 6.34,3.146 6.039,6.253Z" style="fill:url(#_Radial4);"/><path d="M52.345,58.195c-0.106,0.228 -0.782,0.147 -1.509,-0.181c-0.728,-0.329 -1.233,-0.78 -1.128,-1.009c0.105,-0.228 0.781,-0.146 1.509,0.182c0.727,0.328 1.233,0.78 1.128,1.008Z" style="fill:url(#_Radial5);"/><path d="M50.363,56.19c-1.159,1.024 -0.585,1.782 1.32,2.211" style="fill:none;stroke:#9e6b5a;stroke-width:0.24px;"/><path d="M65.115,46.326c-0.321,-0.294 -0.599,-0.696 -1.316,-1c-0.923,-0.391 -1.54,-0.314 -1.884,-0.184c-0.463,0.177 0.437,-1.139 2.113,-0.445c1.172,0.486 1.453,1.963 1.087,1.629Z" style="fill:#9e6b5a;fill-rule:nonzero;"/><path d="M38.207,43.787c0.4,-0.178 0.793,-0.47 1.571,-0.533c1.002,-0.08 1.562,0.187 1.845,0.419c0.382,0.313 -0.045,-1.218 -1.857,-1.087c-1.269,0.092 -2.014,1.403 -1.559,1.201Z" style="fill:#9e6b5a;fill-rule:nonzero;"/><path d="M40.048,51.993c-1.496,-0.241 -2.875,0.561 -3.08,1.792c-0.205,1.231 0.918,1.764 2.415,2.006c1.496,0.243 2.799,0.102 3.004,-1.13c0.205,-1.231 -0.842,-2.425 -2.339,-2.668Zm-0.377,3.739c-1.311,-0.212 -2.296,-0.68 -2.116,-1.759c0.18,-1.079 1.389,-1.782 2.7,-1.57c1.312,0.212 2.23,1.259 2.05,2.338c-0.179,1.079 -1.322,1.203 -2.634,0.991Z" style="fill:#644135;fill-rule:nonzero;"/><path d="M42.346,54.814c-0.205,1.232 -1.509,1.372 -3.005,1.13c-1.497,-0.241 -2.619,-0.775 -2.415,-2.006c0.205,-1.232 1.584,-2.034 3.081,-1.791c1.496,0.241 2.543,1.436 2.339,2.667Z" style="fill:#e3cbb3;fill-rule:nonzero;"/><path d="M42.264,54.894c-0.18,1.079 -1.323,1.203 -2.634,0.991c-1.312,-0.212 -2.296,-0.68 -2.117,-1.759c0.18,-1.079 1.389,-1.783 2.701,-1.57c1.311,0.212 2.229,1.259 2.05,2.338Z" style="fill:#fff;fill-rule:nonzero;"/><path d="M41.508,54.505c-0.15,0.903 -1.036,1.513 -1.978,1.361c-0.942,-0.153 -1.586,-1.01 -1.436,-1.913c0.149,-0.903 1.035,-1.513 1.977,-1.361c0.942,0.153 1.586,1.01 1.437,1.913Z" style="fill:#644135;"/><path d="M41.113,53.925c-0.068,0.411 -0.471,0.688 -0.9,0.619c-0.428,-0.07 -0.721,-0.46 -0.653,-0.871c0.067,-0.411 0.471,-0.688 0.899,-0.619c0.429,0.069 0.722,0.459 0.654,0.871Z" style="fill:#fff;fill-opacity:0.2;"/><path d="M40.992,53.754c-0.038,0.232 -0.267,0.389 -0.509,0.35c-0.243,-0.039 -0.409,-0.26 -0.37,-0.493c0.038,-0.232 0.267,-0.389 0.509,-0.35c0.243,0.039 0.409,0.26 0.37,0.493Z" style="fill:#fff;"/><path d="M36.926,53.938c-0.204,1.231 0.918,1.765 2.415,2.006c1.496,0.242 2.8,0.101 3.005,-1.13c0.204,-1.231 -0.843,-2.426 -2.339,-2.667c-1.497,-0.242 -2.876,0.559 -3.081,1.791Zm0.587,0.188c0.045,-0.27 0.155,-0.516 0.314,-0.731c0.079,-0.107 0.171,-0.206 0.274,-0.296c0.276,-0.243 0.632,-0.412 1.027,-0.503c0.084,-0.02 0.169,-0.036 0.257,-0.047c0.265,-0.035 0.543,-0.04 0.829,0.007c0.819,0.132 1.485,0.591 1.826,1.18c0.136,0.235 0.22,0.492 0.241,0.756c0.01,0.133 0.005,0.267 -0.017,0.402c-0.068,0.405 -0.271,0.675 -0.567,0.844c-0.494,0.281 -1.248,0.279 -2.067,0.147c-1.312,-0.212 -2.296,-0.68 -2.117,-1.759Z" style="fill:#e3cbb3;fill-rule:nonzero;"/><path d="M58.042,56.509c-0.049,1.247 1.2,1.643 2.715,1.701c1.516,0.059 2.723,-0.241 2.771,-1.489c0.048,-1.247 -1.141,-2.305 -2.656,-2.364c-1.516,-0.059 -2.783,0.905 -2.83,2.152Zm0.063,0.094c0.043,-1.093 1.153,-1.937 2.481,-1.886c1.329,0.052 2.371,0.98 2.329,2.073c-0.042,1.093 -1.101,1.356 -2.429,1.305c-1.328,-0.052 -2.422,-0.399 -2.381,-1.492Z" style="fill:#644135;fill-rule:nonzero;"/><path d="M58.052,56.667c-0.048,1.247 1.201,1.642 2.716,1.701c1.515,0.059 2.723,-0.242 2.771,-1.488c0.048,-1.248 -1.142,-2.306 -2.657,-2.365c-1.515,-0.059 -2.782,0.905 -2.83,2.152Z" style="fill:#e3cbb3;fill-rule:nonzero;"/><path d="M58.116,56.761c-0.042,1.093 1.053,1.44 2.381,1.492c1.328,0.051 2.387,-0.212 2.429,-1.305c0.042,-1.094 -1.001,-2.021 -2.329,-2.073c-1.328,-0.051 -2.439,0.793 -2.481,1.886Z" style="fill:#fff;fill-rule:nonzero;"/><path d="M58.935,56.529c0.036,-0.914 0.84,-1.627 1.794,-1.59c0.954,0.037 1.699,0.81 1.663,1.725c-0.036,0.914 -0.84,1.627 -1.794,1.59c-0.954,-0.037 -1.699,-0.81 -1.663,-1.725Z" style="fill:#644135;"/><path d="M59.44,56.039c0.016,-0.416 0.382,-0.741 0.816,-0.724c0.434,0.017 0.773,0.369 0.756,0.785c-0.016,0.416 -0.382,0.74 -0.816,0.723c-0.434,-0.017 -0.773,-0.368 -0.756,-0.784Z" style="fill:#fff;fill-opacity:0.2;"/><path d="M59.592,55.895c0.009,-0.235 0.216,-0.419 0.462,-0.41c0.246,0.01 0.438,0.209 0.428,0.444c-0.009,0.236 -0.216,0.42 -0.462,0.41c-0.245,-0.009 -0.437,-0.208 -0.428,-0.444Z" style="fill:#fff;"/><path d="M60.882,54.515c-1.515,-0.059 -2.782,0.905 -2.83,2.152c-0.048,1.247 1.201,1.643 2.716,1.701c1.515,0.059 2.723,-0.242 2.771,-1.489c0.048,-1.247 -1.142,-2.305 -2.657,-2.364Zm-0.385,3.738c-0.83,-0.032 -1.569,-0.18 -1.996,-0.553c-0.257,-0.224 -0.401,-0.529 -0.385,-0.939c0.005,-0.137 0.027,-0.269 0.064,-0.397c0.074,-0.255 0.208,-0.49 0.389,-0.693c0.453,-0.51 1.198,-0.828 2.028,-0.796c0.289,0.011 0.56,0.071 0.814,0.157c0.083,0.029 0.163,0.061 0.242,0.097c0.368,0.168 0.683,0.404 0.904,0.696c0.083,0.109 0.153,0.224 0.209,0.345c0.113,0.242 0.17,0.504 0.16,0.778c-0.042,1.093 -1.101,1.356 -2.429,1.305Z" style="fill:#e3cbb3;fill-rule:nonzero;"/><path d="M56.544,66.471c1.046,-1.724 1.106,-3.817 1.06,-4.841c-0.015,-0.332 -0.317,-0.58 -0.649,-0.532c-5.421,0.772 -11.033,-0.337 -12.882,-0.763c-0.346,-0.079 -0.679,0.167 -0.701,0.518c-0.068,1.046 -0.041,3.133 0.961,4.956c3.28,-2.782 8.376,-1.397 12.211,0.662Z" style="fill:#a72e49;fill-rule:nonzero;"/><path d="M44.333,65.809c0.93,1.693 2.704,3.159 6.031,3.351c3.383,0.196 5.206,-1.088 6.18,-2.689c-3.835,-2.059 -8.931,-3.444 -12.211,-0.662Z" style="fill:#d05d7e;fill-rule:nonzero;"/><path d="M32.608,107.954c-0.091,-0.351 -0.062,-0.721 0.081,-1.055l7.535,-17.487l-3.557,-11.161c0,0 -3.66,1.357 -4.83,3.522c-0.686,1.269 -7.742,22.622 -7.502,25.189c0.241,2.566 3.163,9.196 3.163,9.196l6.644,12.932c0,0 1.346,5.361 3.535,6.081c1.943,0.641 3.149,-0.055 3.388,-2.455c0.31,-3.115 -2.04,-6.073 -2.04,-6.073l-4.728,-12.204l-1.689,-6.485Z" style="fill:#f1d8bc;fill-rule:nonzero;"/><path d="M68.81,82.266c-1.23,-2.235 -5.143,-3.674 -5.143,-3.674l-3.963,11.395l8.464,18.919c0.124,0.278 0.129,0.593 0.014,0.875l-2.22,5.434l-5.445,12.95c0,0 -2.701,4.74 -2.129,6.818c0.573,2.077 1.766,2.108 3.77,1.588c2.005,-0.519 3.572,-5.833 3.572,-5.833l7.301,-13.169c0,0 3.223,-6.759 3.514,-9.386c0.291,-2.627 -7.015,-24.608 -7.735,-25.917Z" style="fill:#f1d8bc;fill-rule:nonzero;"/><path d="M55.712,76.563c-1.6,-0.2 -3.335,-0.343 -5.194,-0.424c-1.472,-0.065 -3.248,-0.062 -5.081,0.061l4.554,6.464l5.721,-6.101Z" style="fill:#f1d8bc;fill-rule:nonzero;"/><path d="M58.849,77.066c-0.975,-0.197 -2.025,-0.363 -3.137,-0.503l-5.721,6.101l-4.554,-6.464c-1.111,0.075 -2.244,0.194 -3.342,0.369c-4.207,0.67 -7.92,2.164 -8.065,5.153c0,0 2.079,18.638 -0.155,42.467c-0.059,0.631 0.539,1.143 1.158,1.319c2.149,0.613 7.803,1.901 17.585,1.989c12.872,0.116 12.697,-2.416 12.697,-2.416c0,0 0.782,-30.157 2.165,-41.442c0.396,-3.233 -2.868,-5.409 -8.631,-6.573Z" style="fill:#0071ba;fill-rule:nonzero;"/><path d="M66.773,106.885l-2.642,-7.509l-0.464,-20.784c0,0 4.3,1.484 5.143,3.674c0.842,2.19 8.19,20.747 8.19,20.747l-10.227,3.872Z" style="fill:#0071ba;fill-rule:nonzero;"/><path d="M36.667,78.251c0,0 -4.037,1.442 -4.83,3.522c-0.794,2.08 -8.837,21.157 -8.837,21.157l10.31,3.86l6.914,-17.378l-3.557,-11.161Z" style="fill:#0071ba;fill-rule:nonzero;"/><path d="M45.829,76.992c-0.635,0.042 -1.277,0.101 -1.915,0.175l-1.682,7.975l3.708,-2.662l4.051,0.184l-4.162,-5.672Z" style="fill:#b6b8b9;fill-opacity:0.419608;fill-rule:nonzero;"/><path d="M46.79,74.869c-0.002,0.168 0.43,2.523 0.927,3.927c0.478,1.351 2.274,3.868 2.274,3.868l-4.328,-2.431l-4.06,3.827l1.48,-6.817l3.707,-2.374Z" style="fill:#bdd6f0;fill-rule:nonzero;"/><path d="M55.938,77.068c0.629,0.095 0.913,0.837 1.543,0.964l0.764,7.303l-2.883,-2.807l-5.371,0.136l5.947,-5.596Z" style="fill:#b6b8b9;fill-opacity:0.419608;fill-rule:nonzero;"/><path d="M53.91,74.868c-0.013,0.168 -0.255,2.449 -0.869,3.807c-0.592,1.306 -3.05,3.989 -3.05,3.989l4.974,-2.387l3.721,4.148l-0.79,-6.622l-3.986,-2.935Z" style="fill:#bdd6f0;fill-rule:nonzero;"/></g></g></g></g><defs><radialGradient id="_Radial2" cx="0" cy="0" r="1" gradientUnits="userSpaceOnUse" gradientTransform="matrix(9.97276,-4.3695,4.81023,10.7501,-894.159,-1332.89)"><stop offset="0" style="stop-color:#f3e3d2;stop-opacity:1"/><stop offset="0.24" style="stop-color:#f1e0cb;stop-opacity:1"/><stop offset="0.55" style="stop-color:#f2dcc3;stop-opacity:1"/><stop offset="1" style="stop-color:#f3dabd;stop-opacity:1"/></radialGradient><radialGradient id="_Radial3" cx="0" cy="0" r="1" gradientUnits="userSpaceOnUse" gradientTransform="matrix(5.77559,-0.447249,0.413763,5.23194,-609.121,-551.438)"><stop offset="0" style="stop-color:#e2b19d;stop-opacity:0.901961"/><stop offset="0.05" style="stop-color:#e2b19d;stop-opacity:0.901961"/><stop offset="1" style="stop-color:#f3dabd;stop-opacity:0.901961"/></radialGradient><radialGradient id="_Radial4" cx="0" cy="0" r="1" gradientUnits="userSpaceOnUse" gradientTransform="matrix(6.17759,0.584498,-0.585126,6.05549,-616.328,173.272)"><stop offset="0" style="stop-color:#e2b19d;stop-opacity:0.901961"/><stop offset="0.05" style="stop-color:#e2b19d;stop-opacity:0.901961"/><stop offset="1" style="stop-color:#f3dabd;stop-opacity:0.901961"/></radialGradient><radialGradient id="_Radial5" cx="0" cy="0" r="1" gradientUnits="userSpaceOnUse" gradientTransform="matrix(3.82365,1.74712,-1.0869,2.32921,-1526.76,-269.391)"><stop offset="0" style="stop-color:#c5a18d;stop-opacity:1"/><stop offset="0.02" style="stop-color:#c5a18d;stop-opacity:1"/><stop offset="1" style="stop-color:#eed8bd;stop-opacity:1"/></radialGradient></defs></svg>