<?xml version="1.0" encoding="UTF-8" standalone="no"?><!DOCTYPE svg PUBLIC "-//W3C//DTD SVG 1.1//EN" "http://www.w3.org/Graphics/SVG/1.1/DTD/svg11.dtd"><svg width="100%" height="100%" viewBox="0 0 24 24" version="1.1" xmlns="http://www.w3.org/2000/svg" xmlns:xlink="http://www.w3.org/1999/xlink" xml:space="preserve" xmlns:serif="http://www.serif.com/" style="fill-rule:evenodd;clip-rule:evenodd;stroke-linejoin:round;stroke-miterlimit:1.41421;"><rect x="0" y="0" width="24" height="24" style="fill:none;"/><path d="M9.31,6.71c-0.187,0.187 -0.292,0.441 -0.292,0.705c0,0.264 0.105,0.518 0.292,0.705l3.88,3.88l-3.88,3.88c-0.187,0.187 -0.292,0.441 -0.292,0.705c0,0.547 0.45,0.997 0.997,0.997c0.264,0 0.518,-0.105 0.705,-0.292l4.59,-4.59c0.187,-0.187 0.292,-0.441 0.292,-0.705c0,-0.264 -0.105,-0.518 -0.292,-0.705l-4.59,-4.59c-0.38,-0.38 -1.02,-0.38 -1.41,0.01Z" style="fill:#fff;fill-rule:nonzero;"/></svg>