<?xml version="1.0" encoding="utf-8"?>
<!-- Generator: Adobe Illustrator 23.0.3, SVG Export Plug-In . SVG Version: 6.00 Build 0)  -->
<svg version="1.1" id="Layer_1" xmlns="http://www.w3.org/2000/svg" xmlns:xlink="http://www.w3.org/1999/xlink" x="0px" y="0px"
	 viewBox="0 0 167.5 175.7" style="enable-background:new 0 0 167.5 175.7;" xml:space="preserve">
<style type="text/css">
	.st0{fill:#EBCBB2;}
	.st1{fill:url(#SVGID_1_);}
	.st2{fill:#AE6B59;}
	.st3{fill:url(#SVGID_2_);}
	.st4{fill:url(#SVGID_3_);}
	.st5{opacity:0.9;fill:url(#SVGID_4_);}
	.st6{opacity:0.9;fill:url(#SVGID_5_);}
	.st7{fill:url(#SVGID_6_);}
	.st8{fill:none;stroke:#AE6B59;stroke-width:0.2364;stroke-linecap:round;stroke-linejoin:round;stroke-miterlimit:10;}
	.st9{fill:url(#SVGID_7_);}
	.st10{fill:url(#SVGID_8_);}
	.st11{fill:none;stroke:#AE6B59;stroke-width:0.4466;stroke-linecap:round;stroke-linejoin:round;stroke-miterlimit:10;}
	.st12{fill:#B44F52;}
	.st13{fill:#EC6D7C;}
	.st14{fill:#DEBCA4;}
	.st15{fill:#FFFFFF;}
	.st16{fill:#6F3F31;}
	.st17{opacity:0.2;fill:#FFFFFF;}
</style>
<g>
	<path class="st0" d="M74.3,166.1c0.2,0.9,0.3,2.2,0,3.4c0.1,4,15.9,1.1,17.3,0.9c0.9-0.1,2.4-0.4,3.8-0.8c0.1-1.7,0.2-3.2,0.2-3.2
		L74.9,165L74.3,166.1z"/>
	<g>
		
			<radialGradient id="SVGID_1_" cx="-677.8232" cy="353.8347" r="11.3293" gradientTransform="matrix(-0.9917 0.1272 0.1284 0.9824 -704.795 -140.4677)" gradientUnits="userSpaceOnUse">
			<stop  offset="0.2949" style="stop-color:#F5D8BC"/>
			<stop  offset="1" style="stop-color:#F5D8BC"/>
		</radialGradient>
		<path class="st1" d="M18.6,108.5c-25.1-8.3-14,30.2,4.1,24.6"/>
		<path class="st2" d="M11.5,118.2c0,0,0.6-3,2.7-1.9c2.1,1.1,2.9,3.4,3.1,5.6c0.2,2.3-1.6,4.6-1.3,3.6c0.3-0.9,1.4-4.2-0.4-4.5
			C13.7,120.8,10.9,119.7,11.5,118.2z"/>
	</g>
	
		<radialGradient id="SVGID_2_" cx="1265.7623" cy="179.0098" r="11.3294" gradientTransform="matrix(0.9981 6.140000e-02 -6.190000e-02 0.9887 -1097.3328 -130.497)" gradientUnits="userSpaceOnUse">
		<stop  offset="0.2949" style="stop-color:#F5D8BC"/>
		<stop  offset="1" style="stop-color:#F5D8BC"/>
	</radialGradient>
	<path class="st3" d="M148.3,112.2c24.5-9.9,16,29.2-2.5,24.9"/>
	
		<radialGradient id="SVGID_3_" cx="1194.7916" cy="-27.7788" r="79.9171" gradientTransform="matrix(0.9393 0.2491 -0.2536 0.958 -1045.3973 -182.646)" gradientUnits="userSpaceOnUse">
		<stop  offset="0.2949" style="stop-color:#F5D8BC"/>
		<stop  offset="1" style="stop-color:#F5D8BC"/>
	</radialGradient>
	<path class="st4" d="M76.5,6.4c-31,4.1-46.5,15.4-57.3,42.1c-15,37.1-1.8,63.5-2.1,75.1c-0.3,11.5,4.7,24,24.3,36
		c19.1,11.7,59.3,24,96.7-10.1c13.2-12.1,10.3-24.1,10.3-24.1s14.6-46.1,3-77.6C139.7,16,106.1,2.5,76.5,6.4z"/>
	
		<radialGradient id="SVGID_4_" cx="1194.0466" cy="446.7094" r="19.0607" gradientTransform="matrix(0.9192 -0.163 0.1519 0.841 -1123.1364 -47.6053)" gradientUnits="userSpaceOnUse">
		<stop  offset="4.902740e-02" style="stop-color:#F2B29D"/>
		<stop  offset="1" style="stop-color:#F5D8BC"/>
	</radialGradient>
	<path class="st5" d="M61,130.1c1.5,8.2-5.7,16.4-16,18.2c-10.3,1.8-19.9-3.4-21.4-11.6c-1.5-8.2,5.7-16.4,16-18.2
		C49.9,116.7,59.5,121.9,61,130.1z"/>
	
		<radialGradient id="SVGID_5_" cx="1237.7113" cy="245.1237" r="19.0606" gradientTransform="matrix(1 -5.200000e-03 5.200000e-03 0.9906 -1114.7657 -103.3374)" gradientUnits="userSpaceOnUse">
		<stop  offset="4.902740e-02" style="stop-color:#F2B29D"/>
		<stop  offset="1" style="stop-color:#F5D8BC"/>
	</radialGradient>
	<path class="st6" d="M144.5,132.9c0.1,9.7-9,17.6-20.2,17.7c-11.2,0.1-20.4-7.8-20.4-17.4c-0.1-9.7,9-17.6,20.2-17.7
		C135.3,115.4,144.5,123.2,144.5,132.9z"/>
	<path class="st2" d="M156.1,121.4c0,0-0.8-3-2.8-1.7c-2,1.3-2.6,3.5-2.7,5.8c-0.1,2.3,1.9,4.4,1.6,3.5c-0.4-0.9-1.7-4.1,0.1-4.5
		C154.1,124.1,156.8,122.8,156.1,121.4z"/>
	<g>
		
			<radialGradient id="SVGID_6_" cx="893.7083" cy="-81.0611" r="8.986" gradientTransform="matrix(1.3632 0.4627 -0.2897 0.8375 -1161.6155 -222.2634)" gradientUnits="userSpaceOnUse">
			<stop  offset="2.353710e-02" style="stop-color:#D1A18C"/>
			<stop  offset="1" style="stop-color:#F5D8BC"/>
		</radialGradient>
		<path class="st7" d="M87.1,127.9c-0.3,0.7-2.3,0.7-4.7-0.1c-2.3-0.8-4-2-3.7-2.8c0.3-0.7,2.3-0.7,4.7,0.1
			C85.7,126,87.4,127.2,87.1,127.9z"/>
		<path class="st8" d="M80.5,122.3c-3.2,3.5-1.2,5.7,4.7,6.4"/>
	</g>
	
		<radialGradient id="SVGID_7_" cx="870.0927" cy="405.8384" r="23.3804" gradientTransform="matrix(1.25 -0.7003 0.7738 1.3555 -1327.3262 152.8979)" gradientUnits="userSpaceOnUse">
		<stop  offset="0" style="stop-color:#F8E3D1"/>
		<stop  offset="0.2356" style="stop-color:#F7E0CA"/>
		<stop  offset="0.5458" style="stop-color:#F6DCC2"/>
		<stop  offset="1" style="stop-color:#F5D8BC"/>
	</radialGradient>
	<path class="st9" d="M110.5,73.4c6.8,12-3.8,30.7-23.8,41.9c-20,11.2-41.7,10.6-48.5-1.4C31.3,102,42,83.2,62,72
		C82,60.8,103.7,61.5,110.5,73.4z"/>
	<g>
		<path class="st2" d="M124.2,79.2c-1.1-0.8-2-2-4.3-2.7c-2.9-0.9-4.8-0.5-5.8,0c-1.4,0.7,1-3.7,6.3-2
			C124.1,75.7,125.5,80.1,124.2,79.2z"/>
		<path class="st2" d="M34.8,82.6c1.2-0.7,2.3-1.7,4.6-2.1c3-0.6,4.8,0.1,5.8,0.7c1.3,0.8-0.5-3.7-6-2.8
			C35.4,79.1,33.5,83.4,34.8,82.6z"/>
	</g>
	
		<linearGradient id="SVGID_8_" gradientUnits="userSpaceOnUse" x1="1182.161" y1="29.4424" x2="1201.1351" y2="196.5589" gradientTransform="matrix(0.9981 6.190000e-02 -6.190000e-02 0.9981 -1097.3328 -124.8446)">
		<stop  offset="0" style="stop-color:#F9CA9E"/>
		<stop  offset="0.4484" style="stop-color:#DFAC79"/>
		<stop  offset="0.5185" style="stop-color:#D6A073"/>
		<stop  offset="0.711" style="stop-color:#C08365"/>
		<stop  offset="0.8781" style="stop-color:#B3715C"/>
		<stop  offset="1" style="stop-color:#AE6B59"/>
	</linearGradient>
	<path class="st10" d="M75.4,5.2c-30.9,4.6-51.9,16.3-62.7,43c-10.3,25.4-0.8,46.2,2,60.3c0.6-0.6,0.9,1.2,1.5-2.5
		c1.9-11.4-1.2-24.6-1.4-32c-0.3-10.7,4.9-19,9.6-22.1c14.3-9.3,21.9-7,35.4-1.5c16.1,6.6,41.3-11.3,61.9-6.2
		c24,5.9,32.3,26,29.7,40.5c-3.1,17.3-0.5,26.4-0.4,26.5c1.9-0.4,5.2-0.1,6.5-0.3c5.8-13.3,9.6-38.6,0.7-62.7
		C144.7,11.7,110.7-0.1,75.4,5.2z"/>
	<g>
		<path class="st11" d="M90.5,31c1.4,11.2-8,17.8-12.6,19.5c-10.2,3.7-19.4,2-29.1-4.9"/>
		<path class="st11" d="M89.5,27.8c3,8.8-5.9,16.6-12.3,18.9c-7.6,2.8-15.5-0.1-20.9-5.8"/>
		<path class="st11" d="M89.7,25.8c0.6,7.7-10.8,18-18.5,13.9"/>
	</g>
	<path class="st12" d="M91.9,147.7c0.8-0.5,1.6-1.1,2.3-1.8c1.3-1.3,2.1-3.1,2.7-4.8c0.6-2,1-4.1,1-6.1c0-1-0.9-1.9-1.9-1.9
		c-8.4,0.2-16.9-0.2-25.3-1c-0.9-0.1-1.8,0.5-2,1.4c-1.2,5.3,1.4,11.2,5.9,14.3C79.7,151,86.7,150.9,91.9,147.7z"/>
	<path class="st13" d="M70.2,138.2c3.7-1.8,7.9-1.8,12-1.4c3.4,0.3,6.8,1,9.7,2.6c1.6,0.9,3.1,2.1,4.2,3.6c-0.5,1.1-1.1,2.1-1.9,2.9
		c-0.7,0.7-1.5,1.3-2.3,1.8c-5.2,3.2-12.2,3.3-17.2,0c-3-2-5.1-5.2-5.9-8.6C69.2,138.8,69.7,138.5,70.2,138.2z"/>
	<g>
		<path class="st14" d="M40.2,113.8c-4.6-0.3-8.6,2.6-8.9,6.5c-0.2,3.9,3.4,5.2,8,5.5c4.6,0.3,8.6-0.6,8.8-4.4
			C48.4,117.4,44.8,114.1,40.2,113.8z M40.2,125.4c-4.1-0.3-7.2-1.4-7-4.8c0.2-3.4,3.7-5.9,7.8-5.7c4.1,0.2,7.2,3.2,7,6.6
			C47.7,125,44.3,125.7,40.2,125.4z"/>
		<path class="st0" d="M48.1,121.8c-0.2,3.9-4.2,4.7-8.8,4.4c-4.6-0.3-8.2-1.6-8-5.5c0.2-3.9,4.2-6.8,8.9-6.5
			C44.8,114.6,48.3,117.9,48.1,121.8z"/>
		<path class="st15" d="M47.9,122.1c-0.2,3.4-3.7,4.1-7.7,3.9c-4.1-0.3-7.2-1.4-7-4.8c0.2-3.4,3.7-5.9,7.8-5.7
			C44.9,115.7,48.1,118.7,47.9,122.1z"/>
		<path class="st16" d="M45.4,121.1c-0.2,2.8-2.7,5-5.6,4.8c-2.9-0.2-5.2-2.6-5-5.5c0.2-2.8,2.7-5,5.6-4.8
			C43.4,115.8,45.6,118.3,45.4,121.1z"/>
		<path class="st17" d="M44,119.4c-0.1,1.3-1.2,2.3-2.6,2.2c-1.3-0.1-2.3-1.2-2.3-2.5c0.1-1.3,1.2-2.3,2.6-2.2
			C43.1,117,44.1,118.1,44,119.4z"/>
		<path class="st15" d="M43.6,118.9c0,0.7-0.7,1.3-1.4,1.2c-0.8,0-1.3-0.7-1.3-1.4c0-0.7,0.7-1.3,1.4-1.2
			C43.1,117.6,43.7,118.2,43.6,118.9z"/>
		<path class="st0" d="M31.3,120.8c-0.2,3.9,3.4,5.2,8,5.5c4.6,0.3,8.6-0.6,8.8-4.4c0.2-3.9-3.3-7.2-8-7.5
			C35.5,114,31.5,116.9,31.3,120.8z M33.1,121.2c0.1-0.8,0.3-1.6,0.7-2.4c0.2-0.4,0.5-0.7,0.7-1c0.8-0.8,1.8-1.5,3-1.9
			c0.3-0.1,0.5-0.2,0.8-0.2c0.8-0.2,1.6-0.3,2.5-0.2c2.5,0.2,4.7,1.4,5.9,3.1c0.5,0.7,0.8,1.5,1,2.3c0.1,0.4,0.1,0.8,0.1,1.2
			c-0.1,1.3-0.6,2.2-1.5,2.8c-1.4,1-3.7,1.2-6.3,1.1l0,0l0,0C36,125.7,32.9,124.5,33.1,121.2z"/>
	</g>
	<g>
		<path class="st14" d="M113.5,121.3c0.2,3.9,4.2,4.7,8.8,4.4c4.6-0.3,8.2-1.6,8-5.5c-0.2-3.9-4.2-6.8-8.9-6.5
			C116.8,114.1,113.2,117.4,113.5,121.3z M113.7,121.6c-0.2-3.4,2.9-6.3,7-6.6c4.1-0.3,7.6,2.3,7.8,5.7c0.2,3.4-2.9,4.5-7,4.8
			C117.3,125.7,113.9,125,113.7,121.6z"/>
		<path class="st0" d="M113.5,121.8c0.2,3.9,4.2,4.7,8.8,4.4c4.6-0.3,8.2-1.6,8-5.5c-0.2-3.9-4.2-6.8-8.9-6.5
			C116.9,114.6,113.3,117.9,113.5,121.8z"/>
		<path class="st15" d="M113.8,122.1c0.2,3.4,3.7,4.1,7.7,3.9c4.1-0.3,7.2-1.4,7-4.8c-0.2-3.4-3.7-5.9-7.8-5.7
			C116.7,115.7,113.5,118.7,113.8,122.1z"/>
		<path class="st16" d="M116.2,121.1c0.2,2.8,2.7,5,5.6,4.8c2.9-0.2,5.2-2.6,5-5.5c-0.2-2.8-2.7-5-5.6-4.8
			C118.2,115.8,116,118.3,116.2,121.1z"/>
		<path class="st17" d="M117.6,119.4c0.1,1.3,1.2,2.3,2.6,2.2c1.3-0.1,2.3-1.2,2.3-2.5c-0.1-1.3-1.2-2.3-2.6-2.2
			C118.5,117,117.5,118.1,117.6,119.4z"/>
		<path class="st15" d="M118,118.9c0,0.7,0.7,1.3,1.4,1.2c0.8,0,1.3-0.7,1.3-1.4c0-0.7-0.7-1.3-1.4-1.2
			C118.5,117.6,118,118.2,118,118.9z"/>
		<path class="st0" d="M121.5,114.3c-4.6,0.3-8.2,3.7-8,7.5c0.2,3.9,4.2,4.7,8.8,4.4c4.6-0.3,8.2-1.6,8-5.5
			C130.1,116.9,126.2,114,121.5,114.3z M121.5,125.9L121.5,125.9L121.5,125.9c-2.5,0.2-4.9-0.1-6.3-1.1c-0.9-0.6-1.4-1.5-1.5-2.8
			c0-0.4,0-0.8,0.1-1.2c0.1-0.8,0.5-1.6,1-2.3c1.2-1.7,3.4-2.9,5.9-3.1c0.9-0.1,1.7,0,2.5,0.2c0.3,0.1,0.5,0.1,0.8,0.2
			c1.2,0.4,2.2,1,3,1.9c0.3,0.3,0.5,0.6,0.7,1c0.4,0.7,0.7,1.5,0.7,2.4C128.7,124.5,125.6,125.7,121.5,125.9z"/>
	</g>
</g>
</svg>
