<svg viewBox="0 0 512 600" xmlns="http://www.w3.org/2000/svg"><path d="M183 429.5h-35.2c-31.8 0-57.6-25.8-57.6-57.6V169.1h150.4v202.8c0 31.8-25.8 57.6-57.6 57.6z" fill="#9b7e73"/><path d="M361.6 401.4c0-60.5-49.1-109.6-109.6-109.6s-109.6 49.1-109.6 109.6v109.1c0 4.4 3.6 8 8 8h206.7c5.1 0 12-28.5 11.5-33.6-3.1-38.7-7-76.3-7-83.5z" fill="#e77587"/><path d="M252 291.8c-31.4 0-59.7 13.2-79.7 34.4 23.5 13.3 50.7 20.9 79.7 20.9s56.2-7.6 79.7-20.9c-20-21.2-48.3-34.4-79.7-34.4z" opacity=".1"/><circle cx="89.8" cy="168.8" fill="#ffd4b8" r="28.6"/><circle cx="83" cy="197.4" fill="#df85c6" r="19"/><circle cx="414.2" cy="168.8" fill="#ffd4b8" r="28.6"/><circle cx="421" cy="197.4" fill="#df85c6" r="19"/><circle cx="252" cy="168.6" fill="#ffd4b8" r="162.2"/><path d="M252 228.9c-8.5 0-16.8-3.6-22.6-9.8-2.8-3-2.7-7.8.3-10.6s7.8-2.7 10.6.3c3.1 3.3 7.2 5.1 11.7 5.1s8.6-1.8 11.7-5.1c2.8-3 7.6-3.2 10.6-.3 3 2.8 3.2 7.6.3 10.6-5.8 6.2-14.1 9.8-22.6 9.8zm-67.6-45c-4.1 0-7.5-3.4-7.5-7.5 0-3.9-3.2-7.1-7.1-7.1s-7.1 3.2-7.1 7.1c0 4.1-3.4 7.5-7.5 7.5s-7.5-3.4-7.5-7.5c0-12.2 9.9-22.1 22.1-22.1s22.1 9.9 22.1 22.1c0 4.2-3.3 7.5-7.5 7.5zm164.5 0c-4.1 0-7.5-3.4-7.5-7.5 0-3.9-3.2-7.1-7.1-7.1s-7.1 3.2-7.1 7.1c0 4.1-3.4 7.5-7.5 7.5s-7.5-3.4-7.5-7.5c0-12.2 9.9-22.1 22.1-22.1s22.1 9.9 22.1 22.1c0 4.2-3.4 7.5-7.5 7.5z" fill="#4a5058"/><path d="M276 310.3c-89.6 0-162.2-72.6-162.2-162.2 0-43.8 17.4-83.5 45.5-112.7-42.1 29.3-69.6 78-69.6 133.1 0 89.6 72.6 162.2 162.2 162.2 45.8 0 87.1-19 116.6-49.5-26.1 18.3-58 29.1-92.5 29.1z" fill="#513130" opacity=".1"/><path d="M252 6.4c156.7 0 173.3 128 162.2 162.2-20.1-7.9-196.6-65.3-206.3-100.9-26.2 40.2-89.4 101.1-118 100.9C81.1 78.6 145.1 6.4 252 6.4z" fill="#9b7e73"/><path d="M89.8 168.6c6.6 0 15.1-3.2 24.5-8.6-6-67.7 29.3-125.1 93.1-148.9C127.8 28.2 82.4 92 89.8 168.6z" fill="#743631" opacity=".1"/><circle cx="209.6" cy="343.9" fill="#f5d7b7" r="25.6"/><circle cx="209.6" cy="343.9" opacity=".1" r="25.6"/><circle cx="337.6" cy="299.1" fill="#f5d7b7" r="25.6"/><circle cx="337.6" cy="299.1" opacity=".1" r="25.6"/><circle cx="333.5" cy="492.8" fill="#38648c" r="49.3"/><path d="M380 476.5c-9-25.7-37.1-39.2-62.8-30.2S278 483.4 287 509.1c3.6 10.2 10.1 18.4 18.3 24.1 4.3-2.4 9.2-6.2 15.2-11.8 5-4.7 10.7-10.6 16.9-17.5 9.1 1.5 17.3 2.6 24.1 3.2 8.1.6 14.4.6 19.2-.2 2.9-9.7 2.9-20.2-.7-30.4z" opacity=".1"/><ellipse cx="274.4" cy="323.8" fill="#f5d7b7" rx="73.9" ry="75.5" transform="rotate(-19.276 274.43 323.845)"/><ellipse cx="237.3" cy="341.1" fill="#f28b74" rx="15" ry="12" transform="rotate(-19.276 237.326 341.17)"/><ellipse cx="314.2" cy="314.2" fill="#f28b74" rx="15" ry="12" transform="rotate(-19.276 314.25 314.264)"/><path d="M251.3 325.2c-.4.8-1.1 1.5-2.1 1.9-1.9.7-4-.3-4.7-2.3-.3-.9-.9-1.6-1.8-2-.8-.4-1.8-.5-2.7-.1-.9.3-1.6.9-2 1.8-.4.8-.5 1.8-.1 2.7.7 1.9-.3 4-2.3 4.7-1.9.7-4-.3-4.7-2.3-1-2.7-.8-5.7.5-8.3s3.5-4.6 6.2-5.5c2.7-1 5.7-.8 8.3.5s4.6 3.5 5.5 6.2c.4.8.3 1.8-.1 2.7zm60.4-21.1c-.4.8-1.1 1.5-2.1 1.9-1.9.7-4-.3-4.7-2.3-.3-.9-.9-1.6-1.8-2-.8-.4-1.8-.5-2.7-.1-1.8.6-2.8 2.6-2.1 4.4.7 1.9-.3 4-2.3 4.7-1.9.7-4-.3-4.7-2.3-2-5.6 1-11.8 6.6-13.8 2.7-1 5.7-.8 8.3.5s4.6 3.5 5.5 6.2c.5.9.4 1.9 0 2.8zM284.4 323c-1.6 3.3-4.4 5.8-7.8 7-3.7 1.3-7.9.9-11.3-1-1.8-1-2.4-3.3-1.4-5 1-1.8 3.3-2.4 5-1.4 1.6.9 3.5 1.1 5.3.5 1.7-.6 3.1-1.9 3.8-3.7.8-1.9 2.9-2.8 4.8-2.1 1.9.8 2.8 2.9 2.1 4.8-.2.3-.4.6-.5.9z" fill="#495059"/><path d="M201.3 310.8c-1.9 12.1-1 24.9 3.4 37.3 13.8 39.4 56.2 60.4 94.7 46.9 22.3-7.8 38.5-25.5 45.4-46.6-34.6 35.7-111.7 14.5-143.5-37.6z" opacity=".05"/><path d="M255.6 439.1c13.4-26.9 49.3-85.1 84.7-111.5 5.5-4.1 13.2-3.5 18 1.5 12.1 12.6 26.8 37.7 33.5 57.4 3.4 9.9 2.4 20.9-2.7 30.1-20.1 36.2-78.6 109.3-93.7 109.4-15.4.1-38.2-34.5-43.1-65-1.3-7.5-.1-15.1 3.3-21.9z" fill="#76b7eb"/><path d="M255.6 439.1c13.4-26.9 49.3-85.1 84.7-111.5 5.5-4.1 13.2-3.5 18 1.5 12.1 12.6 26.8 37.7 33.5 57.4 3.4 9.9 2.4 20.9-2.7 30.1-20.1 36.2-78.6 109.3-93.7 109.4-15.4.1-38.2-34.5-43.1-65-1.3-7.5-.1-15.1 3.3-21.9z" opacity=".1"/><path d="M252.2 461c1.2 7.8 3.7 15.9 6.9 23.6 18.1 5.9 40.6 11.8 62.1 16.2 1.5.3 2.9.6 4.4.9 22.6-24.4 50.4-61.7 63.2-84.7-.8-1.6-1.7-3.2-2.5-4.8-4.8-8.4-12-15.1-20.9-19.3-11.9-5.5-36.9-15.7-65.3-23.7-19.7 25.4-36.3 53.4-44.4 69.8-3.5 6.9-4.7 14.5-3.5 22z" opacity=".1"/><path d="M361 402.2c-27.3-12.7-91.6-35.8-135.7-34.4-6.9.2-12.5 5.5-13.1 12.4-1.6 17.4 2.5 46.2 9.6 65.7 3.6 9.9 11.2 17.8 20.9 21.8 38.3 15.8 129.6 36.5 141.5 27.1 12.1-9.5 8.4-50.8-6.8-77.7-3.8-6.4-9.6-11.7-16.4-14.9z" fill="#76b7eb"/><path d="M297.4 467.3c-.7 1.5-2.5 2.4-4.2 2-1.5-.4-10.8-3.2-12.5-4-1.8-.9-2.6-3.1-1.7-4.9s3.1-2.6 4.9-1.7c1.1.5 9.3 3.1 11.1 3.6 2 .5 3.2 2.5 2.6 4.5 0 .1-.1.3-.2.5zm-42.8-65c-.2.3-.4.7-.7 1-1.4 1.5-3.8 1.5-5.2.1-.6-.6-1.7-1.9-4-4.9-.6-.8-1.2-1.6-1.5-1.9-1.3-1.6-1.1-3.9.5-5.2s3.9-1.1 5.2.5c.3.4.9 1.1 1.6 2 1 1.3 2.9 3.7 3.4 4.1 1.1 1.2 1.3 2.9.7 4.3zm72 15.6c-.3.6-.7 1.1-1.2 1.4-1.7 1.2-6.5 4.4-7.9 5.6-1.6 1.3-3.9 1.1-5.2-.5s-1.1-3.9.5-5.2c1.9-1.6 7.8-5.6 8.4-6 1.7-1.1 4-.7 5.1 1 .8 1.2.8 2.6.3 3.7zm44.6 49.5c-.9 1.8-3.1 2.6-4.9 1.7s-8.9-3.7-12.4-5.1c-1.1-.4-1.9-.8-2.3-.9-1.9-.8-2.8-2.9-2-4.8s2.9-2.8 4.8-2c.4.1 1.2.5 2.2.9 5.2 2.1 10.9 4.4 12.8 5.3s2.7 3.1 1.8 4.9zM345 374.2c-.7 1.4-2.1 2.2-3.7 2.1-2-.2-3.5-2-3.3-4.1.2-1.5-.2-5.3-.4-7.9-.3-3.7-.4-4.9-.2-6 .5-2 2.5-3.2 4.5-2.6 1.8.5 3 2.3 2.7 4.1 0 .6.2 2.5.3 3.9.3 3.3.6 7.1.4 9.3 0 .4-.1.8-.3 1.2z" opacity=".1"/><path d="M289 494c-30.2 0-54.8-7.7-73.6-23.2-23.5-19.4-36.4-51-35.3-86.9.3-10.9 9.4-19.4 20.3-19 10.9.3 19.4 9.4 19 20.3-1.1 33.4 14.3 49.8 20.9 55.2 18.6 15.3 50.6 18.3 92.6 8.6 10.6-2.4 21.1 4.2 23.6 14.8 2.4 10.6-4.2 21.1-14.8 23.6-19 4.4-36.6 6.6-52.7 6.6z" fill="#ffd4b8"/></svg>