<svg viewBox="0 0 58 58" xmlns="http://www.w3.org/2000/svg"><path d="M46.5 4v4h-7V4h-24v4h-7V4h-8v11h54V4z" fill="#f05565"/><path d="M8.5 15h-8v43h54V15h-39z" fill="#efebde"/><path d="M37.5 22h-29v29h38V22zm-9 2h7v7h-7zm7 16h-7v-7h7zm-16-7h7v7h-7zm0-9h7v7h-7zm-9 0h7v7h-7zm0 9h7v7h-7zm7 16h-7v-7h7zm9 0h-7v-7h7zm9 0h-7v-7h7zm9 0h-7v-7h7zm0-9h-7v-7h7zm-7-9v-7h7v7z" fill="#d5d0bb"/><path d="M8.5 0h7v8h-7zM39.5 0h7v8h-7z" fill="#36495e"/><path d="M19.5 33h7v7h-7z" fill="#7f6e5d"/><circle cx="45.5" cy="45" fill="#ed7161" r="12"/><path d="M46.914 45l3.536-3.536a.999.999 0 1 0-1.414-1.414L45.5 43.586l-3.536-3.536a.999.999 0 1 0-1.414 1.414L44.086 45l-3.536 3.536a.999.999 0 1 0 1.414 1.414l3.536-3.536 3.536 3.536a.997.997 0 0 0 1.414 0 .999.999 0 0 0 0-1.414z" fill="#fff"/></svg>