<svg viewBox="0 0 512 512" xmlns="http://www.w3.org/2000/svg"><path d="M171.277 139.106h16.95v59.324h-16.95z" fill="#b7e5ff"/><path d="M459.397 410.302h-34.942L383.123 96.181V3.509h-16.95v93.223l41.188 313.57h-32.713v16.95h33.899v33.899c0 28.086 22.763 50.849 50.849 50.849s50.849-22.763 50.849-50.849-22.763-50.849-50.848-50.849zm0 84.748c-18.721 0-33.899-15.178-33.899-33.899s15.178-33.899 33.899-33.899 33.899 15.178 33.899 33.899-15.179 33.899-33.899 33.899zM349.223 96.181l-41.332 314.121H272.95c-28.086 0-50.849 22.763-50.849 50.849S244.864 512 272.95 512s50.849-22.763 50.849-50.849v-33.899h33.899v-16.95h-32.713l41.112-312.459.076-94.334h-16.95zM272.95 495.05c-18.721 0-33.899-15.178-33.899-33.899s15.178-33.899 33.899-33.899 33.899 15.178 33.899 33.899-15.178 33.899-33.899 33.899z" fill="#2195f2"/><path d="M162.802 198.43h33.899v305.095h-33.899zM173.735 14.467a123.39 123.39 0 0 0-36.383 87.833v53.756h50.849V0zM281.425 20.458V79.18c0 11.619 1.873 23.17 5.551 34.196a108.165 108.165 0 0 1 0 68.401 108.097 108.097 0 0 0-5.551 34.205v168.895h-33.899V215.982c0-11.619-1.873-23.17-5.551-34.196a108.165 108.165 0 0 1 0-68.401 108.097 108.097 0 0 0 5.551-34.205V45.883zM484.821 384.877h-33.899V113.682l-33.9-76.274 25.425-16.95 42.374 93.224z" fill="#b7e5ff"/><g fill="#3f51b4"><path d="M450.947 240.805h33.899v16.95h-33.899zM450.947 274.704h33.899v16.95h-33.899zM450.947 308.603h33.899v16.95h-33.899zM256.025 122.157h16.95v16.95h-16.95zM256.025 156.056h16.95v16.95h-16.95z"/></g><path d="M61.078 3.509h16.95v152.547h-16.95z" fill="#e01717"/><path d="M137.352 512h-16.95v-8.475a8.478 8.478 0 0 0-8.475-8.475H27.179c-14.043 0-25.425-11.382-25.425-25.425S13.136 444.2 27.179 444.2h84.749c4.678 0 8.475-3.797 8.475-8.475s-3.797-8.475-8.475-8.475H27.179c-14.043 0-25.425-11.382-25.425-25.425S13.136 376.4 27.179 376.4h84.749c4.678 0 8.475-3.797 8.475-8.475s-3.797-8.475-8.475-8.475H27.179c-14.043 0-25.425-11.382-25.425-25.425S13.136 308.6 27.179 308.6h84.749c4.678 0 8.475-3.797 8.475-8.475s-3.797-8.475-8.475-8.475H27.179c-14.043 0-25.425-11.382-25.425-25.425S13.136 240.8 27.179 240.8h84.749c4.678 0 8.475-3.797 8.475-8.475s-3.797-8.475-8.475-8.475H86.503c-14.043 0-25.425-11.382-25.425-25.425V173h16.95v25.425a8.478 8.478 0 0 0 8.475 8.475h25.425c14.043 0 25.425 11.382 25.425 25.425s-11.382 25.425-25.425 25.425H27.179c-4.678 0-8.475 3.797-8.475 8.475s3.797 8.475 8.475 8.475h84.749c14.043 0 25.425 11.382 25.425 25.425s-11.382 25.425-25.425 25.425H27.179c-4.678 0-8.475 3.797-8.475 8.475s3.797 8.475 8.475 8.475h84.749c14.043 0 25.425 11.382 25.425 25.425s-11.382 25.425-25.425 25.425H27.179c-4.678 0-8.475 3.797-8.475 8.475s3.797 8.475 8.475 8.475h84.749c14.043 0 25.425 11.382 25.425 25.425s-11.382 25.425-25.425 25.425H27.179c-4.678 0-8.475 3.797-8.475 8.475s3.797 8.475 8.475 8.475h84.749c14.043 0 25.425 11.382 25.425 25.425V512z" fill="#fec007"/></svg>