<?xml version="1.0" encoding="utf-8"?>
<!-- Generator: Adobe Illustrator 23.0.3, SVG Export Plug-In . SVG Version: 6.00 Build 0)  -->
<svg version="1.1" id="Layer_1" xmlns="http://www.w3.org/2000/svg" xmlns:xlink="http://www.w3.org/1999/xlink" x="0px" y="0px"
	 viewBox="0 0 305.4 742.3" style="enable-background:new 0 0 305.4 742.3;" xml:space="preserve">
<style type="text/css">
	.st0{fill:#014677;}
	.st1{fill:#B5D7EC;}
	.st2{fill:url(#SVGID_1_);}
	.st3{fill:#42AEDA;}
	.st4{fill:#00A0DF;}
	.st5{fill:url(#SVGID_2_);}
	.st6{opacity:0.1;}
	.st7{fill:#0F395B;}
	.st8{opacity:0.2;}
	.st9{fill:#063B5A;}
	.st10{fill:url(#SVGID_3_);}
	.st11{fill:none;}
	.st12{fill:#EBCBB2;}
	.st13{fill-rule:evenodd;clip-rule:evenodd;fill:#84DADE;}
	.st14{fill:#1DCAD3;}
	.st15{opacity:0.4;fill:#1DCAD3;}
	.st16{fill:#0592D0;}
	.st17{fill:#84DADE;}
	.st18{opacity:0.2;fill-rule:evenodd;clip-rule:evenodd;fill:#7ADBD4;}
	.st19{opacity:0.4;fill-rule:evenodd;clip-rule:evenodd;fill:#1DCAD3;}
	.st20{fill-rule:evenodd;clip-rule:evenodd;fill:#0592D0;}
	.st21{fill-rule:evenodd;clip-rule:evenodd;fill:#FFFFFF;}
	.st22{fill-rule:evenodd;clip-rule:evenodd;fill:#8D5B25;}
	.st23{fill-rule:evenodd;clip-rule:evenodd;fill:#DA8E26;}
	.st24{fill:url(#SVGID_4_);}
	.st25{fill:url(#SVGID_5_);}
	.st26{fill:url(#SVGID_6_);}
	.st27{fill:url(#SVGID_7_);}
	.st28{fill:url(#SVGID_8_);}
	.st29{fill:none;stroke:#AE6B5A;stroke-width:0.5224;stroke-linecap:round;stroke-linejoin:round;stroke-miterlimit:10;}
	.st30{fill:#6F3F31;}
	.st31{fill:url(#SVGID_9_);}
	.st32{opacity:0.5;fill:url(#SVGID_10_);}
	.st33{opacity:0.5;fill:url(#SVGID_11_);}
	.st34{opacity:0.3;fill:#6F3F31;}
	.st35{opacity:0.5;fill:#FFFFFF;}
	.st36{fill:#DFBDA5;}
	.st37{fill:#FFFFFF;}
	.st38{opacity:0.2;fill:#FFFFFF;}
	.st39{fill:url(#SVGID_12_);}
	.st40{fill:url(#SVGID_13_);}
	.st41{fill:#AE6B5A;}
	.st42{fill:url(#SVGID_14_);}
	.st43{opacity:0.3;}
	.st44{fill:url(#SVGID_15_);}
</style>
<g>
	<path class="st0" d="M273.1,717.7c0,10.3-38.6,18.6-86.3,18.6c-47.6,0-86.3-8.3-86.3-18.6c0-10.3,38.6-18.6,86.3-18.6
		C234.5,699.2,273.1,707.5,273.1,717.7z"/>
	<path class="st1" d="M228.8,723.9c-3.3-0.5-8-2.2-16.1-7.5c-9.4-6.3-9.2-10.2-3.5-11.9c5.8-1.7,10.7-1.5,14.7,0.5
		c4,2,17.4,7.6,18.5,11.5C243.7,721.6,232.1,724.4,228.8,723.9z"/>
	<path class="st1" d="M165.6,726.8c-3.3-0.5-8-2.2-16.1-7.5c-9.4-6.3-9.2-10.2-3.5-11.9c5.8-1.7,10.7-1.5,14.7,0.5
		c4,2,17.4,7.6,18.5,11.5C180.4,724.4,168.9,727.3,165.6,726.8z"/>
	
		<radialGradient id="SVGID_1_" cx="-9163.2119" cy="907.093" r="101.7494" gradientTransform="matrix(-0.9924 2.180000e-02 2.360000e-02 1.0909 -8926.3418 -212.7314)" gradientUnits="userSpaceOnUse">
		<stop  offset="0.2949" style="stop-color:#F5D8BD"/>
		<stop  offset="1" style="stop-color:#F5D8BD"/>
	</radialGradient>
	<path class="st2" d="M229.9,427.8c2.1,24.8,3.5,120.5,1.6,144.7c-1.2,14.7,0.7,33.9-3,71.6c-2,20.8-2.8,41-3.8,53
		c-0.5,5.5,3.7,9.2,9.4,13.5c13.2,10.1-6.1,14.8-15.4,6.3c-7.2-6.7-12.3-4.1-11.3-14.2c2.6-27.6,1.7-114.9,0.9-128.7
		c-2.5-43.9-8.9-97.6-8.9-97.6c-1.8-10.5-9.7-8.9-12-3.1c-2.3,5.8-3.5,77.4-5,93c-1.2,12.4-15.9,102.7-18.9,138.4
		c-0.5,5.5,8.6,10.7,12.5,13.2c4.1,2.6-6.8,13.4-17.6,4.8c-7.2-5.8-15.4-7.9-13.7-15.9c1.9-8.9-0.3-32.5,5.6-79.5
		c3-24.1,7.6-47.4,7.2-67.5c-0.2-7.8-4.3-55.4-4.3-109.2"/>
	<g>
		<path class="st3" d="M156.4,722.8c-0.2-0.9-1.2-4.9,2.7-7.1c4.7-2.7,8.7-4,11.8-3.8c3.1,0.2,11.9,7.5,7.2,10.4
			c-5.8,3.6-10.3,4.8-15.2,3.7C158,724.8,156.4,722.8,156.4,722.8z"/>
		<path class="st4" d="M142.5,709.6c0,0-2.2,1.8-0.8,4.5c1.3,2.7,6.9,6.5,10.5,8.5c3.7,2,10.2,6.7,15.4,5.7c5.2-1,10.9-3.2,11.7-5.2
			c0.8-2-0.2-3.7-0.2-3.7s-0.7,3-3,4c-2.3,1-6.5,3.1-10.7,2.7c-5.7-0.5-15.2-6.2-19.2-9.5C142.7,713.7,142,711.6,142.5,709.6z"/>
		<path class="st1" d="M177.4,717.7c0,0.6-0.5,1.1-1.1,1.1c-0.6,0-1.1-0.5-1.1-1.1c0-0.6,0.5-1.1,1.1-1.1
			C177,716.6,177.4,717.1,177.4,717.7z"/>
		<path class="st1" d="M175.1,722.6c0,0.6-0.5,1.1-1.1,1.1s-1.1-0.5-1.1-1.1c0-0.6,0.5-1.1,1.1-1.1S175.1,722,175.1,722.6z"/>
		<path class="st1" d="M168.1,724.4c0,0.6-0.5,1.1-1.1,1.1c-0.6,0-1.1-0.5-1.1-1.1c0-0.6,0.5-1.1,1.1-1.1
			C167.6,723.3,168.1,723.8,168.1,724.4z"/>
		<circle class="st1" cx="160.8" cy="722.9" r="1.1"/>
		<path class="st1" d="M160.6,718.4c0,0.6-0.5,1.1-1.1,1.1c-0.6,0-1.1-0.5-1.1-1.1c0-0.6,0.5-1.1,1.1-1.1
			C160.1,717.3,160.6,717.8,160.6,718.4z"/>
		<path class="st1" d="M165.4,719.7c0,0.6-0.5,1.1-1.1,1.1c-0.6,0-1.1-0.5-1.1-1.1c0-0.6,0.5-1.1,1.1-1.1
			C165,718.6,165.4,719.1,165.4,719.7z"/>
		<path class="st1" d="M166.4,715.4c0,0.6-0.5,1.1-1.1,1.1c-0.6,0-1.1-0.5-1.1-1.1c0-0.6,0.5-1.1,1.1-1.1
			C165.9,714.3,166.4,714.8,166.4,715.4z"/>
		<circle class="st1" cx="170.6" cy="719.1" r="1.1"/>
	</g>
	<g>
		<path class="st3" d="M219.6,719.9c-0.2-0.9-1.2-4.9,2.7-7.1c4.7-2.7,8.7-4,11.8-3.8c3.1,0.2,11.9,7.5,7.2,10.4
			c-5.8,3.6-10.3,4.8-15.2,3.7C221.2,722,219.6,719.9,219.6,719.9z"/>
		<path class="st4" d="M205.7,706.7c0,0-2.2,1.8-0.8,4.5c1.3,2.7,6.9,6.5,10.5,8.5c3.7,2,10.2,6.7,15.4,5.7c5.2-1,10.9-3.2,11.7-5.2
			c0.8-2-0.2-3.7-0.2-3.7s-0.7,3-3,4c-2.3,1-6.5,3.1-10.7,2.7c-5.7-0.5-15.2-6.2-19.2-9.5C205.9,710.8,205.2,708.7,205.7,706.7z"/>
		<path class="st1" d="M240.7,714.8c0,0.6-0.5,1.1-1.1,1.1c-0.6,0-1.1-0.5-1.1-1.1c0-0.6,0.5-1.1,1.1-1.1
			C240.2,713.8,240.7,714.2,240.7,714.8z"/>
		<circle class="st1" cx="237.3" cy="719.7" r="1.1"/>
		<path class="st1" d="M231.3,721.5c0,0.6-0.5,1.1-1.1,1.1c-0.6,0-1.1-0.5-1.1-1.1c0-0.6,0.5-1.1,1.1-1.1
			C230.8,720.4,231.3,720.9,231.3,721.5z"/>
		<path class="st1" d="M225.1,720.1c0,0.6-0.5,1.1-1.1,1.1c-0.6,0-1.1-0.5-1.1-1.1s0.5-1.1,1.1-1.1
			C224.6,719,225.1,719.5,225.1,720.1z"/>
		<path class="st1" d="M223.8,715.5c0,0.6-0.5,1.1-1.1,1.1c-0.6,0-1.1-0.5-1.1-1.1c0-0.6,0.5-1.1,1.1-1.1
			C223.4,714.4,223.8,714.9,223.8,715.5z"/>
		<path class="st1" d="M228.7,716.8c0,0.6-0.5,1.1-1.1,1.1c-0.6,0-1.1-0.5-1.1-1.1c0-0.6,0.5-1.1,1.1-1.1
			C228.2,715.8,228.7,716.2,228.7,716.8z"/>
		<circle class="st1" cx="228.6" cy="712.5" r="1.1"/>
		<circle class="st1" cx="233.8" cy="716.3" r="1.1"/>
	</g>
	
		<radialGradient id="SVGID_2_" cx="7503.2485" cy="730.8229" r="65.6377" gradientTransform="matrix(0.9927 -0.1207 0.1267 1.0419 -7295.9419 526.2957)" gradientUnits="userSpaceOnUse">
		<stop  offset="0.2949" style="stop-color:#F5D8BD"/>
		<stop  offset="1" style="stop-color:#F5D8BD"/>
	</radialGradient>
	<path class="st5" d="M227.8,286.9c1-0.6,2.4-0.4,3.5,0c7.1,2.6,10.7,11.1,12.4,18.8c5.9,27.5,7.3,45.8,13.3,88
		c2.3,16,6.8,58.2,8.3,74.3c0.2,2.6,0.4,5.4-1.1,7.5c-2.9,4-9,1.5-13.7,2.6c-5.1-10.6-6.6-22.6-8.1-34.3
		c-4.3-34.4-8.6-68.8-12.8-103.3c-2-16.2-4-32.4-3.6-48.7C226,289.9,226.3,287.8,227.8,286.9z"/>
	<g class="st6">
		<path class="st7" d="M222,395.4C222,395.3,222,395.3,222,395.4c-0.2,0-0.5,0-0.8,0H222z"/>
	</g>
	<g class="st8">
		<path class="st9" d="M196.1,470.8l-0.2-0.3c-0.1,0.2-0.1,0.4,0,0.5C196,470.9,196.1,470.8,196.1,470.8z"/>
	</g>
	
		<radialGradient id="SVGID_3_" cx="7435.9087" cy="188.7152" r="28.4921" gradientTransform="matrix(0.9998 1.830000e-02 -1.860000e-02 1.0168 -7237.1392 -27.2275)" gradientUnits="userSpaceOnUse">
		<stop  offset="0.2949" style="stop-color:#F5D8BD"/>
		<stop  offset="1" style="stop-color:#F5D8BD"/>
	</radialGradient>
	<path class="st10" d="M213.1,264.8c-3.8,9.8-2.5,19.7-1.4,22.3c0.3,3.4-14.4,48.4-18.7,49.9c-6.2,2.1-16.5-30.6-17.4-53.7
		c-0.3-3.3,0.7-10.2,0-13"/>
	<path class="st11" d="M187.4,393.2c-10.7,0.6-20.8-1-31-4c-3.6-1.1-7.3-3.3-8.2-7.2c-0.8-3.9-0.1-8.4,0.9-12.3
		c0.7-2.8,0.5-3.1,3.1-2c6,2.7,12.1,5.3,18.4,7.2c9.5,2.9,19,6.3,29,6.8c3.8,0.2,20.4-5.2,15.2,4c-2.2,3.9-7.6,4-11.5,5
		C198.1,392.1,192.8,392.9,187.4,393.2z"/>
	<path class="st12" d="M210.7,282.7c-0.3-3-0.3-7,0.5-11.3c-2-2.4-5.1-4-8.3-5.2l-27.3,4c0.4,1.5,0.4,4.2,0.5,6.9
		c2.6,2,13.8,5.6,18.8,6.3C198.5,284,206.9,284,210.7,282.7z"/>
	<path class="st13" d="M151.6,400.7c0,0-12.5,29-10,77.6c1.1,22.4,4.6,62.4,4.8,97.8c0.3,62.2-3.4,120.8-3.4,120.8s5.8,9.2,23.3,6.7
		c0,0,19-107.3,20.3-129.2c1.7-26.8,5.4-102.8,9.6-103.7c4.2-0.8,4.2,81.3,4.2,97.2c0,15.9,6.7,122.3,6.7,122.3s9.1,7.5,21.6,6.7
		c6.7-105.1,6.5-105.1,6.5-153.2c0-31.2-1.1-124.5-1.3-142.5c-10,1.1-15,1.3-36.3,1.7C175.4,403.3,151.6,400.7,151.6,400.7z"/>
	<g>
		<path class="st14" d="M165.5,281.7"/>
		<path class="st14" d="M231.9,357.7c0.3-11.8,0.9-15.6,1.3-24.5c0.3-6.2-0.1-13.6,0.2-22.5c0.6-15.3,1.5-17.6,2.5-18.6
			c2.5-2.5-25.1-9.1-25.1-9.1l-19.5,31.9c0,0,7.7,21.4,11.8,28.8c12,22.1,25.9,49.8,29.9,58.6L231.9,357.7z"/>
	</g>
	<path class="st15" d="M207.6,510.1c0-7.7,0-15.3-0.4-23c-0.3-5,0.8-12.4-1.6-17c-3.1-5.9-13.6,0.4-8.7,1.2
		c3.5,7.3,3.5,81.5,3.5,96.6c0,14.9,5.8,108.7,6.6,121c2.1-5.9,1.1-14,1.6-17.9c3.6-25.8,0-53.4-1.1-79.3
		C206.3,564.6,207.6,537.3,207.6,510.1z"/>
	<path class="st16" d="M175.6,279.1"/>
	<path class="st14" d="M165.5,281.7"/>
	<path class="st17" d="M231.9,357.7c-0.1,2.7,1.9-30.8,2.6-47.4c0.6-15.3,0.4-17.2,1.5-18.2c2.5-2.5-25.1-9.1-25.1-9.1l-19.5,31.9
		c0,0,7.7,21.4,11.8,28.8c12,22.1,25.9,49.8,29.9,58.6L231.9,357.7z"/>
	<path class="st18" d="M191.3,314.9c0,0,7.7,21.4,11.8,28.8c12,22.1,25.9,49.8,29.9,58.6l-0.4-9.8L192,313.9L191.3,314.9z"/>
	<path class="st13" d="M232.5,400.1c0-0.3,0-0.6,0.1-0.8c-2.1-4.8-13.1-28.9-26.7-55.5c-8-15.6-16.9-34.9-23-48.4
		c-3.1-6.8-3.1-6.7-7.3-16.3l-28.7,9.6c0,0,3.1,5.8,2.9,9.6c-0.8,16.2-3.4,23.6-3.4,23.6s-1.6,7.6,1.1,23.5
		c4.2,24.6,0.9,36.5,4.6,55.4L232.5,400.1z"/>
	<path class="st19" d="M159.3,394.6c1-7.8-0.5-16.4-1.1-24.2c-1.9-23,0.3-35.3,0.3-52.9c0-6.6,0.1-29.8-10.9-28.7l-0.2,0.8
		c0.8,1.7,2.7,5.9,2.5,8.9c-0.8,16.2-3.4,23.6-3.4,23.6s-1.6,7.6,1.1,23.5c4.2,24.6,0.9,36.5,4.6,55.4l4.3,0
		C158.2,399.3,158.9,397.3,159.3,394.6z"/>
	<g>
		<path class="st20" d="M214.1,283c-2.7-0.3-4.1,3.6-1.6,4.1c2.5,0.5,19.6,5.4,22,6.1c2.3,0.7,4.2-2.6,2.3-3.6
			C234.8,288.7,216.8,283.3,214.1,283z"/>
		<path class="st21" d="M214.4,285.3c0,0.5,0.4,0.8,0.9,0.8c0.5,0,0.8-0.4,0.8-0.9c0-0.5-0.4-0.8-0.9-0.8
			C214.7,284.5,214.4,284.9,214.4,285.3z"/>
		<path class="st21" d="M219.3,286.7c0,0.5,0.4,0.8,0.9,0.8c0.5,0,0.8-0.4,0.8-0.9s-0.4-0.8-0.9-0.8
			C219.6,285.9,219.3,286.3,219.3,286.7z"/>
		<path class="st21" d="M224.4,288.1c0,0.5,0.4,0.8,0.9,0.8c0.5,0,0.8-0.4,0.8-0.9c0-0.5-0.4-0.8-0.9-0.8
			C224.8,287.3,224.4,287.7,224.4,288.1z"/>
		<path class="st21" d="M229.5,289.5c0,0.5,0.4,0.8,0.9,0.8c0.5,0,0.8-0.4,0.8-0.9c0-0.5-0.4-0.8-0.9-0.8
			C229.9,288.7,229.5,289.1,229.5,289.5z"/>
		<path class="st21" d="M234.2,290.5c0,0.5,0.4,0.8,0.9,0.8c0.5,0,0.8-0.4,0.8-0.9c0-0.5-0.4-0.8-0.9-0.8
			C234.5,289.7,234.2,290.1,234.2,290.5z"/>
	</g>
	<g>
		<path class="st22" d="M151.6,397.9c0.8,0.2,19.6,2.8,48,1.7c28.4-1.1,33.5-2.3,34-2.5c0.5-0.2,1.4,4.4,0,5
			c-1.4,0.6-6.6,1.7-35.1,2.5c-33.6,1-46.8-1.7-47.5-2C150.3,402.4,150.9,397.7,151.6,397.9z"/>
		<path class="st23" d="M215.8,398.7L215.8,398.7c-4.3,0.3-9.6,0.6-16.2,0.8c-28.4,1.1-47.2-1.5-48-1.7c-0.8-0.2-1.3,4.5-0.6,4.7
			c0.8,0.2,13.9,2.9,47.5,2c6.7-0.2,12.2-0.4,16.6-0.6v0c2.9,0.2,7.1,1.7,9.6,3.6c2.5,1.9,5.2,4.2,6.3,0.4
			C232.2,404.2,220.9,398.5,215.8,398.7z"/>
	</g>
	
		<radialGradient id="SVGID_4_" cx="7430.4302" cy="370.2763" r="56.3313" gradientTransform="matrix(1 2.100000e-03 -2.200000e-03 1.0397 -7263.2729 -47.6459)" gradientUnits="userSpaceOnUse">
		<stop  offset="0.2949" style="stop-color:#F5D8BD"/>
		<stop  offset="1" style="stop-color:#F5D8BD"/>
	</radialGradient>
	<path class="st24" d="M142,293c-3.6,4.5-14,22.6-23,60.9c-8.5,36,3.3,37.5,13.3,41c17.1,6,40.2,14,52.4,18.7
		c12.3,4.7,24.5,6.1,30.7-2.4c2.2-3.1,2.3-15.1-14.9-16c-19.9-1.1-44.7-12.9-62-22.2c0,0,9.6-40.1,15.8-58.9
		C158.2,301.9,153.2,279.1,142,293z"/>
	<g>
		<path class="st20" d="M171,280.2c2.7-0.4,5,3.8,2.5,4.4c-2.5,0.6-18.6,5.7-20.9,6.5c-2.3,0.8-6.9-2.1-5-3.1
			C149.4,286.9,168.3,280.6,171,280.2z"/>
		<path class="st21" d="M170.8,282.5c0,0.5-0.4,0.8-0.8,0.8c-0.5,0-0.8-0.4-0.8-0.8s0.4-0.8,0.8-0.8
			C170.4,281.6,170.8,282,170.8,282.5z"/>
		<path class="st21" d="M166,284.2c0,0.5-0.4,0.8-0.8,0.8s-0.8-0.4-0.8-0.8s0.4-0.8,0.8-0.8S166,283.7,166,284.2z"/>
		<path class="st21" d="M161,285.8c0,0.5-0.4,0.8-0.8,0.8s-0.8-0.4-0.8-0.8s0.4-0.8,0.8-0.8S161,285.4,161,285.8z"/>
		<path class="st21" d="M155.9,287.5c0,0.5-0.4,0.8-0.8,0.8c-0.5,0-0.8-0.4-0.8-0.8c0-0.5,0.4-0.8,0.8-0.8
			C155.6,286.7,155.9,287,155.9,287.5z"/>
		<path class="st21" d="M151.3,288.8c0,0.5-0.4,0.8-0.8,0.8s-0.8-0.4-0.8-0.8c0-0.5,0.4-0.8,0.8-0.8S151.3,288.3,151.3,288.8z"/>
	</g>
	<g>
		
			<linearGradient id="SVGID_5_" gradientUnits="userSpaceOnUse" x1="6622.5469" y1="801.2687" x2="6877.9736" y2="1006.2975" gradientTransform="matrix(0.9929 -0.119 0.119 0.9929 -6755.7266 42.6469)">
			<stop  offset="0" style="stop-color:#D49B71"/>
			<stop  offset="0.1087" style="stop-color:#C18766"/>
			<stop  offset="0.2731" style="stop-color:#AA6F58"/>
			<stop  offset="0.4261" style="stop-color:#9C6150"/>
			<stop  offset="0.5552" style="stop-color:#975C4D"/>
			<stop  offset="0.9805" style="stop-color:#6E3F32"/>
		</linearGradient>
		<path class="st25" d="M159.3,36.8c-16.9-0.2-23.7-13.6-38.1-21.9c-14.6-8.4-27.8-10-44.3-8.3c-16.1,1.7-29,12.1-38.8,24.5
			C25.9,46.4,23.3,64.7,23.7,84c0.3,15.8,6,31.9,4,47.7c-2.4,18.4-15.6,33.8-19,52c-4.4,23.5,0.7,53,11.3,74.2
			C28,274,45.7,296,61.1,306.4c18,12.2,47.8,18.4,53.7,4.5c9.9-23.1,38-13.6,29.1-45.7"/>
		<g>
			<g>
				
					<radialGradient id="SVGID_6_" cx="-4251.0645" cy="1012.4459" r="111.9662" gradientTransform="matrix(-0.9596 0.1571 0.1565 0.9875 -4050.8257 -168.1367)" gradientUnits="userSpaceOnUse">
					<stop  offset="0.2949" style="stop-color:#F5D8BD"/>
					<stop  offset="1" style="stop-color:#F5D8BD"/>
				</radialGradient>
				<path class="st26" d="M213.4,45.9c44.5,12.4,64.1,56.4,68.4,84.6c7.8,52.4-9.3,80-10.5,96.6c-1.2,16.6-10.1,27.2-22.8,36.2
					c-24.9,17.6-39.6,22.3-55,20.1c-21.2-3.1-68.1-21.5-80.9-43.6c-11.2-19.3-15.1-27.7-20.4-48.8c-6-24-12.7-58.8,8-102.4
					C117.9,51.5,172.3,34.5,213.4,45.9z"/>
				
					<radialGradient id="SVGID_7_" cx="3623.9121" cy="3112.3113" r="35.7154" gradientTransform="matrix(1.0249 -1.0059 1.1011 1.1219 -6919.2407 325.1649)" gradientUnits="userSpaceOnUse">
					<stop  offset="0" style="stop-color:#F8E4D1"/>
					<stop  offset="0.2356" style="stop-color:#F7E0CA"/>
					<stop  offset="0.5235" style="stop-color:#F6DCC3"/>
					<stop  offset="1" style="stop-color:#F5D8BD"/>
				</radialGradient>
				<path class="st27" d="M267.2,127.1c14.8,15.1,6.6,47.3-18.5,71.9c-25,24.6-57.4,32.2-72.2,17.1c-14.8-15.1-6.6-47.3,18.5-71.9
					C220,119.6,252.4,112,267.2,127.1z"/>
			</g>
			<g>
				
					<radialGradient id="SVGID_8_" cx="-3615.2854" cy="4788.6377" r="13.553" gradientTransform="matrix(-1.2602 0.6989 0.4334 0.7815 -6399.2686 -996.8973)" gradientUnits="userSpaceOnUse">
					<stop  offset="2.353710e-02" style="stop-color:#D1A18C"/>
					<stop  offset="1" style="stop-color:#F5D8BD"/>
				</radialGradient>
				<path class="st28" d="M223,227.4c0.6,1,3.7,0.4,6.9-1.4c3.2-1.8,5.4-4.1,4.8-5.1c-0.6-1-3.7-0.4-6.9,1.4
					C224.6,224,222.4,226.3,223,227.4z"/>
				<path class="st29" d="M226.6,227.5c9.6-3,9.4-7.1,4.2-9.1c-0.7-0.3-1.3-1.7-1.3-2.2"/>
			</g>
			<path class="st30" d="M188.7,162.9c0,0-5.6-3.4-13.1-2.3c-3.3,0.5,1.9-3.5,9.7-2.2C190.9,159.4,190.4,163.3,188.7,162.9z"/>
			<path class="st30" d="M264,176.4c0,0,6.3-1.7,13.2,1.5c3.1,1.4-0.8-3.9-8.7-4.9C262.8,172.3,262.2,176.2,264,176.4z"/>
			
				<linearGradient id="SVGID_9_" gradientUnits="userSpaceOnUse" x1="6999.9893" y1="806.2557" x2="6945.8052" y2="961.1593" gradientTransform="matrix(0.9929 -0.119 0.119 0.9929 -6755.7266 42.6469)">
				<stop  offset="0" style="stop-color:#D49B71"/>
				<stop  offset="0.1087" style="stop-color:#C18766"/>
				<stop  offset="0.2731" style="stop-color:#AA6F58"/>
				<stop  offset="0.4261" style="stop-color:#9C6150"/>
				<stop  offset="0.5552" style="stop-color:#975C4D"/>
				<stop  offset="0.9805" style="stop-color:#6E3F32"/>
			</linearGradient>
			<path class="st31" d="M227.1,24.2c29.5,3.1,55,28,67.8,78.7c14.1,55.7-19.4,98.3-16.1,126c3.7,30.8,16,35.2,16,35.2
				s-19.3-6.1-21.5-42.2c-1.1-18.4,22.6-57.6-1.2-94.4c-10.5-16.2-22-20.7-22-20.7L227.1,24.2z"/>
			
				<radialGradient id="SVGID_10_" cx="6939.4302" cy="1796.6157" r="28.8763" gradientTransform="matrix(0.9122 -0.1996 0.1844 0.8425 -6496.5557 99.4891)" gradientUnits="userSpaceOnUse">
				<stop  offset="0" style="stop-color:#F2A987"/>
				<stop  offset="1" style="stop-color:#F5D8BD"/>
			</radialGradient>
			<path class="st32" d="M195,221.4c2.9,13.4-8.2,27.2-24.8,30.8c-16.6,3.6-32.5-4.3-35.4-17.7c-2.9-13.4,8.2-27.2,24.8-30.8
				C176.2,200.2,192,208.1,195,221.4z"/>
			
				<radialGradient id="SVGID_11_" cx="7029.7104" cy="1826.4426" r="22.3923" gradientTransform="matrix(0.9122 -0.1996 0.1844 0.8425 -6496.5557 99.4891)" gradientUnits="userSpaceOnUse">
				<stop  offset="0" style="stop-color:#F2A987"/>
				<stop  offset="1" style="stop-color:#F5D8BD"/>
			</radialGradient>
			<path class="st33" d="M270.6,222.5c2.9,13.4-7.6,33.6-24.2,37.2c-16.6,3.6-5-5.9-7.9-19.3c-2.9-13.4-5.5-24,11.1-27.7
				C266.1,209.1,267.6,209.1,270.6,222.5z"/>
			<g>
				<g>
					<path class="st34" d="M171.2,198.7c-0.6,4.1,2,7.8,5.7,8.4c3.7,0.5,7.3-2.3,7.8-6.4c0.6-4.1-2-7.8-5.7-8.4
						C175.3,191.8,171.8,194.7,171.2,198.7z"/>
					<path class="st30" d="M170.8,199.8c-0.6,4.1,2,7.8,5.7,8.4c3.7,0.5,7.3-2.3,7.8-6.4c0.6-4.1-2-7.8-5.7-8.4
						C174.9,192.8,171.4,195.7,170.8,199.8z"/>
					<path class="st35" d="M177.5,198.2c0,1.2,0.9,2.1,2,2.1c1.1,0,2-0.9,2.1-2.1c0-1.2-0.9-2.1-2-2.1
						C178.4,196.1,177.5,197.1,177.5,198.2z"/>
				</g>
				<path class="st36" d="M177.2,208.1c-5.1-0.5-9-2.2-8.5-7.2c0.5-4.9,5-8.5,10.1-8.1c5.1,0.5,8.9,4.9,8.4,9.8
					C186.7,207.6,182.3,208.6,177.2,208.1z"/>
				<path class="st12" d="M187.7,202.8c-0.5,5.6-5.5,6.7-11.3,6.2c-5.8-0.5-10.3-2.5-9.7-8.2c0.5-5.6,5.7-9.7,11.5-9.2
					C183.9,192.2,188.2,197.2,187.7,202.8z"/>
				<path class="st37" d="M187.4,203.2c-0.5,4.9-4.8,5.9-9.9,5.4c-5.1-0.5-9-2.2-8.5-7.2c0.5-4.9,5-8.5,10.1-8.1
					C184.1,193.9,187.9,198.3,187.4,203.2z"/>
				<path class="st12" d="M178.1,191.7c-5.8-0.5-11,3.6-11.5,9.2c-0.5,5.6,3.9,7.6,9.7,8.2c5.8,0.5,10.8-0.6,11.3-6.2
					C188.2,197.2,183.9,192.2,178.1,191.7z M177.5,208.7c-5.1-0.5-9-2.2-8.5-7.2c0.5-4.9,5-8.5,10.1-8.1c5.1,0.5,8.9,4.9,8.4,9.8
					C186.9,208.2,182.6,209.1,177.5,208.7z"/>
				<path class="st30" d="M186.4,201.8c-0.4,4.2-3.7,7.3-7.4,7c-3.7-0.3-6.4-4-6-8.2c0.4-4.2,3.7-7.3,7.4-7S186.8,197.7,186.4,201.8
					z"/>
				<path class="st38" d="M183.9,205.6c-0.7,1.8-2.6,2.7-4.1,2.1c-1.6-0.6-2.3-2.6-1.6-4.4c0.7-1.8,2.6-2.7,4.1-2.1
					C183.9,201.9,184.6,203.8,183.9,205.6z"/>
				<path class="st37" d="M183.1,205.9c-0.4,1-1.4,1.5-2.3,1.2c-0.9-0.4-1.3-1.5-0.9-2.5c0.4-1,1.4-1.5,2.3-1.2
					C183.1,203.8,183.5,204.9,183.1,205.9z"/>
				<path class="st30" d="M187.1,199.3c-0.8-4-4-7.2-8.9-7.6c-5.8-0.5-11,3.6-11.5,9.2c-0.1,0.8,0,1.6,0.1,2.2c-1.1,0.5-4-0.5-4-0.5
					c3.8,3.6,8,4,8,4l-1.2-1.7c-0.5-0.9-0.7-2.1-0.6-3.4c0.5-4.9,5-8.5,10.1-8.1c3.8,0.4,6.9,2.9,8,6.3L187.1,199.3z"/>
			</g>
			<g>
				<g>
					<path class="st34" d="M268.2,217.3c-1.1,4-4.9,6.4-8.6,5.4c-3.7-1-5.7-5-4.7-9c1.1-4,4.9-6.4,8.6-5.4
						C267.2,209.4,269.3,213.4,268.2,217.3z"/>
					<path class="st30" d="M268.2,218.4c-1.1,4-4.9,6.4-8.6,5.4c-3.7-1-5.7-5-4.7-9c1.1-4,4.9-6.4,8.6-5.4
						C267.2,210.5,269.3,214.5,268.2,218.4z"/>
					<path class="st35" d="M262.7,214.4c-0.4,1.1-1.6,1.6-2.7,1.2c-1-0.4-1.5-1.7-1.1-2.7c0.4-1.1,1.6-1.6,2.7-1.2
						C262.6,212.1,263.1,213.3,262.7,214.4z"/>
				</g>
				<path class="st36" d="M252,214.6c1.5-4.7,6.7-7.2,11.6-5.6c4.9,1.6,7.6,6.7,6,11.4c-1.5,4.7-5.8,4.8-10.7,3.2
					C254.1,222,250.4,219.3,252,214.6z"/>
				<path class="st12" d="M251.5,214.6c-1.8,5.4,2.4,8.4,7.9,10.2c5.6,1.8,10.4,1.8,12.2-3.6c1.8-5.4-1.3-11.2-6.9-13
					C259.1,206.3,253.2,209.2,251.5,214.6z"/>
				<path class="st37" d="M251.6,215c-1.5,4.7,2.1,7.3,7,8.9c4.9,1.6,9.1,1.5,10.7-3.2c1.5-4.7-1.2-9.8-6-11.4
					C258.3,207.8,253.1,210.3,251.6,215z"/>
				<path class="st12" d="M251.5,214.6c-1.8,5.4,2.4,8.4,7.9,10.2c5.6,1.8,10.4,1.8,12.2-3.6c1.8-5.4-1.3-11.2-6.9-13
					C259.1,206.3,253.2,209.2,251.5,214.6z M251.6,215c1.5-4.7,6.7-7.2,11.6-5.6c4.9,1.6,7.6,6.7,6,11.4c-1.5,4.7-5.8,4.8-10.7,3.2
					C253.7,222.4,250,219.7,251.6,215z"/>
				<path class="st30" d="M253,214.1c-1.3,4,0.5,8.2,4.1,9.3c3.5,1.2,7.5-1.1,8.8-5.1c1.3-4-0.5-8.2-4.1-9.3
					C258.2,207.8,254.3,210.1,253,214.1z"/>
				<path class="st38" d="M257.3,218.4c-0.6,1.8,0.2,3.7,1.8,4.3c1.6,0.6,3.4-0.4,4-2.3c0.6-1.8-0.2-3.7-1.8-4.3
					C259.8,215.6,257.9,216.6,257.3,218.4z"/>
				<path class="st37" d="M259.4,219.2c-0.4,1,0.1,2.1,1,2.4c0.9,0.3,1.9-0.3,2.3-1.3c0.4-1-0.1-2.1-1-2.4
					C260.8,217.6,259.8,218.1,259.4,219.2z"/>
				<path class="st30" d="M253.5,211.6c2.3-3.4,6.5-5,11.2-3.4c5.6,1.8,8.6,7.6,6.9,13c-0.3,0.8-0.6,1.4-1,2
					c0.8,0.9,3.9,1.1,3.9,1.1c-5,1.8-9,0.5-9,0.5l1.8-1.1c0.8-0.7,1.5-1.6,1.9-2.9c1.5-4.7-1.2-9.8-6-11.4c-3.7-1.2-7.5-0.1-9.9,2.6
					L253.5,211.6z"/>
			</g>
			<g>
				<g>
					<path class="st12" d="M215.3,244.3c0,0,3.8-1.9,8.5-1.5c4.7,0.5,8.5,3.1,8.5,3.1S221.7,245,215.3,244.3z"/>
				</g>
				<path class="st29" d="M240.5,233.9c-9.8,8.3-26.1,7.6-36-5.3"/>
			</g>
			
				<linearGradient id="SVGID_12_" gradientUnits="userSpaceOnUse" x1="6789.5713" y1="236.1713" x2="6728.73" y2="410.1061" gradientTransform="matrix(0.9994 -3.500000e-02 3.500000e-02 0.9994 -6601.5571 -18.3825)">
				<stop  offset="0" style="stop-color:#D49B71"/>
				<stop  offset="0.1087" style="stop-color:#C18766"/>
				<stop  offset="0.2731" style="stop-color:#AA6F58"/>
				<stop  offset="0.4261" style="stop-color:#9C6150"/>
				<stop  offset="0.5552" style="stop-color:#975C4D"/>
				<stop  offset="0.9805" style="stop-color:#6E3F32"/>
			</linearGradient>
			<path class="st39" d="M250.1,106.8c0.6-0.6,16.2-35.4-23-82.6C206.2,12.6,161.9,4.4,119,26.9c-22.5,11.8-57.2,36.8-65.5,86.7
				c-4.6,27.4,2.3,108.3,65,134c-3.7-7.4-25.9-51.3-18-49.7c8.6,1.8,8.4,1.4,28.2-8.6c4.6-54.9,67.9-38,122.7-82.9L250.1,106.8z"/>
		</g>
		
			<radialGradient id="SVGID_13_" cx="-5624.9771" cy="2123.1338" r="15.9163" gradientTransform="matrix(-1 8.700000e-03 8.700000e-03 1 -5544.8169 -1859.9467)" gradientUnits="userSpaceOnUse">
			<stop  offset="0.2949" style="stop-color:#F5D8BD"/>
			<stop  offset="1" style="stop-color:#F5D8BD"/>
		</radialGradient>
		<path class="st40" d="M111.6,232.6c-31.8,2.1-34.7-51.2-6-33.1L111.6,232.6z"/>
		<path class="st41" d="M96.2,210.5c0,0,1.2-3.7,3.6-2c2.4,1.7,3,4.6,3,7.5c0,2.9-2.7,5.5-2.2,4.4c0.5-1.1,2.4-5,0.2-5.7
			C98.6,214.1,95.3,212.3,96.2,210.5z"/>
		
			<linearGradient id="SVGID_14_" gradientUnits="userSpaceOnUse" x1="6783.3369" y1="1108.4454" x2="6810.4243" y2="964.766" gradientTransform="matrix(0.9929 -0.119 0.119 0.9929 -6755.7266 42.6469)">
			<stop  offset="0" style="stop-color:#D49B71"/>
			<stop  offset="0.1087" style="stop-color:#C18766"/>
			<stop  offset="0.2731" style="stop-color:#AA6F58"/>
			<stop  offset="0.4261" style="stop-color:#9C6150"/>
			<stop  offset="0.5552" style="stop-color:#975C4D"/>
			<stop  offset="0.9805" style="stop-color:#6E3F32"/>
		</linearGradient>
		<path class="st42" d="M150.3,152c-12.8,4.6-22.5,27.9-21.7,39.4c1.2,19,0,28.1-8.3,39c-9.3,12.2-14.3,37.4,13.2,47.2
			c-21.7-5.1-31.9-22.1-25.5-45.2c2.9-10.5-0.7-23.7-4.5-34.3c-4.6-12.9-11.3-19-5.8-34.2"/>
		<g>
			<path class="st16" d="M110.5,243.9c0.4,3.1-1.8,5.8-4.9,6.2c-3.1,0.4-5.8-1.8-6.2-4.9c-0.4-3.1,3.9-14.2,3.9-14.2
				S110.1,240.8,110.5,243.9z"/>
			<g>
				<path class="st14" d="M99.5,229.6c0.3,1.9,2,3.3,4,3c1.9-0.3,3.3-2,3-4c-0.3-1.9-2-3.3-4-3C100.6,225.9,99.3,227.7,99.5,229.6z"
					/>
			</g>
			<g class="st43">
				<path class="st37" d="M100.6,228.3c0.1,0.7,0.8,1.2,1.5,1.1c0.7-0.1,1.2-0.8,1.1-1.5c-0.1-0.7-0.8-1.2-1.5-1.1
					C101.1,226.9,100.5,227.6,100.6,228.3z"/>
			</g>
		</g>
		
			<linearGradient id="SVGID_15_" gradientUnits="userSpaceOnUse" x1="6691.8105" y1="794.6354" x2="6780.6079" y2="1162.1124" gradientTransform="matrix(0.9929 -0.119 0.119 0.9929 -6755.7266 42.6469)">
			<stop  offset="0" style="stop-color:#D49B71"/>
			<stop  offset="0.1087" style="stop-color:#C18766"/>
			<stop  offset="0.2731" style="stop-color:#AA6F58"/>
			<stop  offset="0.4261" style="stop-color:#9C6150"/>
			<stop  offset="0.5552" style="stop-color:#975C4D"/>
			<stop  offset="0.9805" style="stop-color:#6E3F32"/>
		</linearGradient>
		<path class="st44" d="M51.2,256.3c-21.7-24.5-32.9-55.8-23.2-87.9c4.6-15.2,3.3-27.3-0.1-38.5c-0.1,0.6-0.1,1.2-0.2,1.9
			c-2.4,18.4-15.6,33.8-19,52c-4.4,23.5,0.7,53,11.3,74.2C28,274,45.7,296,61.1,306.4c18,12.2,47.8,18.4,53.7,4.5
			c3-7,7.6-11,12.4-14.1C99,300.5,68.7,276.1,51.2,256.3z"/>
	</g>
</g>
</svg>
