<svg viewBox="0 0 167.5 298.5" xmlns="http://www.w3.org/2000/svg" xmlns:xlink="http://www.w3.org/1999/xlink"><linearGradient id="a"><stop offset=".295" stop-color="#f5d8bc"/><stop offset="1" stop-color="#f5d8bc"/></linearGradient><radialGradient id="c" cx="2390.872" cy="127.406" gradientTransform="matrix(.9987 .0499 -.0504 .9894 -2297.671 -74.954)" gradientUnits="userSpaceOnUse" r="9.366" xlink:href="#a"/><radialGradient id="d" cx="2397.229" cy="162.96" gradientTransform="matrix(.9987 .0499 -.0504 .9894 -2297.671 -74.954)" gradientUnits="userSpaceOnUse" r="32.59" xlink:href="#a"/><radialGradient id="e" cx="2399.242" cy="130.223" gradientTransform="matrix(.9987 .0499 -.0504 .9894 -2297.671 -74.954)" gradientUnits="userSpaceOnUse" r="12.089" xlink:href="#a"/><radialGradient id="f" cx="2398.741" cy="201.767" gradientTransform="matrix(.9987 .0499 -.0504 .9894 -2297.671 -74.954)" gradientUnits="userSpaceOnUse" r="40.094" xlink:href="#a"/><radialGradient id="g" cx="-677.823" cy="352.835" gradientTransform="matrix(-.9917 .1272 .1284 .9824 -704.667 -140.485)" gradientUnits="userSpaceOnUse" r="11.329" xlink:href="#a"/><radialGradient id="h" cx="1265.762" cy="178.01" gradientTransform="matrix(.9981 .0614 -.0619 .9887 -1097.395 -130.508)" gradientUnits="userSpaceOnUse" r="11.329" xlink:href="#a"/><radialGradient id="i" cx="1194.792" cy="-28.779" gradientTransform="matrix(.9393 .2491 -.2536 .958 -1045.65 -182.688)" gradientUnits="userSpaceOnUse" r="79.917" xlink:href="#a"/><linearGradient id="b"><stop offset=".049" stop-color="#f2b29d"/><stop offset="1" stop-color="#f5d8bc"/></linearGradient><radialGradient id="j" cx="1194.047" cy="445.709" gradientTransform="matrix(.9192 -.163 .1519 .841 -1122.984 -47.764)" gradientUnits="userSpaceOnUse" r="19.061" xlink:href="#b"/><radialGradient id="k" cx="1237.711" cy="244.124" gradientTransform="matrix(1 -.0052 .0052 .9906 -1114.76 -103.347)" gradientUnits="userSpaceOnUse" r="19.061" xlink:href="#b"/><radialGradient id="l" cx="893.708" cy="-82.061" gradientTransform="matrix(1.3632 .4627 -.2897 .8375 -1161.905 -222.426)" gradientUnits="userSpaceOnUse" r="8.986"><stop offset=".024" stop-color="#d1a18c"/><stop offset="1" stop-color="#f5d8bc"/></radialGradient><radialGradient id="m" cx="870.093" cy="404.838" gradientTransform="matrix(1.25 -.7003 .7738 1.3555 -1326.552 153.253)" gradientUnits="userSpaceOnUse" r="23.38"><stop offset="0" stop-color="#f8e3d1"/><stop offset=".236" stop-color="#f7e0ca"/><stop offset=".546" stop-color="#f6dcc2"/><stop offset="1" stop-color="#f5d8bc"/></radialGradient><linearGradient id="n" gradientTransform="rotate(3.533 1471.35 -17773.673)" gradientUnits="userSpaceOnUse" x1="1182.161" x2="1201.135" y1="28.442" y2="195.559"><stop offset="0" stop-color="#f9ca9e"/><stop offset=".448" stop-color="#dfac79"/><stop offset=".518" stop-color="#d6a073"/><stop offset=".711" stop-color="#c08365"/><stop offset=".878" stop-color="#b3715c"/><stop offset="1" stop-color="#ae6b59"/></linearGradient><radialGradient id="o" cx="616.311" cy="211.254" gradientTransform="matrix(-1.1315 0 0 1.0131 803.569 -20.826)" gradientUnits="userSpaceOnUse" r="11.539" xlink:href="#a"/><radialGradient id="p" cx="5280.11" cy="211.254" gradientTransform="matrix(1.1315 0 0 1.0131 -5910.721 -20.826)" gradientUnits="userSpaceOnUse" r="11.539" xlink:href="#a"/><path d="M23.1 287.6c0 4.4 27.2 7.9 60.6 7.9 33.5 0 60.6-3.5 60.6-7.9s-27.2-7.9-60.6-7.9-60.6 3.6-60.6 7.9z" fill="#014677"/><path d="M48.3 199.6c-.3 1.4-.4 3 .5 4.1.5.7 1.4 1.1 2.2 1.4 1.6.6 3.3 1 5 1.2.6-10.1 2.2-20.2 4.6-30-3.8 2.9-6 7.4-8 11.8-1.7 3.7-3.5 7.5-4.3 11.5z" fill="#42acda"/><path d="M48.3 199.6c-.3 1.4-.4 3 .5 4.1.5.7 1.4 1.1 2.2 1.4 1.6.6 3.3 1 5 1.2.6-10.1 2.2-20.2 4.6-30-3.8 2.9-6 7.4-8 11.8-1.7 3.7-3.5 7.5-4.3 11.5z" fill="#029fd4" opacity=".4"/><path d="M121.6 199.6c.3 1.4.4 3-.5 4.1-.5.7-1.4 1.1-2.2 1.4-1.6.6-3.3 1-5 1.2-.6-10.1-2.2-20.2-4.6-30 3.8 2.9 6 7.4 8 11.8 1.8 3.7 3.5 7.5 4.3 11.5z" fill="#42acda"/><path d="M121.6 199.6c.3 1.4.4 3-.5 4.1-.5.7-1.4 1.1-2.2 1.4-1.6.6-3.3 1-5 1.2-.6-10.1-2.2-20.2-4.6-30 3.8 2.9 6 7.4 8 11.8 1.8 3.7 3.5 7.5 4.3 11.5z" fill="#029fd4" opacity=".4"/><path d="M74 163.9s1.2 3.5-.1 5.8c-1.3 2.2-5.4 6.3 2.2 6.3 7 0 19.1-1 19.2-3.3s.4-7.3.4-7.3" fill="url(#c)"/><path d="M68.5 174.9c-10.3 14.8-12.3 35.6-12.1 53.4 7.9 7.9 20.6 13.5 35.2 10.1 8-1.8 11 .5 26.4-10.1 1.9-14.9.2-47.3-16.5-55.5" fill="url(#d)"/><path d="M75.3 170l19 .8c4.2-1.6 11.2 3.9 14.2 7.1" fill="url(#e)"/><path d="M117 200.3c2.3 13.8 2.2 31 .6 42.3-2.1 15-2.9 19.6-2.5 34.7.1 3.7 2 5 3.7 7.3 1.4 1.9-4.3 3-8.1 1.6-2-.8-3.7-5.8-6.2-14.9-2.7-9.9-5.4-15.4-16.8-14.3-11 1.1-11.6 6.7-14.2 12.2s-5.1 15.3-5.6 16.6c-.8 2-3.8 1.9-6.4 2.6-2.6.6-4.6-.9-3.3-2.4 1.2-1.5 2.8-3.4 3.1-10.9.4-7.5-1.6-15.7-5.1-35.5-2.2-12.7 0-29.2 1.9-39.6" fill="url(#f)"/><path d="M73.8 169.9c10.8 11.5 21.3.1 21.8.1 1.2.3 2.7.6 4.3 1 7.7 1.9 13.5 8 14.9 15.7l2.7 14.3c2.3 13.8 1.7 30.5.1 41.8-2 14.4-2.6 20.6-2.2 34.3-1.7 2.1-4.5 2-8.5 2.1-.7-2.1-1.4-4.7-2.3-7.7-2.7-9.9-5.4-15.4-16.8-14.3-11 1.1-11.6 6.7-14.2 12.2-1.4 3-2.8 7.4-3.9 10.9-2.7.2-6.4.7-8.8-.1.2-1.3.4-2.9.5-5 .4-7.5-2-11.4-5.1-35.5-1.6-12.8-2.8-27-1.7-38.1 1.1-11 1.9-21 5.2-24.2 3.2-3.4 14-7.5 14-7.5z" fill="#42acda"/><path d="M83.3 175s-1.9 6.5.1 28.4" fill="none" stroke="#80cbee" stroke-width=".179" stroke-linecap="round" stroke-linejoin="round" stroke-miterlimit="10"/><path d="M89.1 181.9c-.1 1-1 1.6-1.9 1.5-1-.1-1.7-.9-1.6-1.9s1-1.6 1.9-1.5c1 .1 1.7.9 1.6 1.9zM89.5 191.7c-.1 1-1 1.6-1.9 1.5-1-.1-1.7-.9-1.6-1.9s1-1.6 1.9-1.5c1 .1 1.7 1 1.6 1.9zM89.9 200.8c-.1 1-1 1.6-1.9 1.5-1-.1-1.7-.9-1.6-1.9s1-1.6 1.9-1.5c1 .1 1.7.9 1.6 1.9z" fill="#80cbee"/><path d="M105.4 266.9c-2.6-8.3-6.3-16.2-16.8-16.2-19.4 0-16.9 27.5-22.7 29.8 1.3-.1 2.6-.2 3.7-.3 1-3.5 2.4-7.9 3.9-10.9 2.6-5.5 3.2-11.1 14.2-12.2 11.4-1.1 14.1 4.4 16.8 14.3.8 3 1.6 5.6 2.3 7.7 2.5-.1 4.6 0 6.2-.5-4.7-.6-5.7-5.8-7.6-11.7z" fill="#029fd4" opacity=".4"/><path d="M74.3 165.1c.2.9.3 2.2 0 3.4.1 4 15.9 1.1 17.3.9.9-.1 2.4-.4 3.8-.8.1-1.7.2-3.2.2-3.2L74.9 164z" fill="#ebcbb2"/><path d="M18.6 107.5c-25.1-8.3-14 30.2 4.1 24.6" fill="url(#g)"/><path d="M11.5 117.2s.6-3 2.7-1.9 2.9 3.4 3.1 5.6c.2 2.3-1.6 4.6-1.3 3.6.3-.9 1.4-4.2-.4-4.5-1.9-.2-4.7-1.3-4.1-2.8z" fill="#ae6b59"/><path d="M148.3 111.2c24.5-9.9 16 29.2-2.5 24.9" fill="url(#h)"/><path d="M76.5 5.4C45.5 9.5 30 20.8 19.2 47.5c-15 37.1-1.8 63.5-2.1 75.1-.3 11.5 4.7 24 24.3 36 19.1 11.7 59.3 24 96.7-10.1 13.2-12.1 10.3-24.1 10.3-24.1s14.6-46.1 3-77.6C139.7 15 106.1 1.5 76.5 5.4z" fill="url(#i)"/><path d="M61 129.1c1.5 8.2-5.7 16.4-16 18.2s-19.9-3.4-21.4-11.6 5.7-16.4 16-18.2 19.9 3.4 21.4 11.6z" fill="url(#j)" opacity=".9"/><path d="M144.5 131.9c.1 9.7-9 17.6-20.2 17.7s-20.4-7.8-20.4-17.4c-.1-9.7 9-17.6 20.2-17.7s20.4 7.7 20.4 17.4z" fill="url(#k)" opacity=".9"/><path d="M156.1 120.4s-.8-3-2.8-1.7-2.6 3.5-2.7 5.8 1.9 4.4 1.6 3.5c-.4-.9-1.7-4.1.1-4.5s4.5-1.7 3.8-3.1z" fill="#ae6b59"/><path d="M87.1 126.9c-.3.7-2.3.7-4.7-.1-2.3-.8-4-2-3.7-2.8.3-.7 2.3-.7 4.7.1 2.3.9 4 2.1 3.7 2.8z" fill="url(#l)"/><path d="M80.5 121.3c-3.2 3.5-1.2 5.7 4.7 6.4" fill="none" stroke="#ae6b59" stroke-width=".236" stroke-linecap="round" stroke-linejoin="round" stroke-miterlimit="10"/><path d="M110.5 72.4c6.8 12-3.8 30.7-23.8 41.9s-41.7 10.6-48.5-1.4C31.3 101 42 82.2 62 71s41.7-10.5 48.5 1.4z" fill="url(#m)"/><path d="M124.2 78.2c-1.1-.8-2-2-4.3-2.7-2.9-.9-4.8-.5-5.8 0-1.4.7 1-3.7 6.3-2 3.7 1.2 5.1 5.6 3.8 4.7zM34.8 81.6c1.2-.7 2.3-1.7 4.6-2.1 3-.6 4.8.1 5.8.7 1.3.8-.5-3.7-6-2.8-3.8.7-5.7 5-4.4 4.2z" fill="#ae6b59"/><path d="M75.4 4.2c-30.9 4.6-51.9 16.3-62.7 43-10.3 25.4-.8 46.2 2 60.3.6-.6.9 1.2 1.5-2.5 1.9-11.4-1.2-24.6-1.4-32-.3-10.7 4.9-19 9.6-22.1 14.3-9.3 21.9-7 35.4-1.5 16.1 6.6 41.3-11.3 61.9-6.2 24 5.9 32.3 26 29.7 40.5-3.1 17.3-.5 26.4-.4 26.5 1.9-.4 5.2-.1 6.5-.3 5.8-13.3 9.6-38.6.7-62.7-13.5-36.5-47.5-48.3-82.8-43z" fill="url(#n)"/><g fill="none" stroke-linecap="round" stroke-linejoin="round" stroke-miterlimit="10" stroke="#ae6b59" stroke-width=".447"><path d="M90.5 30c1.4 11.2-8 17.8-12.6 19.5-10.2 3.7-19.4 2-29.1-4.9"/><path d="M89.5 26.8c3 8.8-5.9 16.6-12.3 18.9-7.6 2.8-15.5-.1-20.9-5.8M89.7 24.8c.6 7.7-10.8 18-18.5 13.9"/></g><path d="M74.7 210.4c18.4-5.5 33.6 1.3 30.3 1s-16-1.3-22.5-.1c-5.5 1-11.1 1.7-15.8 4.3 0 0 1.2-3.2 8-5.2z" fill="#029fd4" opacity=".4"/><path d="M91.9 146.7c.8-.5 1.6-1.1 2.3-1.8 1.3-1.3 2.1-3.1 2.7-4.8.6-2 1-4.1 1-6.1 0-1-.9-1.9-1.9-1.9-8.4.2-16.9-.2-25.3-1-.9-.1-1.8.5-2 1.4-1.2 5.3 1.4 11.2 5.9 14.3 5.1 3.2 12.1 3.1 17.3-.1z" fill="#b44f52"/><path d="M70.2 137.2c3.7-1.8 7.9-1.8 12-1.4 3.4.3 6.8 1 9.7 2.6 1.6.9 3.1 2.1 4.2 3.6-.5 1.1-1.1 2.1-1.9 2.9-.7.7-1.5 1.3-2.3 1.8-5.2 3.2-12.2 3.3-17.2 0-3-2-5.1-5.2-5.9-8.6.4-.3.9-.6 1.4-.9z" fill="#ec6d7c"/><path d="M40.2 112.8c-4.6-.3-8.6 2.6-8.9 6.5-.2 3.9 3.4 5.2 8 5.5s8.6-.6 8.8-4.4c.3-4-3.3-7.3-7.9-7.6zm0 11.6c-4.1-.3-7.2-1.4-7-4.8s3.7-5.9 7.8-5.7 7.2 3.2 7 6.6c-.3 3.5-3.7 4.2-7.8 3.9z" fill="#debca4"/><path d="M48.1 120.8c-.2 3.9-4.2 4.7-8.8 4.4s-8.2-1.6-8-5.5 4.2-6.8 8.9-6.5c4.6.4 8.1 3.7 7.9 7.6z" fill="#ebcbb2"/><path d="M47.9 121.1c-.2 3.4-3.7 4.1-7.7 3.9-4.1-.3-7.2-1.4-7-4.8s3.7-5.9 7.8-5.7c3.9.2 7.1 3.2 6.9 6.6z" fill="#fff"/><path d="M45.4 120.1c-.2 2.8-2.7 5-5.6 4.8s-5.2-2.6-5-5.5c.2-2.8 2.7-5 5.6-4.8 3 .2 5.2 2.7 5 5.5z" fill="#6f3f31"/><path d="M44 118.4c-.1 1.3-1.2 2.3-2.6 2.2-1.3-.1-2.3-1.2-2.3-2.5.1-1.3 1.2-2.3 2.6-2.2s2.4 1.2 2.3 2.5z" fill="#fff" opacity=".2"/><path d="M43.6 117.9c0 .7-.7 1.3-1.4 1.2-.8 0-1.3-.7-1.3-1.4s.7-1.3 1.4-1.2c.8.1 1.4.7 1.3 1.4z" fill="#fff"/><path d="M31.3 119.8c-.2 3.9 3.4 5.2 8 5.5s8.6-.6 8.8-4.4c.2-3.9-3.3-7.2-8-7.5-4.6-.4-8.6 2.5-8.8 6.4zm1.8.4c.1-.8.3-1.6.7-2.4.2-.4.5-.7.7-1 .8-.8 1.8-1.5 3-1.9.3-.1.5-.2.8-.2.8-.2 1.6-.3 2.5-.2 2.5.2 4.7 1.4 5.9 3.1.5.7.8 1.5 1 2.3.1.4.1.8.1 1.2-.1 1.3-.6 2.2-1.5 2.8-1.4 1-3.7 1.2-6.3 1.1-4-.3-7.1-1.5-6.9-4.8z" fill="#ebcbb2"/><path d="M113.5 120.3c.2 3.9 4.2 4.7 8.8 4.4s8.2-1.6 8-5.5-4.2-6.8-8.9-6.5c-4.6.4-8.2 3.7-7.9 7.6zm.2.3c-.2-3.4 2.9-6.3 7-6.6s7.6 2.3 7.8 5.7-2.9 4.5-7 4.8c-4.2.2-7.6-.5-7.8-3.9z" fill="#debca4"/><path d="M113.5 120.8c.2 3.9 4.2 4.7 8.8 4.4s8.2-1.6 8-5.5-4.2-6.8-8.9-6.5c-4.5.4-8.1 3.7-7.9 7.6z" fill="#ebcbb2"/><path d="M113.8 121.1c.2 3.4 3.7 4.1 7.7 3.9 4.1-.3 7.2-1.4 7-4.8s-3.7-5.9-7.8-5.7c-4 .2-7.2 3.2-6.9 6.6z" fill="#fff"/><path d="M116.2 120.1c.2 2.8 2.7 5 5.6 4.8s5.2-2.6 5-5.5c-.2-2.8-2.7-5-5.6-4.8-3 .2-5.2 2.7-5 5.5z" fill="#6f3f31"/><path d="M117.6 118.4c.1 1.3 1.2 2.3 2.6 2.2 1.3-.1 2.3-1.2 2.3-2.5-.1-1.3-1.2-2.3-2.6-2.2s-2.4 1.2-2.3 2.5z" fill="#fff" opacity=".2"/><path d="M118 117.9c0 .7.7 1.3 1.4 1.2.8 0 1.3-.7 1.3-1.4s-.7-1.3-1.4-1.2c-.8.1-1.3.7-1.3 1.4z" fill="#fff"/><path d="M121.5 113.3c-4.6.3-8.2 3.7-8 7.5.2 3.9 4.2 4.7 8.8 4.4s8.2-1.6 8-5.5c-.2-3.8-4.1-6.7-8.8-6.4zm0 11.6c-2.5.2-4.9-.1-6.3-1.1-.9-.6-1.4-1.5-1.5-2.8 0-.4 0-.8.1-1.2.1-.8.5-1.6 1-2.3 1.2-1.7 3.4-2.9 5.9-3.1.9-.1 1.7 0 2.5.2.3.1.5.1.8.2 1.2.4 2.2 1 3 1.9.3.3.5.6.7 1 .4.7.7 1.5.7 2.4.3 3.4-2.8 4.6-6.9 4.8z" fill="#ebcbb2"/><path d="M69.5 160.2v-.1c0-.8 6.7-1.4 15-1.4s15 .6 15 1.4v.1c.1.8.2 4.8-.7 14-1.1 10.4-3.4 24.8-4.4 27-.9 2.2-1.5 3-2.7 3.2-1.1.2-14.5.2-15.6 0-1.2-.2-1.8-1-2.7-3.2s-2.1-16.5-3.2-26.9c-1-9.2-.8-13.3-.7-14.1z" fill="#ddf0fa" opacity=".8"/><path d="M69.4 159.8v-.1c0-.8 6.7-1.4 15-1.4 7.1 0 13.1.5 14.6 1.1-1.7-.6-7.5-1.1-14.5-1.1-8.4 0-15.1.7-15.1 1.5 0 .7 6.8 1.3 15.1 1.3 7.6 0 13.9-.5 14.9-1.2.1 1 .2 5.1-.7 13.9-1.1 10.4-3.4 24.8-4.4 27-.9 2.2-1.5 3-2.7 3.2-1.1.2-14.5.2-15.6 0-1.2-.2-1.8-1-2.7-3.2s-2.1-16.5-3.2-26.9c-1-9.2-.8-13.2-.7-14.1z" fill="#f0f7fb" opacity=".8"/><path d="M90.9 204.3c1.2-.2 1.8-1 2.7-3.2s3.3-16.6 4.4-27c.9-9.1.8-13.1.7-14v-.1c0-.8-6.5-1.4-14.7-1.4h.4c8.3 0 15 .6 15 1.4v.1c.1.8.2 4.8-.7 14-1.1 10.4-3.4 24.8-4.4 27-.9 2.2-1.5 3-2.7 3.2-.5.1-4.4.1-8.1.1 3.5 0 6.9 0 7.4-.1z" fill="#c8e9f9" opacity=".5"/><path d="M69.4 160.1c0 .8 6.7 1.4 15 1.4s15-.6 15-1.4-6.7-1.4-15-1.4-15 .6-15 1.4zm.5-.1c0-.6 6.5-1.1 14.4-1.1 8 0 14.4.5 14.4 1.1s-6.5 1.1-14.4 1.1c-7.9.1-14.4-.4-14.4-1.1z" fill="#c8e9f9"/><path d="M69.4 160c0 .8 6.7 1.4 15 1.4s15-.6 15-1.4-6.7-1.4-15-1.4c-8.3-.1-15 .6-15 1.4zm.5-.1c0-.6 6.5-1.1 14.4-1.1 8 0 14.4.5 14.4 1.1s-6.5 1.1-14.4 1.1c-7.9.1-14.4-.5-14.4-1.1z" fill="#c8e9f9"/><path d="M84.3 158.8c8 0 14.4.5 14.4 1.1v.1c-.4-.6-6.7-1.1-14.4-1.1s-14.1.5-14.4 1.1v-.1c0-.6 6.5-1.1 14.4-1.1zM84.4 161.4c8.1 0 14.7-.6 15-1.4v.1c0 .8-6.7 1.4-15 1.4s-15-.6-15-1.4v-.1c.3.8 6.9 1.4 15 1.4zM84.3 166.1c2.5-.1 10.8-.1 14 1.2 0 0-1.3 19-4.2 30.8 0 0-.5.8-3.5.9-2.3.1-10.2.1-12.5 0-3.1-.1-4.2-.9-4.2-.9-2.5-11.1-3.5-30.8-3.5-30.8 3.1-1.3 11.4-1.3 13.9-1.2z" fill="#fff"/><path d="M77.6 198.4c2.4.1 11 .1 13.4 0 1.6-.1 2.6-.3 3.1-.5 0 .1 0 .1-.1.2 0 0-.5.8-3.5.9-2.3.1-10.2.1-12.5 0-3.1-.1-4.2-.9-4.2-.9 0-.1 0-.2-.1-.3.7.2 1.9.5 3.9.6z" fill="#c8e9f9" opacity=".5"/><path d="M70.6 161.6s2.8.5 6.6.3c0 2 .1 6 .7 12.5 1.1 10.5 2.2 24.7 3.2 26.9.5 1.2.9 2 1.4 2.5-2.8 0-5.2 0-5.6-.1-1.1-.2-1.6-.9-2.5-2.9s-2-15.2-2.9-24.8c-.9-8.4-1-13.6-.9-14.4z" fill="#fff" opacity=".8"/><path d="M70.3 167.2c0 .6 6.2 1.1 13.9 1.1s13.9-.5 13.9-1.1-6.2-1.1-13.9-1.1c-7.7-.1-13.9.5-13.9 1.1z" fill="#f5f7f8"/><path d="M90.1 199.3s2.1-.1 3.8-.5c0 0-1 4.7-3.2 5s-2.7.1-2.7.1 1.5-2.2 2.1-4.6z" fill="#fff" opacity=".8"/><path d="M119 197.5c-4-5-14.7-14.1-21.1-15.4-6.5-1.4-5.7 4.5-3.8 5.9 1.8 1.4 3.7 2.9 5.8 4.5 2.2 1.7 10.2 11.3 13.5 11.8 3.4.7 8.1-3.6 5.6-6.8z" fill="url(#o)"/><path d="M104.2 184.3l-6.5 7.4s12.3 15.7 20 14.3 3.1-9.4 1.8-11c-1.1-1.6-15.3-10.7-15.3-10.7z" fill="#42acda"/><path d="M104.2 184.3l-6.5 7.4s12.3 15.7 20 14.3 3.1-9.4 1.8-11c-1.1-1.6-15.3-10.7-15.3-10.7z" fill="#029fd4" opacity=".4"/><path d="M51 197.5c4-5 14.7-14.1 21.1-15.4 6.5-1.4 5.7 4.5 3.8 5.9-1.8 1.4-3.7 2.9-5.9 4.5-2.2 1.7-10.2 11.3-13.5 11.8-3.4.7-8.1-3.6-5.5-6.8z" fill="url(#p)"/><path d="M65.7 184.3l6.5 7.4s-12.3 15.7-20 14.3-3.1-9.4-1.8-11c1.2-1.6 15.3-10.7 15.3-10.7z" fill="#42acda"/><path d="M65.7 184.3l6.5 7.4s-12.3 15.7-20 14.3-3.1-9.4-1.8-11c1.2-1.6 15.3-10.7 15.3-10.7z" fill="#029fd4" opacity=".4"/></svg>