<svg viewBox="0 0 305.4 742.3" xmlns="http://www.w3.org/2000/svg" xmlns:xlink="http://www.w3.org/1999/xlink"><linearGradient id="a"><stop offset=".295" stop-color="#f5d8bd"/><stop offset="1" stop-color="#f5d8bd"/></linearGradient><radialGradient id="d" cx="-9163.212" cy="907.093" gradientTransform="matrix(-.9924 .0218 .0236 1.0909 -8926.342 -212.731)" gradientUnits="userSpaceOnUse" r="101.749" xlink:href="#a"/><radialGradient id="e" cx="7503.248" cy="730.823" gradientTransform="matrix(.9927 -.1207 .1267 1.0419 -7295.942 526.296)" gradientUnits="userSpaceOnUse" r="65.638" xlink:href="#a"/><radialGradient id="f" cx="7435.909" cy="188.715" gradientTransform="matrix(.9998 .0183 -.0186 1.0168 -7237.14 -27.227)" gradientUnits="userSpaceOnUse" r="28.492" xlink:href="#a"/><radialGradient id="g" cx="7430.43" cy="370.276" gradientTransform="matrix(1 .0021 -.0022 1.0397 -7263.273 -47.646)" gradientUnits="userSpaceOnUse" r="56.331" xlink:href="#a"/><linearGradient id="b"><stop offset="0" stop-color="#d49b71"/><stop offset=".109" stop-color="#c18766"/><stop offset=".273" stop-color="#aa6f58"/><stop offset=".426" stop-color="#9c6150"/><stop offset=".555" stop-color="#975c4d"/><stop offset=".981" stop-color="#6e3f32"/></linearGradient><linearGradient id="h" gradientTransform="rotate(-6.832 -3018.045 56590.744)" gradientUnits="userSpaceOnUse" x1="6622.547" x2="6877.974" xlink:href="#b" y1="801.269" y2="1006.298"/><radialGradient id="i" cx="-4251.065" cy="1012.446" gradientTransform="matrix(-.9596 .1571 .1565 .9875 -4050.826 -168.137)" gradientUnits="userSpaceOnUse" r="111.966" xlink:href="#a"/><radialGradient id="j" cx="3623.912" cy="3112.311" gradientTransform="matrix(1.0249 -1.0059 1.1011 1.1219 -6919.24 325.165)" gradientUnits="userSpaceOnUse" r="35.715"><stop offset="0" stop-color="#f8e4d1"/><stop offset=".236" stop-color="#f7e0ca"/><stop offset=".523" stop-color="#f6dcc3"/><stop offset="1" stop-color="#f5d8bd"/></radialGradient><radialGradient id="k" cx="-3615.285" cy="4788.638" gradientTransform="matrix(-1.2602 .6989 .4334 .7815 -6399.269 -996.897)" gradientUnits="userSpaceOnUse" r="13.553"><stop offset=".024" stop-color="#d1a18c"/><stop offset="1" stop-color="#f5d8bd"/></radialGradient><linearGradient id="l" gradientTransform="rotate(-6.832 -3018.045 56590.744)" gradientUnits="userSpaceOnUse" x1="6999.989" x2="6945.805" xlink:href="#b" y1="806.256" y2="961.159"/><linearGradient id="c"><stop offset="0" stop-color="#f2a987"/><stop offset="1" stop-color="#f5d8bd"/></linearGradient><radialGradient id="m" cx="6939.43" cy="1796.616" gradientTransform="matrix(.9122 -.1996 .1844 .8425 -6496.556 99.49)" gradientUnits="userSpaceOnUse" r="28.876" xlink:href="#c"/><radialGradient id="n" cx="7029.71" cy="1826.443" gradientTransform="matrix(.9122 -.1996 .1844 .8425 -6496.556 99.49)" gradientUnits="userSpaceOnUse" r="22.392" xlink:href="#c"/><linearGradient id="o" gradientTransform="rotate(-1.985 -3757.526 188551.502)" gradientUnits="userSpaceOnUse" x1="6789.571" x2="6728.73" xlink:href="#b" y1="236.171" y2="410.106"/><radialGradient id="p" cx="-5624.977" cy="2123.134" gradientTransform="matrix(-1 .0087 .0087 1 -5544.817 -1859.947)" gradientUnits="userSpaceOnUse" r="15.916" xlink:href="#a"/><linearGradient id="q" gradientTransform="rotate(-6.832 -3018.045 56590.744)" gradientUnits="userSpaceOnUse" x1="6783.337" x2="6810.424" xlink:href="#b" y1="1108.445" y2="964.766"/><linearGradient id="r" gradientTransform="rotate(-6.832 -3018.045 56590.744)" gradientUnits="userSpaceOnUse" x1="6691.81" x2="6780.608" xlink:href="#b" y1="794.635" y2="1162.112"/><path d="M273.1 717.7c0 10.3-38.6 18.6-86.3 18.6-47.6 0-86.3-8.3-86.3-18.6s38.6-18.6 86.3-18.6c47.7.1 86.3 8.4 86.3 18.6z" fill="#014677"/><path d="M228.8 723.9c-3.3-.5-8-2.2-16.1-7.5-9.4-6.3-9.2-10.2-3.5-11.9 5.8-1.7 10.7-1.5 14.7.5s17.4 7.6 18.5 11.5c1.3 5.1-10.3 7.9-13.6 7.4zM165.6 726.8c-3.3-.5-8-2.2-16.1-7.5-9.4-6.3-9.2-10.2-3.5-11.9 5.8-1.7 10.7-1.5 14.7.5s17.4 7.6 18.5 11.5c1.2 5-10.3 7.9-13.6 7.4z" fill="#b5d7ec"/><path d="M229.9 427.8c2.1 24.8 3.5 120.5 1.6 144.7-1.2 14.7.7 33.9-3 71.6-2 20.8-2.8 41-3.8 53-.5 5.5 3.7 9.2 9.4 13.5 13.2 10.1-6.1 14.8-15.4 6.3-7.2-6.7-12.3-4.1-11.3-14.2 2.6-27.6 1.7-114.9.9-128.7-2.5-43.9-8.9-97.6-8.9-97.6-1.8-10.5-9.7-8.9-12-3.1s-3.5 77.4-5 93c-1.2 12.4-15.9 102.7-18.9 138.4-.5 5.5 8.6 10.7 12.5 13.2 4.1 2.6-6.8 13.4-17.6 4.8-7.2-5.8-15.4-7.9-13.7-15.9 1.9-8.9-.3-32.5 5.6-79.5 3-24.1 7.6-47.4 7.2-67.5-.2-7.8-4.3-55.4-4.3-109.2" fill="url(#d)"/><path d="M156.4 722.8c-.2-.9-1.2-4.9 2.7-7.1 4.7-2.7 8.7-4 11.8-3.8s11.9 7.5 7.2 10.4c-5.8 3.6-10.3 4.8-15.2 3.7-4.9-1.2-6.5-3.2-6.5-3.2z" fill="#42aeda"/><path d="M142.5 709.6s-2.2 1.8-.8 4.5c1.3 2.7 6.9 6.5 10.5 8.5 3.7 2 10.2 6.7 15.4 5.7s10.9-3.2 11.7-5.2-.2-3.7-.2-3.7-.7 3-3 4-6.5 3.1-10.7 2.7c-5.7-.5-15.2-6.2-19.2-9.5-3.5-2.9-4.2-5-3.7-7z" fill="#00a0df"/><path d="M177.4 717.7c0 .6-.5 1.1-1.1 1.1s-1.1-.5-1.1-1.1.5-1.1 1.1-1.1c.7 0 1.1.5 1.1 1.1zM175.1 722.6c0 .6-.5 1.1-1.1 1.1s-1.1-.5-1.1-1.1.5-1.1 1.1-1.1 1.1.5 1.1 1.1zM168.1 724.4c0 .6-.5 1.1-1.1 1.1s-1.1-.5-1.1-1.1.5-1.1 1.1-1.1 1.1.5 1.1 1.1z" fill="#b5d7ec"/><circle cx="160.8" cy="722.9" fill="#b5d7ec" r="1.1"/><path d="M160.6 718.4c0 .6-.5 1.1-1.1 1.1s-1.1-.5-1.1-1.1.5-1.1 1.1-1.1 1.1.5 1.1 1.1zM165.4 719.7c0 .6-.5 1.1-1.1 1.1s-1.1-.5-1.1-1.1.5-1.1 1.1-1.1c.7 0 1.1.5 1.1 1.1zM166.4 715.4c0 .6-.5 1.1-1.1 1.1s-1.1-.5-1.1-1.1.5-1.1 1.1-1.1 1.1.5 1.1 1.1z" fill="#b5d7ec"/><circle cx="170.6" cy="719.1" fill="#b5d7ec" r="1.1"/><path d="M219.6 719.9c-.2-.9-1.2-4.9 2.7-7.1 4.7-2.7 8.7-4 11.8-3.8s11.9 7.5 7.2 10.4c-5.8 3.6-10.3 4.8-15.2 3.7s-6.5-3.2-6.5-3.2z" fill="#42aeda"/><path d="M205.7 706.7s-2.2 1.8-.8 4.5c1.3 2.7 6.9 6.5 10.5 8.5 3.7 2 10.2 6.7 15.4 5.7s10.9-3.2 11.7-5.2-.2-3.7-.2-3.7-.7 3-3 4-6.5 3.1-10.7 2.7c-5.7-.5-15.2-6.2-19.2-9.5-3.5-2.9-4.2-5-3.7-7z" fill="#00a0df"/><path d="M240.7 714.8c0 .6-.5 1.1-1.1 1.1s-1.1-.5-1.1-1.1.5-1.1 1.1-1.1c.6.1 1.1.5 1.1 1.1z" fill="#b5d7ec"/><circle cx="237.3" cy="719.7" fill="#b5d7ec" r="1.1"/><path d="M231.3 721.5c0 .6-.5 1.1-1.1 1.1s-1.1-.5-1.1-1.1.5-1.1 1.1-1.1 1.1.5 1.1 1.1zM225.1 720.1c0 .6-.5 1.1-1.1 1.1s-1.1-.5-1.1-1.1.5-1.1 1.1-1.1 1.1.5 1.1 1.1zM223.8 715.5c0 .6-.5 1.1-1.1 1.1s-1.1-.5-1.1-1.1.5-1.1 1.1-1.1c.7 0 1.1.5 1.1 1.1zM228.7 716.8c0 .6-.5 1.1-1.1 1.1s-1.1-.5-1.1-1.1.5-1.1 1.1-1.1c.6.1 1.1.5 1.1 1.1z" fill="#b5d7ec"/><circle cx="228.6" cy="712.5" fill="#b5d7ec" r="1.1"/><circle cx="233.8" cy="716.3" fill="#b5d7ec" r="1.1"/><path d="M227.8 286.9c1-.6 2.4-.4 3.5 0 7.1 2.6 10.7 11.1 12.4 18.8 5.9 27.5 7.3 45.8 13.3 88 2.3 16 6.8 58.2 8.3 74.3.2 2.6.4 5.4-1.1 7.5-2.9 4-9 1.5-13.7 2.6-5.1-10.6-6.6-22.6-8.1-34.3-4.3-34.4-8.6-68.8-12.8-103.3-2-16.2-4-32.4-3.6-48.7 0-1.9.3-4 1.8-4.9z" fill="url(#e)"/><path d="M222 395.4c0-.1 0-.1 0 0h-.8z" fill="#0f395b" opacity=".1"/><path d="M196.1 470.8l-.2-.3c-.1.2-.1.4 0 .5l.2-.2z" fill="#063b5a" opacity=".2"/><path d="M213.1 264.8c-3.8 9.8-2.5 19.7-1.4 22.3.3 3.4-14.4 48.4-18.7 49.9-6.2 2.1-16.5-30.6-17.4-53.7-.3-3.3.7-10.2 0-13" fill="url(#f)"/><path d="M187.4 393.2c-10.7.6-20.8-1-31-4-3.6-1.1-7.3-3.3-8.2-7.2-.8-3.9-.1-8.4.9-12.3.7-2.8.5-3.1 3.1-2 6 2.7 12.1 5.3 18.4 7.2 9.5 2.9 19 6.3 29 6.8 3.8.2 20.4-5.2 15.2 4-2.2 3.9-7.6 4-11.5 5-5.2 1.4-10.5 2.2-15.9 2.5z" fill="none"/><path d="M210.7 282.7c-.3-3-.3-7 .5-11.3-2-2.4-5.1-4-8.3-5.2l-27.3 4c.4 1.5.4 4.2.5 6.9 2.6 2 13.8 5.6 18.8 6.3 3.6.6 12 .6 15.8-.7z" fill="#ebcbb2"/><path clip-rule="evenodd" d="M151.6 400.7s-12.5 29-10 77.6c1.1 22.4 4.6 62.4 4.8 97.8.3 62.2-3.4 120.8-3.4 120.8s5.8 9.2 23.3 6.7c0 0 19-107.3 20.3-129.2 1.7-26.8 5.4-102.8 9.6-103.7 4.2-.8 4.2 81.3 4.2 97.2s6.7 122.3 6.7 122.3 9.1 7.5 21.6 6.7c6.7-105.1 6.5-105.1 6.5-153.2 0-31.2-1.1-124.5-1.3-142.5-10 1.1-15 1.3-36.3 1.7-22.2.4-46-2.2-46-2.2z" fill="#84dade" fill-rule="evenodd"/><path d="M231.9 357.7c.3-11.8.9-15.6 1.3-24.5.3-6.2-.1-13.6.2-22.5.6-15.3 1.5-17.6 2.5-18.6 2.5-2.5-25.1-9.1-25.1-9.1l-19.5 31.9s7.7 21.4 11.8 28.8c12 22.1 25.9 49.8 29.9 58.6z" fill="#1dcad3"/><path d="M207.6 510.1c0-7.7 0-15.3-.4-23-.3-5 .8-12.4-1.6-17-3.1-5.9-13.6.4-8.7 1.2 3.5 7.3 3.5 81.5 3.5 96.6 0 14.9 5.8 108.7 6.6 121 2.1-5.9 1.1-14 1.6-17.9 3.6-25.8 0-53.4-1.1-79.3-1.2-27.1.1-54.4.1-81.6z" fill="#1dcad3" opacity=".4"/><path d="M231.9 357.7c-.1 2.7 1.9-30.8 2.6-47.4.6-15.3.4-17.2 1.5-18.2 2.5-2.5-25.1-9.1-25.1-9.1l-19.5 31.9s7.7 21.4 11.8 28.8c12 22.1 25.9 49.8 29.9 58.6z" fill="#84dade"/><g clip-rule="evenodd" fill-rule="evenodd"><path d="M191.3 314.9s7.7 21.4 11.8 28.8c12 22.1 25.9 49.8 29.9 58.6l-.4-9.8-40.6-78.6z" fill="#7adbd4" opacity=".2"/><path d="M232.5 400.1c0-.3 0-.6.1-.8-2.1-4.8-13.1-28.9-26.7-55.5-8-15.6-16.9-34.9-23-48.4-3.1-6.8-3.1-6.7-7.3-16.3l-28.7 9.6s3.1 5.8 2.9 9.6c-.8 16.2-3.4 23.6-3.4 23.6s-1.6 7.6 1.1 23.5c4.2 24.6.9 36.5 4.6 55.4z" fill="#84dade"/><path d="M159.3 394.6c1-7.8-.5-16.4-1.1-24.2-1.9-23 .3-35.3.3-52.9 0-6.6.1-29.8-10.9-28.7l-.2.8c.8 1.7 2.7 5.9 2.5 8.9-.8 16.2-3.4 23.6-3.4 23.6s-1.6 7.6 1.1 23.5c4.2 24.6.9 36.5 4.6 55.4h4.3c1.7-1.7 2.4-3.7 2.8-6.4z" fill="#1dcad3" opacity=".4"/><path d="M214.1 283c-2.7-.3-4.1 3.6-1.6 4.1s19.6 5.4 22 6.1c2.3.7 4.2-2.6 2.3-3.6-2-.9-20-6.3-22.7-6.6z" fill="#0592d0"/><path d="M214.4 285.3c0 .5.4.8.9.8s.8-.4.8-.9-.4-.8-.9-.8c-.5.1-.8.5-.8.9zM219.3 286.7c0 .5.4.8.9.8s.8-.4.8-.9-.4-.8-.9-.8c-.5.1-.8.5-.8.9zM224.4 288.1c0 .5.4.8.9.8s.8-.4.8-.9-.4-.8-.9-.8c-.4.1-.8.5-.8.9zM229.5 289.5c0 .5.4.8.9.8s.8-.4.8-.9-.4-.8-.9-.8c-.4.1-.8.5-.8.9zM234.2 290.5c0 .5.4.8.9.8s.8-.4.8-.9-.4-.8-.9-.8c-.5.1-.8.5-.8.9z" fill="#fff"/><path d="M151.6 397.9c.8.2 19.6 2.8 48 1.7s33.5-2.3 34-2.5 1.4 4.4 0 5-6.6 1.7-35.1 2.5c-33.6 1-46.8-1.7-47.5-2-.7-.2-.1-4.9.6-4.7z" fill="#8d5b25"/><path d="M215.8 398.7c-4.3.3-9.6.6-16.2.8-28.4 1.1-47.2-1.5-48-1.7s-1.3 4.5-.6 4.7c.8.2 13.9 2.9 47.5 2 6.7-.2 12.2-.4 16.6-.6 2.9.2 7.1 1.7 9.6 3.6s5.2 4.2 6.3.4c1.2-3.7-10.1-9.4-15.2-9.2z" fill="#da8e26"/></g><path d="M142 293c-3.6 4.5-14 22.6-23 60.9-8.5 36 3.3 37.5 13.3 41 17.1 6 40.2 14 52.4 18.7 12.3 4.7 24.5 6.1 30.7-2.4 2.2-3.1 2.3-15.1-14.9-16-19.9-1.1-44.7-12.9-62-22.2 0 0 9.6-40.1 15.8-58.9 3.9-12.2-1.1-35-12.3-21.1z" fill="url(#g)"/><path clip-rule="evenodd" d="M171 280.2c2.7-.4 5 3.8 2.5 4.4s-18.6 5.7-20.9 6.5-6.9-2.1-5-3.1c1.8-1.1 20.7-7.4 23.4-7.8z" fill="#0592d0" fill-rule="evenodd"/><path clip-rule="evenodd" d="M170.8 282.5c0 .5-.4.8-.8.8-.5 0-.8-.4-.8-.8s.4-.8.8-.8c.4-.1.8.3.8.8zM166 284.2c0 .5-.4.8-.8.8s-.8-.4-.8-.8.4-.8.8-.8.8.3.8.8zM161 285.8c0 .5-.4.8-.8.8s-.8-.4-.8-.8.4-.8.8-.8.8.4.8.8zM155.9 287.5c0 .5-.4.8-.8.8-.5 0-.8-.4-.8-.8 0-.5.4-.8.8-.8.5 0 .8.3.8.8zM151.3 288.8c0 .5-.4.8-.8.8s-.8-.4-.8-.8c0-.5.4-.8.8-.8s.8.3.8.8z" fill="#fff" fill-rule="evenodd"/><path d="M159.3 36.8c-16.9-.2-23.7-13.6-38.1-21.9-14.6-8.4-27.8-10-44.3-8.3-16.1 1.7-29 12.1-38.8 24.5C25.9 46.4 23.3 64.7 23.7 84c.3 15.8 6 31.9 4 47.7-2.4 18.4-15.6 33.8-19 52-4.4 23.5.7 53 11.3 74.2 8 16.1 25.7 38.1 41.1 48.5 18 12.2 47.8 18.4 53.7 4.5 9.9-23.1 38-13.6 29.1-45.7" fill="url(#h)"/><path d="M213.4 45.9c44.5 12.4 64.1 56.4 68.4 84.6 7.8 52.4-9.3 80-10.5 96.6s-10.1 27.2-22.8 36.2c-24.9 17.6-39.6 22.3-55 20.1-21.2-3.1-68.1-21.5-80.9-43.6-11.2-19.3-15.1-27.7-20.4-48.8-6-24-12.7-58.8 8-102.4 17.7-37.1 72.1-54.1 113.2-42.7z" fill="url(#i)"/><path d="M267.2 127.1c14.8 15.1 6.6 47.3-18.5 71.9-25 24.6-57.4 32.2-72.2 17.1s-6.6-47.3 18.5-71.9c25-24.6 57.4-32.2 72.2-17.1z" fill="url(#j)"/><path d="M223 227.4c.6 1 3.7.4 6.9-1.4s5.4-4.1 4.8-5.1-3.7-.4-6.9 1.4c-3.2 1.7-5.4 4-4.8 5.1z" fill="url(#k)"/><path d="M226.6 227.5c9.6-3 9.4-7.1 4.2-9.1-.7-.3-1.3-1.7-1.3-2.2" fill="none" stroke="#ae6b5a" stroke-width=".522" stroke-linecap="round" stroke-linejoin="round" stroke-miterlimit="10"/><path d="M188.7 162.9s-5.6-3.4-13.1-2.3c-3.3.5 1.9-3.5 9.7-2.2 5.6 1 5.1 4.9 3.4 4.5zM264 176.4s6.3-1.7 13.2 1.5c3.1 1.4-.8-3.9-8.7-4.9-5.7-.7-6.3 3.2-4.5 3.4z" fill="#6f3f31"/><path d="M227.1 24.2c29.5 3.1 55 28 67.8 78.7 14.1 55.7-19.4 98.3-16.1 126 3.7 30.8 16 35.2 16 35.2s-19.3-6.1-21.5-42.2c-1.1-18.4 22.6-57.6-1.2-94.4-10.5-16.2-22-20.7-22-20.7z" fill="url(#l)"/><path d="M195 221.4c2.9 13.4-8.2 27.2-24.8 30.8s-32.5-4.3-35.4-17.7 8.2-27.2 24.8-30.8c16.6-3.5 32.4 4.4 35.4 17.7z" fill="url(#m)" opacity=".5"/><path d="M270.6 222.5c2.9 13.4-7.6 33.6-24.2 37.2s-5-5.9-7.9-19.3-5.5-24 11.1-27.7c16.5-3.6 18-3.6 21 9.8z" fill="url(#n)" opacity=".5"/><path d="M171.2 198.7c-.6 4.1 2 7.8 5.7 8.4 3.7.5 7.3-2.3 7.8-6.4.6-4.1-2-7.8-5.7-8.4-3.7-.5-7.2 2.4-7.8 6.4z" fill="#6f3f31" opacity=".3"/><path d="M170.8 199.8c-.6 4.1 2 7.8 5.7 8.4 3.7.5 7.3-2.3 7.8-6.4.6-4.1-2-7.8-5.7-8.4s-7.2 2.3-7.8 6.4z" fill="#6f3f31"/><path d="M177.5 198.2c0 1.2.9 2.1 2 2.1s2-.9 2.1-2.1c0-1.2-.9-2.1-2-2.1-1.2 0-2.1 1-2.1 2.1z" fill="#fff" opacity=".5"/><path d="M177.2 208.1c-5.1-.5-9-2.2-8.5-7.2.5-4.9 5-8.5 10.1-8.1 5.1.5 8.9 4.9 8.4 9.8-.5 5-4.9 6-10 5.5z" fill="#dfbda5"/><path d="M187.7 202.8c-.5 5.6-5.5 6.7-11.3 6.2s-10.3-2.5-9.7-8.2c.5-5.6 5.7-9.7 11.5-9.2 5.7.6 10 5.6 9.5 11.2z" fill="#ebcbb2"/><path d="M187.4 203.2c-.5 4.9-4.8 5.9-9.9 5.4s-9-2.2-8.5-7.2c.5-4.9 5-8.5 10.1-8.1 5 .6 8.8 5 8.3 9.9z" fill="#fff"/><path d="M178.1 191.7c-5.8-.5-11 3.6-11.5 9.2s3.9 7.6 9.7 8.2c5.8.5 10.8-.6 11.3-6.2.6-5.7-3.7-10.7-9.5-11.2zm-.6 17c-5.1-.5-9-2.2-8.5-7.2.5-4.9 5-8.5 10.1-8.1 5.1.5 8.9 4.9 8.4 9.8-.6 5-4.9 5.9-10 5.5z" fill="#ebcbb2"/><path d="M186.4 201.8c-.4 4.2-3.7 7.3-7.4 7s-6.4-4-6-8.2 3.7-7.3 7.4-7 6.4 4.1 6 8.2z" fill="#6f3f31"/><path d="M183.9 205.6c-.7 1.8-2.6 2.7-4.1 2.1-1.6-.6-2.3-2.6-1.6-4.4s2.6-2.7 4.1-2.1c1.6.7 2.3 2.6 1.6 4.4z" fill="#fff" opacity=".2"/><path d="M183.1 205.9c-.4 1-1.4 1.5-2.3 1.2-.9-.4-1.3-1.5-.9-2.5s1.4-1.5 2.3-1.2c.9.4 1.3 1.5.9 2.5z" fill="#fff"/><path d="M187.1 199.3c-.8-4-4-7.2-8.9-7.6-5.8-.5-11 3.6-11.5 9.2-.1.8 0 1.6.1 2.2-1.1.5-4-.5-4-.5 3.8 3.6 8 4 8 4l-1.2-1.7c-.5-.9-.7-2.1-.6-3.4.5-4.9 5-8.5 10.1-8.1 3.8.4 6.9 2.9 8 6.3z" fill="#6f3f31"/><path d="M268.2 217.3c-1.1 4-4.9 6.4-8.6 5.4s-5.7-5-4.7-9c1.1-4 4.9-6.4 8.6-5.4 3.7 1.1 5.8 5.1 4.7 9z" fill="#6f3f31" opacity=".3"/><path d="M268.2 218.4c-1.1 4-4.9 6.4-8.6 5.4s-5.7-5-4.7-9c1.1-4 4.9-6.4 8.6-5.4 3.7 1.1 5.8 5.1 4.7 9z" fill="#6f3f31"/><path d="M262.7 214.4c-.4 1.1-1.6 1.6-2.7 1.2-1-.4-1.5-1.7-1.1-2.7.4-1.1 1.6-1.6 2.7-1.2 1 .4 1.5 1.6 1.1 2.7z" fill="#fff" opacity=".5"/><path d="M252 214.6c1.5-4.7 6.7-7.2 11.6-5.6s7.6 6.7 6 11.4c-1.5 4.7-5.8 4.8-10.7 3.2-4.8-1.6-8.5-4.3-6.9-9z" fill="#dfbda5"/><path d="M251.5 214.6c-1.8 5.4 2.4 8.4 7.9 10.2 5.6 1.8 10.4 1.8 12.2-3.6s-1.3-11.2-6.9-13c-5.6-1.9-11.5 1-13.2 6.4z" fill="#ebcbb2"/><path d="M251.6 215c-1.5 4.7 2.1 7.3 7 8.9s9.1 1.5 10.7-3.2c1.5-4.7-1.2-9.8-6-11.4-5-1.5-10.2 1-11.7 5.7z" fill="#fff"/><path d="M251.5 214.6c-1.8 5.4 2.4 8.4 7.9 10.2 5.6 1.8 10.4 1.8 12.2-3.6s-1.3-11.2-6.9-13c-5.6-1.9-11.5 1-13.2 6.4zm.1.4c1.5-4.7 6.7-7.2 11.6-5.6s7.6 6.7 6 11.4c-1.5 4.7-5.8 4.8-10.7 3.2-4.8-1.6-8.5-4.3-6.9-9z" fill="#ebcbb2"/><path d="M253 214.1c-1.3 4 .5 8.2 4.1 9.3 3.5 1.2 7.5-1.1 8.8-5.1s-.5-8.2-4.1-9.3c-3.6-1.2-7.5 1.1-8.8 5.1z" fill="#6f3f31"/><path d="M257.3 218.4c-.6 1.8.2 3.7 1.8 4.3s3.4-.4 4-2.3c.6-1.8-.2-3.7-1.8-4.3-1.5-.5-3.4.5-4 2.3z" fill="#fff" opacity=".2"/><path d="M259.4 219.2c-.4 1 .1 2.1 1 2.4s1.9-.3 2.3-1.3-.1-2.1-1-2.4-1.9.2-2.3 1.3z" fill="#fff"/><path d="M253.5 211.6c2.3-3.4 6.5-5 11.2-3.4 5.6 1.8 8.6 7.6 6.9 13-.3.8-.6 1.4-1 2 .8.9 3.9 1.1 3.9 1.1-5 1.8-9 .5-9 .5l1.8-1.1c.8-.7 1.5-1.6 1.9-2.9 1.5-4.7-1.2-9.8-6-11.4-3.7-1.2-7.5-.1-9.9 2.6z" fill="#6f3f31"/><path d="M215.3 244.3s3.8-1.9 8.5-1.5c4.7.5 8.5 3.1 8.5 3.1s-10.6-.9-17-1.6z" fill="#ebcbb2"/><path d="M240.5 233.9c-9.8 8.3-26.1 7.6-36-5.3" fill="none" stroke="#ae6b5a" stroke-width=".522" stroke-linecap="round" stroke-linejoin="round" stroke-miterlimit="10"/><path d="M250.1 106.8c.6-.6 16.2-35.4-23-82.6-20.9-11.6-65.2-19.8-108.1 2.7-22.5 11.8-57.2 36.8-65.5 86.7-4.6 27.4 2.3 108.3 65 134-3.7-7.4-25.9-51.3-18-49.7 8.6 1.8 8.4 1.4 28.2-8.6 4.6-54.9 67.9-38 122.7-82.9z" fill="url(#o)"/><path d="M111.6 232.6c-31.8 2.1-34.7-51.2-6-33.1z" fill="url(#p)"/><path d="M96.2 210.5s1.2-3.7 3.6-2 3 4.6 3 7.5-2.7 5.5-2.2 4.4 2.4-5 .2-5.7c-2.2-.6-5.5-2.4-4.6-4.2z" fill="#ae6b5a"/><path d="M150.3 152c-12.8 4.6-22.5 27.9-21.7 39.4 1.2 19 0 28.1-8.3 39-9.3 12.2-14.3 37.4 13.2 47.2-21.7-5.1-31.9-22.1-25.5-45.2 2.9-10.5-.7-23.7-4.5-34.3-4.6-12.9-11.3-19-5.8-34.2" fill="url(#q)"/><path d="M110.5 243.9c.4 3.1-1.8 5.8-4.9 6.2s-5.8-1.8-6.2-4.9 3.9-14.2 3.9-14.2 6.8 9.8 7.2 12.9z" fill="#0592d0"/><path d="M99.5 229.6c.3 1.9 2 3.3 4 3 1.9-.3 3.3-2 3-4-.3-1.9-2-3.3-4-3-1.9.3-3.2 2.1-3 4z" fill="#1dcad3"/><path d="M100.6 228.3c.1.7.8 1.2 1.5 1.1s1.2-.8 1.1-1.5-.8-1.2-1.5-1.1c-.6.1-1.2.8-1.1 1.5z" fill="#fff" opacity=".3"/><path d="M51.2 256.3c-21.7-24.5-32.9-55.8-23.2-87.9 4.6-15.2 3.3-27.3-.1-38.5-.1.6-.1 1.2-.2 1.9-2.4 18.4-15.6 33.8-19 52-4.4 23.5.7 53 11.3 74.2 8 16 25.7 38 41.1 48.4 18 12.2 47.8 18.4 53.7 4.5 3-7 7.6-11 12.4-14.1-28.2 3.7-58.5-20.7-76-40.5z" fill="url(#r)"/></svg>