<?xml version="1.0" encoding="utf-8"?>
<!-- Generator: Adobe Illustrator 23.0.3, SVG Export Plug-In . SVG Version: 6.00 Build 0)  -->
<svg version="1.1" id="Layer_1" xmlns="http://www.w3.org/2000/svg" xmlns:xlink="http://www.w3.org/1999/xlink" x="0px" y="0px"
	 viewBox="0 0 167.5 298.5" style="enable-background:new 0 0 167.5 298.5;" xml:space="preserve">
<style type="text/css">
	.st0{fill:#014677;}
	.st1{fill:#42ACDA;}
	.st2{opacity:0.4;fill:#029FD4;}
	.st3{fill:url(#SVGID_1_);}
	.st4{fill:url(#SVGID_2_);}
	.st5{fill:url(#SVGID_3_);}
	.st6{fill:url(#SVGID_4_);}
	.st7{fill:url(#SVGID_5_);}
	.st8{fill:url(#SVGID_6_);}
	.st9{fill:none;stroke:#80CBEE;stroke-width:0.1786;stroke-linecap:round;stroke-linejoin:round;stroke-miterlimit:10;}
	.st10{fill:#80CBEE;}
	.st11{fill:#EBCBB2;}
	.st12{fill:url(#SVGID_7_);}
	.st13{fill:#AE6B59;}
	.st14{fill:url(#SVGID_8_);}
	.st15{fill:url(#SVGID_9_);}
	.st16{opacity:0.9;fill:url(#SVGID_10_);}
	.st17{opacity:0.9;fill:url(#SVGID_11_);}
	.st18{fill:url(#SVGID_12_);}
	.st19{fill:none;stroke:#AE6B59;stroke-width:0.2364;stroke-linecap:round;stroke-linejoin:round;stroke-miterlimit:10;}
	.st20{fill:url(#SVGID_13_);}
	.st21{fill:url(#SVGID_14_);}
	.st22{fill:none;stroke:#AE6B59;stroke-width:0.4466;stroke-linecap:round;stroke-linejoin:round;stroke-miterlimit:10;}
	.st23{fill:#B44F52;}
	.st24{fill:#EC6D7C;}
	.st25{fill:#DEBCA4;}
	.st26{fill:#FFFFFF;}
	.st27{fill:#6F3F31;}
	.st28{opacity:0.2;fill:#FFFFFF;}
	.st29{opacity:0.8;fill:#DDF0FA;}
	.st30{opacity:0.8;fill:#F0F7FB;}
	.st31{opacity:0.5;fill:#C8E9F9;}
	.st32{fill:#C8E9F9;}
	.st33{opacity:0.8;fill:#FFFFFF;}
	.st34{fill:#F5F7F8;}
	.st35{fill:url(#SVGID_15_);}
	.st36{fill:url(#SVGID_16_);}
</style>
<g>
	<path class="st0" d="M23.1,287.6c0,4.4,27.2,7.9,60.6,7.9c33.5,0,60.6-3.5,60.6-7.9c0-4.4-27.2-7.9-60.6-7.9
		C50.3,279.7,23.1,283.3,23.1,287.6z"/>
	<g>
		<path class="st1" d="M48.3,199.6c-0.3,1.4-0.4,3,0.5,4.1c0.5,0.7,1.4,1.1,2.2,1.4c1.6,0.6,3.3,1,5,1.2c0.6-10.1,2.2-20.2,4.6-30
			c-3.8,2.9-6,7.4-8,11.8C50.9,191.8,49.1,195.6,48.3,199.6z"/>
		<path class="st2" d="M48.3,199.6c-0.3,1.4-0.4,3,0.5,4.1c0.5,0.7,1.4,1.1,2.2,1.4c1.6,0.6,3.3,1,5,1.2c0.6-10.1,2.2-20.2,4.6-30
			c-3.8,2.9-6,7.4-8,11.8C50.9,191.8,49.1,195.6,48.3,199.6z"/>
	</g>
	<path class="st1" d="M121.6,199.6c0.3,1.4,0.4,3-0.5,4.1c-0.5,0.7-1.4,1.1-2.2,1.4c-1.6,0.6-3.3,1-5,1.2c-0.6-10.1-2.2-20.2-4.6-30
		c3.8,2.9,6,7.4,8,11.8C119.1,191.8,120.8,195.6,121.6,199.6z"/>
	<path class="st2" d="M121.6,199.6c0.3,1.4,0.4,3-0.5,4.1c-0.5,0.7-1.4,1.1-2.2,1.4c-1.6,0.6-3.3,1-5,1.2c-0.6-10.1-2.2-20.2-4.6-30
		c3.8,2.9,6,7.4,8,11.8C119.1,191.8,120.8,195.6,121.6,199.6z"/>
	
		<radialGradient id="SVGID_1_" cx="2390.8721" cy="127.4056" r="9.3662" gradientTransform="matrix(0.9987 4.990000e-02 -5.040000e-02 0.9894 -2297.6714 -74.9539)" gradientUnits="userSpaceOnUse">
		<stop  offset="0.2949" style="stop-color:#F5D8BC"/>
		<stop  offset="1" style="stop-color:#F5D8BC"/>
	</radialGradient>
	<path class="st3" d="M74,163.9c0,0,1.2,3.5-0.1,5.8c-1.3,2.2-5.4,6.3,2.2,6.3c7,0,19.1-1,19.2-3.3c0.1-2.3,0.4-7.3,0.4-7.3"/>
	
		<radialGradient id="SVGID_2_" cx="2397.2288" cy="162.9604" r="32.5901" gradientTransform="matrix(0.9987 4.990000e-02 -5.040000e-02 0.9894 -2297.6714 -74.9539)" gradientUnits="userSpaceOnUse">
		<stop  offset="0.2949" style="stop-color:#F5D8BC"/>
		<stop  offset="1" style="stop-color:#F5D8BC"/>
	</radialGradient>
	<path class="st4" d="M68.5,174.9c-10.3,14.8-12.3,35.6-12.1,53.4c7.9,7.9,20.6,13.5,35.2,10.1c8-1.8,11,0.5,26.4-10.1
		c1.9-14.9,0.2-47.3-16.5-55.5"/>
	
		<radialGradient id="SVGID_3_" cx="2426.2273" cy="156.4005" r="0" gradientTransform="matrix(0.9987 4.990000e-02 -5.040000e-02 0.9894 -2297.6714 -74.9539)" gradientUnits="userSpaceOnUse">
		<stop  offset="0.2949" style="stop-color:#F5D8BC"/>
		<stop  offset="1" style="stop-color:#F5D8BC"/>
	</radialGradient>
	<path class="st5" d="M117.5,200.9"/>
	
		<radialGradient id="SVGID_4_" cx="2399.2419" cy="130.2228" r="12.0888" gradientTransform="matrix(0.9987 4.990000e-02 -5.040000e-02 0.9894 -2297.6714 -74.9539)" gradientUnits="userSpaceOnUse">
		<stop  offset="0.2949" style="stop-color:#F5D8BC"/>
		<stop  offset="1" style="stop-color:#F5D8BC"/>
	</radialGradient>
	<path class="st6" d="M75.3,170l19,0.8c4.2-1.6,11.2,3.9,14.2,7.1"/>
	
		<radialGradient id="SVGID_5_" cx="2398.7412" cy="201.7668" r="40.0941" gradientTransform="matrix(0.9987 4.990000e-02 -5.040000e-02 0.9894 -2297.6714 -74.9539)" gradientUnits="userSpaceOnUse">
		<stop  offset="0.2949" style="stop-color:#F5D8BC"/>
		<stop  offset="1" style="stop-color:#F5D8BC"/>
	</radialGradient>
	<path class="st7" d="M117,200.3c2.3,13.8,2.2,31,0.6,42.3c-2.1,15-2.9,19.6-2.5,34.7c0.1,3.7,2,5,3.7,7.3c1.4,1.9-4.3,3-8.1,1.6
		c-2-0.8-3.7-5.8-6.2-14.9c-2.7-9.9-5.4-15.4-16.8-14.3c-11,1.1-11.6,6.7-14.2,12.2c-2.6,5.5-5.1,15.3-5.6,16.6
		c-0.8,2-3.8,1.9-6.4,2.6c-2.6,0.6-4.6-0.9-3.3-2.4c1.2-1.5,2.8-3.4,3.1-10.9c0.4-7.5-1.6-15.7-5.1-35.5c-2.2-12.7,0-29.2,1.9-39.6"
		/>
	
		<radialGradient id="SVGID_6_" cx="573.4105" cy="152.8777" r="0" gradientTransform="matrix(-0.9987 -4.990000e-02 -5.040000e-02 0.9894 696.3652 74.8437)" gradientUnits="userSpaceOnUse">
		<stop  offset="0.2949" style="stop-color:#F5D8BC"/>
		<stop  offset="1" style="stop-color:#F5D8BC"/>
	</radialGradient>
	<path class="st8" d="M116,197.5"/>
	<path class="st1" d="M73.8,169.9c10.8,11.5,21.3,0.1,21.8,0.1c1.2,0.3,2.7,0.6,4.3,1c7.7,1.9,13.5,8,14.9,15.7l2.7,14.3
		c2.3,13.8,1.7,30.5,0.1,41.8c-2,14.4-2.6,20.6-2.2,34.3c-1.7,2.1-4.5,2-8.5,2.1c-0.7-2.1-1.4-4.7-2.3-7.7
		c-2.7-9.9-5.4-15.4-16.8-14.3c-11,1.1-11.6,6.7-14.2,12.2c-1.4,3-2.8,7.4-3.9,10.9c-2.7,0.2-6.4,0.7-8.8-0.1c0.2-1.3,0.4-2.9,0.5-5
		c0.4-7.5-2-11.4-5.1-35.5c-1.6-12.8-2.8-27-1.7-38.1c1.1-11,1.9-21,5.2-24.2C63,174,73.8,169.9,73.8,169.9z"/>
	<g>
		<path class="st9" d="M83.3,175c0,0-1.9,6.5,0.1,28.4"/>
		<g>
			<path class="st10" d="M89.1,181.9c-0.1,1-1,1.6-1.9,1.5c-1-0.1-1.7-0.9-1.6-1.9c0.1-1,1-1.6,1.9-1.5
				C88.5,180.1,89.2,180.9,89.1,181.9z"/>
			<path class="st10" d="M89.5,191.7c-0.1,1-1,1.6-1.9,1.5c-1-0.1-1.7-0.9-1.6-1.9c0.1-1,1-1.6,1.9-1.5
				C88.9,189.9,89.6,190.8,89.5,191.7z"/>
			<path class="st10" d="M89.9,200.8c-0.1,1-1,1.6-1.9,1.5c-1-0.1-1.7-0.9-1.6-1.9c0.1-1,1-1.6,1.9-1.5
				C89.3,199,90,199.8,89.9,200.8z"/>
		</g>
	</g>
	<path class="st2" d="M105.4,266.9c-2.6-8.3-6.3-16.2-16.8-16.2c-19.4,0-16.9,27.5-22.7,29.8c1.3-0.1,2.6-0.2,3.7-0.3
		c1-3.5,2.4-7.9,3.9-10.9c2.6-5.5,3.2-11.1,14.2-12.2c11.4-1.1,14.1,4.4,16.8,14.3c0.8,3,1.6,5.6,2.3,7.7c2.5-0.1,4.6,0,6.2-0.5
		C108.3,278,107.3,272.8,105.4,266.9z"/>
	<path class="st11" d="M74.3,165.1c0.2,0.9,0.3,2.2,0,3.4c0.1,4,15.9,1.1,17.3,0.9c0.9-0.1,2.4-0.4,3.8-0.8c0.1-1.7,0.2-3.2,0.2-3.2
		L74.9,164L74.3,165.1z"/>
	<g>
		
			<radialGradient id="SVGID_7_" cx="-677.8232" cy="352.8347" r="11.3293" gradientTransform="matrix(-0.9917 0.1272 0.1284 0.9824 -704.6666 -140.4854)" gradientUnits="userSpaceOnUse">
			<stop  offset="0.2949" style="stop-color:#F5D8BC"/>
			<stop  offset="1" style="stop-color:#F5D8BC"/>
		</radialGradient>
		<path class="st12" d="M18.6,107.5c-25.1-8.3-14,30.2,4.1,24.6"/>
		<path class="st13" d="M11.5,117.2c0,0,0.6-3,2.7-1.9c2.1,1.1,2.9,3.4,3.1,5.6c0.2,2.3-1.6,4.6-1.3,3.6c0.3-0.9,1.4-4.2-0.4-4.5
			C13.7,119.8,10.9,118.7,11.5,117.2z"/>
	</g>
	
		<radialGradient id="SVGID_8_" cx="1265.7623" cy="178.0098" r="11.3294" gradientTransform="matrix(0.9981 6.140000e-02 -6.190000e-02 0.9887 -1097.3948 -130.5083)" gradientUnits="userSpaceOnUse">
		<stop  offset="0.2949" style="stop-color:#F5D8BC"/>
		<stop  offset="1" style="stop-color:#F5D8BC"/>
	</radialGradient>
	<path class="st14" d="M148.3,111.2c24.5-9.9,16,29.2-2.5,24.9"/>
	
		<radialGradient id="SVGID_9_" cx="1194.7916" cy="-28.7788" r="79.9171" gradientTransform="matrix(0.9393 0.2491 -0.2536 0.958 -1045.6509 -182.688)" gradientUnits="userSpaceOnUse">
		<stop  offset="0.2949" style="stop-color:#F5D8BC"/>
		<stop  offset="1" style="stop-color:#F5D8BC"/>
	</radialGradient>
	<path class="st15" d="M76.5,5.4C45.5,9.5,30,20.8,19.2,47.5c-15,37.1-1.8,63.5-2.1,75.1c-0.3,11.5,4.7,24,24.3,36
		c19.1,11.7,59.3,24,96.7-10.1c13.2-12.1,10.3-24.1,10.3-24.1s14.6-46.1,3-77.6C139.7,15,106.1,1.5,76.5,5.4z"/>
	
		<radialGradient id="SVGID_10_" cx="1194.0466" cy="445.7094" r="19.0607" gradientTransform="matrix(0.9192 -0.163 0.1519 0.841 -1122.9844 -47.7643)" gradientUnits="userSpaceOnUse">
		<stop  offset="4.902740e-02" style="stop-color:#F2B29D"/>
		<stop  offset="1" style="stop-color:#F5D8BC"/>
	</radialGradient>
	<path class="st16" d="M61,129.1c1.5,8.2-5.7,16.4-16,18.2c-10.3,1.8-19.9-3.4-21.4-11.6c-1.5-8.2,5.7-16.4,16-18.2
		C49.9,115.7,59.5,120.9,61,129.1z"/>
	
		<radialGradient id="SVGID_11_" cx="1237.7113" cy="244.1237" r="19.0606" gradientTransform="matrix(1 -5.200000e-03 5.200000e-03 0.9906 -1114.7605 -103.3468)" gradientUnits="userSpaceOnUse">
		<stop  offset="4.902740e-02" style="stop-color:#F2B29D"/>
		<stop  offset="1" style="stop-color:#F5D8BC"/>
	</radialGradient>
	<path class="st17" d="M144.5,131.9c0.1,9.7-9,17.6-20.2,17.7c-11.2,0.1-20.4-7.8-20.4-17.4c-0.1-9.7,9-17.6,20.2-17.7
		C135.3,114.4,144.5,122.2,144.5,131.9z"/>
	<path class="st13" d="M156.1,120.4c0,0-0.8-3-2.8-1.7c-2,1.3-2.6,3.5-2.7,5.8c-0.1,2.3,1.9,4.4,1.6,3.5c-0.4-0.9-1.7-4.1,0.1-4.5
		C154.1,123.1,156.8,121.8,156.1,120.4z"/>
	<g>
		
			<radialGradient id="SVGID_12_" cx="893.7083" cy="-82.0611" r="8.986" gradientTransform="matrix(1.3632 0.4627 -0.2897 0.8375 -1161.9052 -222.4259)" gradientUnits="userSpaceOnUse">
			<stop  offset="2.353710e-02" style="stop-color:#D1A18C"/>
			<stop  offset="1" style="stop-color:#F5D8BC"/>
		</radialGradient>
		<path class="st18" d="M87.1,126.9c-0.3,0.7-2.3,0.7-4.7-0.1c-2.3-0.8-4-2-3.7-2.8c0.3-0.7,2.3-0.7,4.7,0.1
			C85.7,125,87.4,126.2,87.1,126.9z"/>
		<path class="st19" d="M80.5,121.3c-3.2,3.5-1.2,5.7,4.7,6.4"/>
	</g>
	
		<radialGradient id="SVGID_13_" cx="870.0927" cy="404.8384" r="23.3804" gradientTransform="matrix(1.25 -0.7003 0.7738 1.3555 -1326.5524 153.2534)" gradientUnits="userSpaceOnUse">
		<stop  offset="0" style="stop-color:#F8E3D1"/>
		<stop  offset="0.2356" style="stop-color:#F7E0CA"/>
		<stop  offset="0.5458" style="stop-color:#F6DCC2"/>
		<stop  offset="1" style="stop-color:#F5D8BC"/>
	</radialGradient>
	<path class="st20" d="M110.5,72.4c6.8,12-3.8,30.7-23.8,41.9c-20,11.2-41.7,10.6-48.5-1.4C31.3,101,42,82.2,62,71
		C82,59.8,103.7,60.5,110.5,72.4z"/>
	<g>
		<path class="st13" d="M124.2,78.2c-1.1-0.8-2-2-4.3-2.7c-2.9-0.9-4.8-0.5-5.8,0c-1.4,0.7,1-3.7,6.3-2
			C124.1,74.7,125.5,79.1,124.2,78.2z"/>
		<path class="st13" d="M34.8,81.6c1.2-0.7,2.3-1.7,4.6-2.1c3-0.6,4.8,0.1,5.8,0.7c1.3,0.8-0.5-3.7-6-2.8
			C35.4,78.1,33.5,82.4,34.8,81.6z"/>
	</g>
	
		<linearGradient id="SVGID_14_" gradientUnits="userSpaceOnUse" x1="1182.161" y1="28.4424" x2="1201.1351" y2="195.5589" gradientTransform="matrix(0.9981 6.190000e-02 -6.190000e-02 0.9981 -1097.3948 -124.8465)">
		<stop  offset="0" style="stop-color:#F9CA9E"/>
		<stop  offset="0.4484" style="stop-color:#DFAC79"/>
		<stop  offset="0.5185" style="stop-color:#D6A073"/>
		<stop  offset="0.711" style="stop-color:#C08365"/>
		<stop  offset="0.8781" style="stop-color:#B3715C"/>
		<stop  offset="1" style="stop-color:#AE6B59"/>
	</linearGradient>
	<path class="st21" d="M75.4,4.2c-30.9,4.6-51.9,16.3-62.7,43c-10.3,25.4-0.8,46.2,2,60.3c0.6-0.6,0.9,1.2,1.5-2.5
		c1.9-11.4-1.2-24.6-1.4-32c-0.3-10.7,4.9-19,9.6-22.1c14.3-9.3,21.9-7,35.4-1.5c16.1,6.6,41.3-11.3,61.9-6.2
		c24,5.9,32.3,26,29.7,40.5c-3.1,17.3-0.5,26.4-0.4,26.5c1.9-0.4,5.2-0.1,6.5-0.3c5.8-13.3,9.6-38.6,0.7-62.7
		C144.7,10.7,110.7-1.1,75.4,4.2z"/>
	<g>
		<path class="st22" d="M90.5,30c1.4,11.2-8,17.8-12.6,19.5c-10.2,3.7-19.4,2-29.1-4.9"/>
		<path class="st22" d="M89.5,26.8c3,8.8-5.9,16.6-12.3,18.9c-7.6,2.8-15.5-0.1-20.9-5.8"/>
		<path class="st22" d="M89.7,24.8c0.6,7.7-10.8,18-18.5,13.9"/>
	</g>
	<path class="st2" d="M74.7,210.4c18.4-5.5,33.6,1.3,30.3,1c-3.3-0.3-16-1.3-22.5-0.1c-5.5,1-11.1,1.7-15.8,4.3
		C66.7,215.6,67.9,212.4,74.7,210.4z"/>
	<path class="st23" d="M91.9,146.7c0.8-0.5,1.6-1.1,2.3-1.8c1.3-1.3,2.1-3.1,2.7-4.8c0.6-2,1-4.1,1-6.1c0-1-0.9-1.9-1.9-1.9
		c-8.4,0.2-16.9-0.2-25.3-1c-0.9-0.1-1.8,0.5-2,1.4c-1.2,5.3,1.4,11.2,5.9,14.3C79.7,150,86.7,149.9,91.9,146.7z"/>
	<path class="st24" d="M70.2,137.2c3.7-1.8,7.9-1.8,12-1.4c3.4,0.3,6.8,1,9.7,2.6c1.6,0.9,3.1,2.1,4.2,3.6c-0.5,1.1-1.1,2.1-1.9,2.9
		c-0.7,0.7-1.5,1.3-2.3,1.8c-5.2,3.2-12.2,3.3-17.2,0c-3-2-5.1-5.2-5.9-8.6C69.2,137.8,69.7,137.5,70.2,137.2z"/>
	<g>
		<path class="st25" d="M40.2,112.8c-4.6-0.3-8.6,2.6-8.9,6.5c-0.2,3.9,3.4,5.2,8,5.5c4.6,0.3,8.6-0.6,8.8-4.4
			C48.4,116.4,44.8,113.1,40.2,112.8z M40.2,124.4c-4.1-0.3-7.2-1.4-7-4.8c0.2-3.4,3.7-5.9,7.8-5.7c4.1,0.2,7.2,3.2,7,6.6
			C47.7,124,44.3,124.7,40.2,124.4z"/>
		<path class="st11" d="M48.1,120.8c-0.2,3.9-4.2,4.7-8.8,4.4c-4.6-0.3-8.2-1.6-8-5.5c0.2-3.9,4.2-6.8,8.9-6.5
			C44.8,113.6,48.3,116.9,48.1,120.8z"/>
		<path class="st26" d="M47.9,121.1c-0.2,3.4-3.7,4.1-7.7,3.9c-4.1-0.3-7.2-1.4-7-4.8c0.2-3.4,3.7-5.9,7.8-5.7
			C44.9,114.7,48.1,117.7,47.9,121.1z"/>
		<path class="st27" d="M45.4,120.1c-0.2,2.8-2.7,5-5.6,4.8c-2.9-0.2-5.2-2.6-5-5.5c0.2-2.8,2.7-5,5.6-4.8
			C43.4,114.8,45.6,117.3,45.4,120.1z"/>
		<path class="st28" d="M44,118.4c-0.1,1.3-1.2,2.3-2.6,2.2c-1.3-0.1-2.3-1.2-2.3-2.5c0.1-1.3,1.2-2.3,2.6-2.2
			C43.1,116,44.1,117.1,44,118.4z"/>
		<path class="st26" d="M43.6,117.9c0,0.7-0.7,1.3-1.4,1.2c-0.8,0-1.3-0.7-1.3-1.4c0-0.7,0.7-1.3,1.4-1.2
			C43.1,116.6,43.7,117.2,43.6,117.9z"/>
		<path class="st11" d="M31.3,119.8c-0.2,3.9,3.4,5.2,8,5.5c4.6,0.3,8.6-0.6,8.8-4.4c0.2-3.9-3.3-7.2-8-7.5
			C35.5,113,31.5,115.9,31.3,119.8z M33.1,120.2c0.1-0.8,0.3-1.6,0.7-2.4c0.2-0.4,0.5-0.7,0.7-1c0.8-0.8,1.8-1.5,3-1.9
			c0.3-0.1,0.5-0.2,0.8-0.2c0.8-0.2,1.6-0.3,2.5-0.2c2.5,0.2,4.7,1.4,5.9,3.1c0.5,0.7,0.8,1.5,1,2.3c0.1,0.4,0.1,0.8,0.1,1.2
			c-0.1,1.3-0.6,2.2-1.5,2.8c-1.4,1-3.7,1.2-6.3,1.1l0,0l0,0C36,124.7,32.9,123.5,33.1,120.2z"/>
	</g>
	<g>
		<path class="st25" d="M113.5,120.3c0.2,3.9,4.2,4.7,8.8,4.4c4.6-0.3,8.2-1.6,8-5.5c-0.2-3.9-4.2-6.8-8.9-6.5
			C116.8,113.1,113.2,116.4,113.5,120.3z M113.7,120.6c-0.2-3.4,2.9-6.3,7-6.6c4.1-0.3,7.6,2.3,7.8,5.7c0.2,3.4-2.9,4.5-7,4.8
			C117.3,124.7,113.9,124,113.7,120.6z"/>
		<path class="st11" d="M113.5,120.8c0.2,3.9,4.2,4.7,8.8,4.4c4.6-0.3,8.2-1.6,8-5.5c-0.2-3.9-4.2-6.8-8.9-6.5
			C116.9,113.6,113.3,116.9,113.5,120.8z"/>
		<path class="st26" d="M113.8,121.1c0.2,3.4,3.7,4.1,7.7,3.9c4.1-0.3,7.2-1.4,7-4.8c-0.2-3.4-3.7-5.9-7.8-5.7
			C116.7,114.7,113.5,117.7,113.8,121.1z"/>
		<path class="st27" d="M116.2,120.1c0.2,2.8,2.7,5,5.6,4.8c2.9-0.2,5.2-2.6,5-5.5c-0.2-2.8-2.7-5-5.6-4.8
			C118.2,114.8,116,117.3,116.2,120.1z"/>
		<path class="st28" d="M117.6,118.4c0.1,1.3,1.2,2.3,2.6,2.2c1.3-0.1,2.3-1.2,2.3-2.5c-0.1-1.3-1.2-2.3-2.6-2.2
			C118.5,116,117.5,117.1,117.6,118.4z"/>
		<path class="st26" d="M118,117.9c0,0.7,0.7,1.3,1.4,1.2c0.8,0,1.3-0.7,1.3-1.4c0-0.7-0.7-1.3-1.4-1.2
			C118.5,116.6,118,117.2,118,117.9z"/>
		<path class="st11" d="M121.5,113.3c-4.6,0.3-8.2,3.7-8,7.5c0.2,3.9,4.2,4.7,8.8,4.4c4.6-0.3,8.2-1.6,8-5.5
			C130.1,115.9,126.2,113,121.5,113.3z M121.5,124.9L121.5,124.9L121.5,124.9c-2.5,0.2-4.9-0.1-6.3-1.1c-0.9-0.6-1.4-1.5-1.5-2.8
			c0-0.4,0-0.8,0.1-1.2c0.1-0.8,0.5-1.6,1-2.3c1.2-1.7,3.4-2.9,5.9-3.1c0.9-0.1,1.7,0,2.5,0.2c0.3,0.1,0.5,0.1,0.8,0.2
			c1.2,0.4,2.2,1,3,1.9c0.3,0.3,0.5,0.6,0.7,1c0.4,0.7,0.7,1.5,0.7,2.4C128.7,123.5,125.6,124.7,121.5,124.9z"/>
	</g>
	<g>
		<path class="st29" d="M69.5,160.2c0,0,0-0.1,0-0.1c0-0.8,6.7-1.4,15-1.4c8.3,0,15,0.6,15,1.4c0,0,0,0.1,0,0.1
			c0.1,0.8,0.2,4.8-0.7,14c-1.1,10.4-3.4,24.8-4.4,27c-0.9,2.2-1.5,3-2.7,3.2c-1.1,0.2-14.5,0.2-15.6,0c-1.2-0.2-1.8-1-2.7-3.2
			c-0.9-2.2-2.1-16.5-3.2-26.9C69.2,165.1,69.4,161,69.5,160.2z"/>
		<path class="st30" d="M69.4,159.8c0,0,0-0.1,0-0.1c0-0.8,6.7-1.4,15-1.4c7.1,0,13.1,0.5,14.6,1.1c-1.7-0.6-7.5-1.1-14.5-1.1
			C76.1,158.3,69.4,159,69.4,159.8c0,0.7,6.8,1.3,15.1,1.3c7.6,0,13.9-0.5,14.9-1.2c0.1,1,0.2,5.1-0.7,13.9
			c-1.1,10.4-3.4,24.8-4.4,27c-0.9,2.2-1.5,3-2.7,3.2c-1.1,0.2-14.5,0.2-15.6,0c-1.2-0.2-1.8-1-2.7-3.2c-0.9-2.2-2.1-16.5-3.2-26.9
			C69.1,164.7,69.3,160.7,69.4,159.8z"/>
		<path class="st31" d="M90.9,204.3c1.2-0.2,1.8-1,2.7-3.2c0.9-2.2,3.3-16.6,4.4-27c0.9-9.1,0.8-13.1,0.7-14c0,0,0-0.1,0-0.1
			c0-0.8-6.5-1.4-14.7-1.4c0.1,0,0.2,0,0.4,0c8.3,0,15,0.6,15,1.4c0,0,0,0.1,0,0.1c0.1,0.8,0.2,4.8-0.7,14
			c-1.1,10.4-3.4,24.8-4.4,27c-0.9,2.2-1.5,3-2.7,3.2c-0.5,0.1-4.4,0.1-8.1,0.1C87,204.4,90.4,204.4,90.9,204.3z"/>
		<path class="st32" d="M69.4,160.1c0,0.8,6.7,1.4,15,1.4c8.3,0,15-0.6,15-1.4c0-0.8-6.7-1.4-15-1.4
			C76.1,158.7,69.4,159.3,69.4,160.1z M69.9,160c0-0.6,6.5-1.1,14.4-1.1c8,0,14.4,0.5,14.4,1.1c0,0.6-6.5,1.1-14.4,1.1
			C76.4,161.2,69.9,160.7,69.9,160z"/>
		<path class="st32" d="M69.4,160c0,0.8,6.7,1.4,15,1.4c8.3,0,15-0.6,15-1.4c0-0.8-6.7-1.4-15-1.4C76.1,158.5,69.4,159.2,69.4,160z
			 M69.9,159.9c0-0.6,6.5-1.1,14.4-1.1c8,0,14.4,0.5,14.4,1.1c0,0.6-6.5,1.1-14.4,1.1C76.4,161.1,69.9,160.5,69.9,159.9z"/>
		<g>
			<path class="st26" d="M84.3,158.8c8,0,14.4,0.5,14.4,1.1c0,0,0,0,0,0.1c-0.4-0.6-6.7-1.1-14.4-1.1c-7.7,0-14.1,0.5-14.4,1.1
				c0,0,0,0,0-0.1C69.9,159.3,76.4,158.8,84.3,158.8z"/>
			<path class="st26" d="M84.4,161.4c8.1,0,14.7-0.6,15-1.4c0,0,0,0,0,0.1c0,0.8-6.7,1.4-15,1.4c-8.3,0-15-0.6-15-1.4c0,0,0,0,0-0.1
				C69.7,160.8,76.3,161.4,84.4,161.4z"/>
		</g>
		<path class="st26" d="M84.3,166.1c2.5-0.1,10.8-0.1,14,1.2c0,0-1.3,19-4.2,30.8c0,0-0.5,0.8-3.5,0.9c-2.3,0.1-10.2,0.1-12.5,0
			c-3.1-0.1-4.2-0.9-4.2-0.9c-2.5-11.1-3.5-30.8-3.5-30.8C73.5,166,81.8,166,84.3,166.1z"/>
		<path class="st31" d="M77.6,198.4c2.4,0.1,11,0.1,13.4,0c1.6-0.1,2.6-0.3,3.1-0.5c0,0.1,0,0.1-0.1,0.2c0,0-0.5,0.8-3.5,0.9
			c-2.3,0.1-10.2,0.1-12.5,0c-3.1-0.1-4.2-0.9-4.2-0.9c0-0.1,0-0.2-0.1-0.3C74.4,198,75.6,198.3,77.6,198.4z"/>
		<path class="st33" d="M70.6,161.6c0,0,2.8,0.5,6.6,0.3c0,2,0.1,6,0.7,12.5c1.1,10.5,2.2,24.7,3.2,26.9c0.5,1.2,0.9,2,1.4,2.5
			c-2.8,0-5.2,0-5.6-0.1c-1.1-0.2-1.6-0.9-2.5-2.9c-0.9-2-2-15.2-2.9-24.8C70.6,167.6,70.5,162.4,70.6,161.6z"/>
		<path class="st34" d="M70.3,167.2c0,0.6,6.2,1.1,13.9,1.1c7.7,0,13.9-0.5,13.9-1.1c0-0.6-6.2-1.1-13.9-1.1
			C76.5,166,70.3,166.6,70.3,167.2z"/>
		<path class="st33" d="M90.1,199.3c0,0,2.1-0.1,3.8-0.5c0,0-1,4.7-3.2,5c-2.2,0.3-2.7,0.1-2.7,0.1S89.5,201.7,90.1,199.3z"/>
	</g>
	<g>
		
			<radialGradient id="SVGID_15_" cx="616.3107" cy="211.2542" r="11.5386" gradientTransform="matrix(-1.1315 0 0 1.0131 803.569 -20.8255)" gradientUnits="userSpaceOnUse">
			<stop  offset="0.2949" style="stop-color:#F5D8BC"/>
			<stop  offset="1" style="stop-color:#F5D8BC"/>
		</radialGradient>
		<path class="st35" d="M119,197.5c-4-5-14.7-14.1-21.1-15.4c-6.5-1.4-5.7,4.5-3.8,5.9c1.8,1.4,3.7,2.9,5.8,4.5
			c2.2,1.7,10.2,11.3,13.5,11.8C116.8,205,121.5,200.7,119,197.5z"/>
		<path class="st1" d="M104.2,184.3l-6.5,7.4c0,0,12.3,15.7,20,14.3c7.7-1.4,3.1-9.4,1.8-11C118.4,193.4,104.2,184.3,104.2,184.3z"
			/>
		<path class="st2" d="M104.2,184.3l-6.5,7.4c0,0,12.3,15.7,20,14.3c7.7-1.4,3.1-9.4,1.8-11C118.4,193.4,104.2,184.3,104.2,184.3z"
			/>
	</g>
	<g>
		
			<radialGradient id="SVGID_16_" cx="5280.1099" cy="211.2542" r="11.5386" gradientTransform="matrix(1.1315 0 0 1.0131 -5910.7212 -20.8255)" gradientUnits="userSpaceOnUse">
			<stop  offset="0.2949" style="stop-color:#F5D8BC"/>
			<stop  offset="1" style="stop-color:#F5D8BC"/>
		</radialGradient>
		<path class="st36" d="M51,197.5c4-5,14.7-14.1,21.1-15.4c6.5-1.4,5.7,4.5,3.8,5.9c-1.8,1.4-3.7,2.9-5.9,4.5
			c-2.2,1.7-10.2,11.3-13.5,11.8C53.1,205,48.4,200.7,51,197.5z"/>
		<path class="st1" d="M65.7,184.3l6.5,7.4c0,0-12.3,15.7-20,14.3c-7.7-1.4-3.1-9.4-1.8-11C51.6,193.4,65.7,184.3,65.7,184.3z"/>
		<path class="st2" d="M65.7,184.3l6.5,7.4c0,0-12.3,15.7-20,14.3c-7.7-1.4-3.1-9.4-1.8-11C51.6,193.4,65.7,184.3,65.7,184.3z"/>
	</g>
</g>
</svg>
