<svg viewBox="0 0 272 827.4" xmlns="http://www.w3.org/2000/svg" xmlns:xlink="http://www.w3.org/1999/xlink"><radialGradient id="b" cx="1007.867" cy="518.863" gradientTransform="matrix(1.314 -.5713 .6338 1.4263 -1534.834 -22.931)" gradientUnits="userSpaceOnUse" r="30.346"><stop offset="0" stop-color="#f8e3d1"/><stop offset=".236" stop-color="#f7e0ca"/><stop offset=".546" stop-color="#f9ddc2"/><stop offset="1" stop-color="#fbdabc"/></radialGradient><linearGradient id="c" gradientUnits="userSpaceOnUse" x1="127.683" x2="124.286" y1="-59.764" y2="139.945"><stop offset=".214" stop-color="#d49b71"/><stop offset=".288" stop-color="#c18766"/><stop offset=".4" stop-color="#aa6f58"/><stop offset=".504" stop-color="#9c6150"/><stop offset=".592" stop-color="#975c4d"/><stop offset="1" stop-color="#6e3f32"/></linearGradient><linearGradient id="a"><stop offset=".049" stop-color="#f2b29d"/><stop offset="1" stop-color="#fbdabc"/></linearGradient><radialGradient id="d" cx="1284.582" cy="420.116" gradientTransform="matrix(.9286 -.09585 .09046 .8498 -1153.745 -50.889)" gradientUnits="userSpaceOnUse" r="24.739" xlink:href="#a"/><radialGradient id="e" cx="1292.102" cy="255.726" gradientTransform="matrix(.9977 .0674 -.06672 .9884 -1105.002 -149.762)" gradientUnits="userSpaceOnUse" r="24.739" xlink:href="#a"/><radialGradient id="f" cx="886.049" cy="-80.386" gradientTransform="matrix(1.3099 .5972 -.3723 .8042 -1075.996 -282.974)" gradientUnits="userSpaceOnUse" r="11.663"><stop offset=".024" stop-color="#d1a18c"/><stop offset="1" stop-color="#f5d8bc"/></radialGradient><path d="M267 799.5c0 13.2-58.1 23.9-129.8 23.9S7.4 812.7 7.4 799.5s58.1-23.9 129.8-23.9S267 786.3 267 799.5z" fill="#014677"/><g fill="#f9d8bb"><path d="M43.3 387.7c-.4-1.4-.3-2.9.3-4.2l30-70.4-14.2-45s-14.6 5.5-19.3 14.2c-2.7 5.1-30.9 91.1-29.9 101.5 1 10.3 12.6 37 12.6 37l26.5 52.1s5.4 21.6 14.1 24.5c7.7 2.6 12.6-.2 13.5-9.9 1.2-12.5-8.1-24.5-8.1-24.5L50 413.9zM187.6 284.3c-4.9-9-20.5-14.8-20.5-14.8l-15.8 45.9 33.7 76.2c.5 1.1.5 2.4.1 3.5l-8.9 21.9-21.7 52.2s-10.8 19.1-8.5 27.5 7 8.5 15 6.4 14.2-23.5 14.2-23.5l29.1-53.1s12.8-27.2 14-37.8c1.3-10.6-27.8-99.2-30.7-104.4zM135.4 261.3c-6.4-.8-13.3-1.4-20.7-1.7-5.9-.3-12.9-.2-20.3.2l18.2 26z"/></g><path d="M81.2 776.8c10.6-9.6 15.5-23.2 13.3-36.9l-6.8 3.9c-.5 11.2-8.2 20.7-16.8 27.6-2 1.6-4 3.1-6 4.7 5.3 5.1 10.8 5 16.3.7z" fill="#c8b2a9"/><path d="M124.2 773.7c-3.5-14.9-7-29.7-10.5-44.6L94.5 740c2.3 13.6-2.7 27.3-13.3 36.9-5.5 4.2-11 4.4-16.4-.8-5.1 3.9-10.4 8-15.2 12.2.8.1 1.3.3 1.3.3 18.6 24 51.3 10.2 74.4-.1 1.1-4.7 0-10-1.1-14.8z" fill="#f0eeef"/><path d="M50.8 788.6s-.5-.2-1.3-.3c-1.7 1.5-3.3 2.9-4.9 4.5-1.5 1.4-3 3.4-2.4 5.4.6 1.8 2.6 2.7 4.3 3.1 22 5.5 43.1 3.4 64.1-2.4 4.9-1.3 10.2-2.4 13-6.8.7-1.1 1.2-2.4 1.5-3.7-23 10.4-55.7 24.1-74.3.2z" fill="#ceb5ad"/><path d="M182.1 756.8c2.8 13.5 18.5 22.7 30.1 16.8.6 0 2.2-.6 3.5-1.6-5.7-3.4-11.6-6.7-16.5-11-2.5-2.2-4.8-4.7-6.9-7.3-3.6-.4-6.3 3.1-10.2 3.1z" fill="#c8b2a9"/><path d="M226.4 800.7c2.6-1.3 5.3-8.8 10.1-11.3-4.9-7.8-12.7-12.7-20.7-17.5-1.4 1.1-2.9 1.6-3.5 1.6-11.6 5.9-27.3-3.2-30.1-16.8 3.9 0 6.6-3.5 10.2-3.2-7.6-9.9-11.6-22.8-10.7-35.4L158 740.5c.7 13.6 1.3 27.3 2 40.9.1 2.6.3 5.3 1 7.8 19 12.5 43.2 16.4 65.4 11.5z" fill="#f0eeef"/><path d="M237.2 790.6c-.2-.4-.5-.8-.8-1.2-4.8 2.5-7.5 9.9-10.1 11.3-22.2 4.9-46.3 1-65.4-11.5.7 2.5 1.8 4.8 3.7 6.4 1.7 1.4 3.8 2.1 5.9 2.8 18.6 5.7 38.1 8.1 57.4 7.1 3.9-.2 8.4-.9 10.4-4.5 1.8-3.2.7-7.3-1.1-10.4z" fill="#ceb5ad"/><path d="M55.3 456.5c-.5-1.4-11.2 6.1-11.1 25.6.1 22.3 29.6 258.7 35.2 281.8 0 0 16.5 1.7 25.2-.5S121 757 121 757s-9.5-253.2-6.4-246.8c7.1 14.3 44.5 250.1 44.5 250.1s13.7 10.5 38.2-1.2c0 0-15.2-144.7-19.2-182.4s-.1-85.1-1-96.9c-.8-11.8-25.6-26-25.6-26z" fill="#d49236"/><path d="M114.6 510.2c7.1 14.3 44.5 250.1 44.5 250.1s5.6 4.3 16.1 4.3c-4-7.3-9.2-14.2-10.4-23-1-7.8 2.9-15.1 5.2-22.3 1.8-7.8-10-9.6-10.5-15.2-6.4-39.2-10.5-75-18-114.2-5.9-28.6-11.3-54.3-13.2-82.3-.5-8.9 10.2-13.9 12-22.8-5.2 10.1-17.1 15.2-28.4 17.2-14.1-4.5-28.1-9.4-42.8-11.7 10 4.6 19.5 10.8 28.4 17.6-3.9 2.8-9 7.7-8.5 9.4 2.7 8.4 11.6 18.5 9.8 29.1-4.2 32.9 1.1 64.8.2 97.2-.6 6.1-1.2 12.3-.2 18.4 1.1 5 6.1 9.6 7.1 14.6 2.7 9-6.3 15.6-7.5 24-1.2 10.6 4.3 20.7 6.4 31.4 2.3 13.4-4.8 24.4-14.7 32.4 4.9.1 10.4-.1 14.4-1.1 8.7-2.2 16.4-6.4 16.4-6.4s-9.5-253.1-6.3-246.7z" fill="#b77a31"/><path d="M147.9 263.3c-3.9-.8-8.1-1.5-12.5-2l-22.8 24.6-18.2-26c-4.4.3-8.9.8-13.3 1.5C64.4 264 49.5 270 49 282.1c0 0 8.3 75.1-.6 171.1-.2 2.5 2.1 4.6 4.6 5.3 8.6 2.5 31.1 7.7 70.1 8 51.3.5 50.6-9.7 50.6-9.7s3.1-121.5 8.6-167c1.6-13-11.4-21.8-34.4-26.5z" fill="#0072bd"/><path d="M179.5 383.4L169 353.2l-1.9-83.7s17.1 6 20.5 14.8 32.7 83.6 32.7 83.6zM59.5 268.1s-16.1 5.8-19.3 14.2C37.1 290.7 5 367.5 5 367.5l41.1 15.6 27.6-70z" fill="#0072bd"/><path d="M96 263c-2.5.2-5.1.4-7.6.7l-6.7 32.1 14.8-10.7 16.2.7z" fill="#b6b8ba" opacity=".42"/><path d="M99.8 254.5c0 .7 1.7 10.2 3.7 15.8 1.9 5.4 9.1 15.6 9.1 15.6l-17.3-9.8-16.2 15.4L85 264z" fill="#b2d6f0"/><path d="M136.3 263.3c2.5.4 3.6 3.4 6.2 3.9l3 29.4-11.5-11.3-21.4.5z" fill="#b6b8ba" opacity=".42"/><path d="M128.2 254.5c-.1.7-1 9.9-3.5 15.3-2.4 5.3-12.2 16.1-12.2 16.1l19.8-9.6 14.8 16.7-3.2-26.7z" fill="#b2d6f0"/><path d="M113.7 285.4c-7.8-.1-14.2-6.5-14.1-14.3l.2-21.2c.1-7.8 6.5-14.1 14.3-14.1 7.8.1 14.1 6.5 14.1 14.3l-.2 21.2c0 7.8-6.4 14.1-14.3 14.1z" fill="#f9d8bb"/><path d="M128.2 253.4v-3.3c.1-7.8-6.3-14.2-14.1-14.3s-14.3 6.3-14.3 14.1l-.1 8.8c9.9 1.6 19.7-.7 28.5-5.3z" fill="#fbdabc" opacity=".89"/><path d="M221.5 157.2c-2.9-1.3-6.4-1.1-10.1.4 4.9-36 .6-67.3.6-67.3s-2-68.6-86.8-72.6C58 13.5 48.8 85.5 48.8 85.5c-.1.6-9.1 29-12.5 62.8-4.2-5.6-9.6-8.5-14.8-7.3-8.9 2.1-13.6 15.5-10.6 29.9 3 14.5 12.6 24.6 21.4 22.5 1.4-.3 2.6-.9 3.8-1.7 9 32.4 25 67.4 77.4 68.3 45.6.8 70.6-23.1 84.5-53.3 7.7 0 17.5-7.4 24-18.6 7.5-13.3 7.3-27.2-.5-30.9z" fill="#fbdabc"/><path d="M167.7 119.9c7.3 16.3-9 39.2-36.2 51-27.3 11.9-55.3 8.2-62.5-8.1-7.3-16.3 9-39.2 36.2-51 27.3-11.8 55.3-8.2 62.5 8.1z" fill="url(#b)"/><path d="M63.6 74.9c28.9 31.7 76.6 14.9 112.9 6.4 8.1-1.6 16 4.8 23.7 11.7-1.8-12.3-13.4-63.2-83.9-68.7-63.5-5.9-70.1 62.2-70.1 62.2 0 .5-7.5 26.6-9.8 58.1.2.5.4 1 .6 1.4 17-21.2 31.3-43.7 26.6-71.1z" fill="#fbdabc" opacity=".89"/><path d="M207 166.8c-11.3-22.4-9.2-74.1-9.2-74.1s-15-24.2-26.9-18.8c-18.3 8.3-22.5 16.5-62.3 12-49.3-5.6-44.7-27.5-44.7-27.5s-8.5 72.8-26.5 91.7c-1.3 4.2-30.5-72.9 6-102 0 0-25.8-60.2 49.7-38.7 0 0 73.9-27.7 119 42.5.2 0 31.9 25.6-5.1 114.9z" fill="url(#c)"/><path d="M30.4 167.4c-2.8-1.2-4.3-1.8-6.3-1-.6 1.4-3.1 3.5-.9 6 1.1-2.7 3.7-4.8 6-2.3 3.1 4.5 2.2 10.5 1.9 15.2 4.9-7.6 2.9-14.8 2.9-22.8-1.1-5.3-5.7-10.4-11.9-11.4-.7.3-1.3.5-1.9.8 1 .4 2 .8 2.8 1.1 5.7 2.5 6.3 9.1 7.4 14.4zM208.7 180.8c2.6-1 3.9-1.4 5.6-.6.3 1.3 2.3 3.5 0 5.8-.7-2.6-2.6-4.8-4.9-2.5-3.3 4.1-3.3 9.9-3.6 14.3-3.3-7.5-.7-14.2.3-21.8 1.6-4.9 6.2-9.5 11.8-10.1.5.3 1.1.6 1.6.9-.9.3-1.8.6-2.6.9-5.3 1.9-6.6 8.1-8.2 13.1z" fill="#fbdabc" opacity=".89"/><path d="M101.6 180.5c1.1 10.8-8.9 20.7-22.4 22.1s-25.4-6.2-26.6-17c-1.1-10.8 8.9-20.7 22.4-22.1 13.6-1.4 25.5 6.2 26.6 17z" fill="url(#d)" opacity=".9"/><path d="M193.4 191.9c-.8 12.6-13.3 21.9-27.8 21-14.5-1-25.6-12-24.8-24.5.8-12.6 13.3-21.9 27.8-21 14.6.9 25.7 11.9 24.8 24.5z" fill="url(#e)" opacity=".9"/><path d="M122.9 188.4c-.4.9-3.1.6-6-.7s-4.9-3.1-4.5-4.1c.4-.9 3.1-.6 6 .7 3 1.3 5 3.1 4.5 4.1z" fill="url(#f)"/><path d="M115 180.3c-4.6 4.1-2.3 7.2 5.3 8.9" fill="none" stroke="#ae6b59" stroke-width=".236" stroke-linecap="round" stroke-linejoin="round" stroke-miterlimit="10"/><path d="M175.7 126.3c-1.3-1.2-2.4-2.8-5.2-4-3.7-1.6-6.1-1.3-7.5-.7-1.8.7 1.7-4.6 8.4-1.8 4.7 1.9 5.8 7.9 4.3 6.5zM68.4 116.1c1.6-.7 3.2-1.9 6.3-2.1 4-.3 6.2.8 7.4 1.7 1.5 1.3-.2-4.9-7.4-4.4-5.1.3-8.1 5.6-6.3 4.8z" fill="#ae6b59"/><path d="M76.3 157.3c-6-.8-11.4 2.6-12.1 7.6s3.9 7 9.8 7.8c6 .8 11.2.1 11.8-4.9.8-5-3.5-9.6-9.5-10.5zm-1.1 15.1c-5.3-.7-9.2-2.5-8.6-6.8.6-4.4 5.3-7.3 10.6-6.6s9 4.8 8.4 9.2c-.6 4.3-5.2 5-10.4 4.2z" fill="#6f3f31"/><path d="M85.7 168.5c-.7 5-5.9 5.7-11.8 4.9-6-.8-10.5-2.8-9.8-7.8s6.1-8.4 12.1-7.6c5.9.8 10.2 5.5 9.5 10.5z" fill="#ebcbb2"/><path d="M85.4 168.8c-.6 4.4-5.1 5-10.4 4.3s-9.2-2.5-8.6-6.8c.6-4.4 5.3-7.3 10.6-6.6 5.2.6 9 4.7 8.4 9.1z" fill="#fff"/><path d="M82.4 167.3c-.5 3.7-4 6.2-7.7 5.7-3.8-.5-6.4-3.9-5.9-7.5.5-3.7 4-6.2 7.7-5.7s6.4 3.8 5.9 7.5z" fill="#6f3f31"/><path d="M80.7 165c-.2 1.7-1.8 2.8-3.5 2.6s-2.9-1.8-2.7-3.4c.2-1.7 1.8-2.8 3.5-2.6s3 1.7 2.7 3.4z" fill="#fff" opacity=".2"/><path d="M80.2 164.3c-.1.9-1 1.6-2 1.5s-1.7-1-1.5-1.9c.1-.9 1-1.6 2-1.5s1.7 1 1.5 1.9z" fill="#fff"/><path d="M64 165.5c-.7 5 3.9 7 9.8 7.8 6 .8 11.2.1 11.8-4.9.7-5-3.6-9.7-9.6-10.5s-11.3 2.6-12 7.6zm2.4.7c.1-1.1.6-2.1 1.2-3 .3-.4.7-.8 1.1-1.2 1.1-1 2.5-1.7 4-2.1.3-.1.7-.2 1-.2 1.1-.2 2.2-.2 3.3-.1 3.3.4 6 2.2 7.4 4.5.6.9.9 2 1 3 .1.5.1 1.1 0 1.6-.2 1.6-1 2.7-2.2 3.5-1.9 1.2-4.9 1.3-8.2.8-5.2-.6-9.2-2.4-8.6-6.8z" fill="#ebcbb2"/><path d="M154.3 173.9c-.1 5 5 6.5 11 6.6s10.8-1.3 10.9-6.3-4.8-9.2-10.9-9.2c-6-.2-11 3.8-11 8.9zm.3.3c0-4.4 4.4-7.9 9.7-7.9 5.3.1 9.6 3.7 9.5 8.1 0 4.4-4.2 5.6-9.5 5.5-5.4 0-9.8-1.3-9.7-5.7z" fill="#6f3f31"/><path d="M154.3 174.5c-.1 5 5 6.5 11 6.6s10.8-1.3 10.9-6.3-4.8-9.2-10.9-9.2c-6-.2-10.9 3.9-11 8.9z" fill="#ebcbb2"/><path d="M154.6 174.9c0 4.4 4.4 5.7 9.7 5.7 5.3.1 9.5-1.1 9.5-5.5s-4.2-8-9.5-8.1-9.6 3.5-9.7 7.9z" fill="#fff"/><path d="M157.9 173.8c0 3.7 3 6.7 6.8 6.8 3.8 0 6.9-2.9 7-6.6 0-3.7-3-6.7-6.8-6.8-3.9 0-7 3-7 6.6z" fill="#6f3f31"/><path d="M159.8 171.8c0 1.7 1.4 3.1 3.1 3.1s3.1-1.3 3.2-3c0-1.7-1.4-3.1-3.1-3.1-1.8 0-3.2 1.3-3.2 3z" fill="#fff" opacity=".2"/><path d="M160.4 171.2c0 1 .8 1.7 1.8 1.7s1.8-.8 1.8-1.7-.8-1.7-1.8-1.7-1.8.8-1.8 1.7z" fill="#fff"/><path d="M165.4 165.5c-6-.1-11 4-11 9-.1 5 5 6.5 11 6.6s10.8-1.3 10.9-6.3c0-5.1-4.9-9.2-10.9-9.3zm-1.1 15.1c-3.3 0-6.3-.5-8-2-1-.9-1.7-2.1-1.6-3.7 0-.6.1-1.1.2-1.6.3-1 .8-2 1.5-2.8 1.7-2.1 4.7-3.5 8-3.4 1.2 0 2.2.2 3.3.5.3.1.7.2 1 .4 1.5.6 2.8 1.6 3.7 2.7.3.4.6.9.9 1.4.5 1 .7 2 .7 3.1-.2 4.3-4.4 5.5-9.7 5.4z" fill="#ebcbb2"/><path d="M140.7 219.8c4.2-6.9 4.4-15.4 4.2-19.5-.1-1.3-1.3-2.3-2.6-2.1-21.6 3.1-44-1.4-51.4-3.1-1.4-.3-2.7.7-2.8 2.1-.3 4.2-.2 12.6 3.8 20 13.2-11.3 33.5-5.7 48.8 2.6z" fill="#c12a48"/><path d="M92 217.1c3.7 6.8 10.8 12.7 24 13.5 13.5.8 20.8-4.4 24.6-10.8-15.2-8.3-35.5-13.9-48.6-2.7z" fill="#ec5d80"/></svg>