<?xml version="1.0" encoding="utf-8"?>
<!-- Generator: Adobe Illustrator 23.0.3, SVG Export Plug-In . SVG Version: 6.00 Build 0)  -->
<svg version="1.1" id="Layer_1" xmlns="http://www.w3.org/2000/svg" xmlns:xlink="http://www.w3.org/1999/xlink" x="0px" y="0px"
	 viewBox="0 0 272 827.4" style="enable-background:new 0 0 272 827.4;" xml:space="preserve">
<style type="text/css">
	.st0{fill:#014677;}
	.st1{fill:#F9D8BB;}
	.st2{fill:#C8B2A9;}
	.st3{fill:#F0EEEF;}
	.st4{fill:#CEB5AD;}
	.st5{fill:#D49236;}
	.st6{fill:#B77A31;}
	.st7{fill:#0072BD;}
	.st8{opacity:0.42;fill:#B6B8BA;}
	.st9{fill:#B2D6F0;}
	.st10{opacity:0.89;fill:#FBDABC;}
	.st11{fill:#FBDABC;}
	.st12{fill:url(#SVGID_1_);}
	.st13{fill:url(#SVGID_2_);}
	.st14{opacity:0.9;fill:url(#SVGID_3_);}
	.st15{opacity:0.9;fill:url(#SVGID_4_);}
	.st16{fill:url(#SVGID_5_);}
	.st17{fill:none;stroke:#AE6B59;stroke-width:0.2364;stroke-linecap:round;stroke-linejoin:round;stroke-miterlimit:10;}
	.st18{fill:#AE6B59;}
	.st19{fill:#6F3F31;}
	.st20{fill:#EBCBB2;}
	.st21{fill:#FFFFFF;}
	.st22{opacity:0.2;fill:#FFFFFF;}
	.st23{fill:#C12A48;}
	.st24{fill:#EC5D80;}
</style>
<g>
	<path class="st0" d="M267,799.5c0,13.2-58.1,23.9-129.8,23.9c-71.7,0-129.8-10.7-129.8-23.9c0-13.2,58.1-23.9,129.8-23.9
		C208.9,775.6,267,786.3,267,799.5z"/>
	<g>
		<path class="st1" d="M43.3,387.7c-0.4-1.4-0.3-2.9,0.3-4.2l30-70.4l-14.2-45c0,0-14.6,5.5-19.3,14.2
			c-2.7,5.1-30.9,91.1-29.9,101.5c1,10.3,12.6,37,12.6,37l26.5,52.1c0,0,5.4,21.6,14.1,24.5c7.7,2.6,12.6-0.2,13.5-9.9
			c1.2-12.5-8.1-24.5-8.1-24.5L50,413.9L43.3,387.7z"/>
		<path class="st1" d="M187.6,284.3c-4.9-9-20.5-14.8-20.5-14.8l-15.8,45.9l33.7,76.2c0.5,1.1,0.5,2.4,0.1,3.5l-8.9,21.9l-21.7,52.2
			c0,0-10.8,19.1-8.5,27.5c2.3,8.4,7,8.5,15,6.4c8-2.1,14.2-23.5,14.2-23.5l29.1-53.1c0,0,12.8-27.2,14-37.8
			C219.6,378.1,190.5,289.5,187.6,284.3z"/>
		<path class="st1" d="M135.4,261.3c-6.4-0.8-13.3-1.4-20.7-1.7c-5.9-0.3-12.9-0.2-20.3,0.2l18.2,26L135.4,261.3z"/>
		<path class="st2" d="M81.2,776.8c10.6-9.6,15.5-23.2,13.3-36.9l-6.8,3.9c-0.5,11.2-8.2,20.7-16.8,27.6c-2,1.6-4,3.1-6,4.7
			C70.2,781.2,75.7,781.1,81.2,776.8z"/>
		<path class="st3" d="M124.2,773.7c-3.5-14.9-7-29.7-10.5-44.6L94.5,740c2.3,13.6-2.7,27.3-13.3,36.9c-5.5,4.2-11,4.4-16.4-0.8
			c-5.1,3.9-10.4,8-15.2,12.2c0.8,0.1,1.3,0.3,1.3,0.3c18.6,24,51.3,10.2,74.4-0.1C126.4,783.8,125.3,778.5,124.2,773.7z"/>
		<path class="st4" d="M50.8,788.6c0,0-0.5-0.2-1.3-0.3c-1.7,1.5-3.3,2.9-4.9,4.5c-1.5,1.4-3,3.4-2.4,5.4c0.6,1.8,2.6,2.7,4.3,3.1
			c22,5.5,43.1,3.4,64.1-2.4c4.9-1.3,10.2-2.4,13-6.8c0.7-1.1,1.2-2.4,1.5-3.7C102.1,798.8,69.4,812.5,50.8,788.6z"/>
		<path class="st2" d="M182.1,756.8c2.8,13.5,18.5,22.7,30.1,16.8c0.6,0,2.2-0.6,3.5-1.6c-5.7-3.4-11.6-6.7-16.5-11
			c-2.5-2.2-4.8-4.7-6.9-7.3C188.7,753.3,186,756.8,182.1,756.8z"/>
		<path class="st3" d="M226.4,800.7c2.6-1.3,5.3-8.8,10.1-11.3c-4.9-7.8-12.7-12.7-20.7-17.5c-1.4,1.1-2.9,1.6-3.5,1.6
			c-11.6,5.9-27.3-3.2-30.1-16.8c3.9,0,6.6-3.5,10.2-3.2c-7.6-9.9-11.6-22.8-10.7-35.4L158,740.5c0.7,13.6,1.3,27.3,2,40.9
			c0.1,2.6,0.3,5.3,1,7.8C180,801.7,204.2,805.6,226.4,800.7z"/>
		<path class="st4" d="M237.2,790.6c-0.2-0.4-0.5-0.8-0.8-1.2c-4.8,2.5-7.5,9.9-10.1,11.3c-22.2,4.9-46.3,1-65.4-11.5
			c0.7,2.5,1.8,4.8,3.7,6.4c1.7,1.4,3.8,2.1,5.9,2.8c18.6,5.7,38.1,8.1,57.4,7.1c3.9-0.2,8.4-0.9,10.4-4.5
			C240.1,797.8,239,793.7,237.2,790.6z"/>
		<path class="st5" d="M55.3,456.5c-0.5-1.4-11.2,6.1-11.1,25.6c0.1,22.3,29.6,258.7,35.2,281.8c0,0,16.5,1.7,25.2-0.5
			S121,757,121,757s-9.5-253.2-6.4-246.8c7.1,14.3,44.5,250.1,44.5,250.1s13.7,10.5,38.2-1.2c0,0-15.2-144.7-19.2-182.4
			c-4-37.7-0.1-85.1-1-96.9c-0.8-11.8-25.6-26-25.6-26L55.3,456.5z"/>
		<path class="st6" d="M114.6,510.2c7.1,14.3,44.5,250.1,44.5,250.1s5.6,4.3,16.1,4.3c-4-7.3-9.2-14.2-10.4-23
			c-1-7.8,2.9-15.1,5.2-22.3c1.8-7.8-10-9.6-10.5-15.2c-6.4-39.2-10.5-75-18-114.2c-5.9-28.6-11.3-54.3-13.2-82.3
			c-0.5-8.9,10.2-13.9,12-22.8c-5.2,10.1-17.1,15.2-28.4,17.2c-14.1-4.5-28.1-9.4-42.8-11.7c10,4.6,19.5,10.8,28.4,17.6
			c-3.9,2.8-9,7.7-8.5,9.4c2.7,8.4,11.6,18.5,9.8,29.1c-4.2,32.9,1.1,64.8,0.2,97.2c-0.6,6.1-1.2,12.3-0.2,18.4
			c1.1,5,6.1,9.6,7.1,14.6c2.7,9-6.3,15.6-7.5,24c-1.2,10.6,4.3,20.7,6.4,31.4c2.3,13.4-4.8,24.4-14.7,32.4
			c4.9,0.1,10.4-0.1,14.4-1.1c8.7-2.2,16.4-6.4,16.4-6.4S111.4,503.8,114.6,510.2z"/>
		<path class="st7" d="M147.9,263.3c-3.9-0.8-8.1-1.5-12.5-2l-22.8,24.6l-18.2-26c-4.4,0.3-8.9,0.8-13.3,1.5
			C64.4,264,49.5,270,49,282.1c0,0,8.3,75.1-0.6,171.1c-0.2,2.5,2.1,4.6,4.6,5.3c8.6,2.5,31.1,7.7,70.1,8
			c51.3,0.5,50.6-9.7,50.6-9.7s3.1-121.5,8.6-167C183.9,276.8,170.9,268,147.9,263.3z"/>
		<path class="st7" d="M179.5,383.4L169,353.2l-1.9-83.7c0,0,17.1,6,20.5,14.8c3.4,8.8,32.7,83.6,32.7,83.6L179.5,383.4z"/>
		<path class="st7" d="M59.5,268.1c0,0-16.1,5.8-19.3,14.2C37.1,290.7,5,367.5,5,367.5l41.1,15.6l27.6-70L59.5,268.1z"/>
		<path class="st8" d="M96,263c-2.5,0.2-5.1,0.4-7.6,0.7l-6.7,32.1l14.8-10.7l16.2,0.7L96,263z"/>
		<path class="st9" d="M99.8,254.5c0,0.7,1.7,10.2,3.7,15.8c1.9,5.4,9.1,15.6,9.1,15.6l-17.3-9.8l-16.2,15.4l5.9-27.5L99.8,254.5z"
			/>
		<path class="st8" d="M136.3,263.3c2.5,0.4,3.6,3.4,6.2,3.9l3,29.4L134,285.3l-21.4,0.5L136.3,263.3z"/>
		<path class="st9" d="M128.2,254.5c-0.1,0.7-1,9.9-3.5,15.3c-2.4,5.3-12.2,16.1-12.2,16.1l19.8-9.6l14.8,16.7l-3.2-26.7
			L128.2,254.5z"/>
		<g>
			<path class="st1" d="M113.7,285.4L113.7,285.4c-7.8-0.1-14.2-6.5-14.1-14.3l0.2-21.2c0.1-7.8,6.5-14.1,14.3-14.1l0,0
				c7.8,0.1,14.1,6.5,14.1,14.3l-0.2,21.2C128,279.1,121.6,285.4,113.7,285.4z"/>
			<path class="st10" d="M128.2,253.4l0-3.3c0.1-7.8-6.3-14.2-14.1-14.3c-7.8-0.1-14.3,6.3-14.3,14.1l-0.1,8.8
				C109.6,260.3,119.4,258,128.2,253.4z"/>
			<path class="st11" d="M221.5,157.2c-2.9-1.3-6.4-1.1-10.1,0.4c4.9-36,0.6-67.3,0.6-67.3s-2-68.6-86.8-72.6
				C58,13.5,48.8,85.5,48.8,85.5c-0.1,0.6-9.1,29-12.5,62.8c-4.2-5.6-9.6-8.5-14.8-7.3c-8.9,2.1-13.6,15.5-10.6,29.9
				c3,14.5,12.6,24.6,21.4,22.5c1.4-0.3,2.6-0.9,3.8-1.7c9,32.4,25,67.4,77.4,68.3c45.6,0.8,70.6-23.1,84.5-53.3
				c7.7,0,17.5-7.4,24-18.6C229.5,174.8,229.3,160.9,221.5,157.2z"/>
			
				<radialGradient id="SVGID_1_" cx="1007.8668" cy="518.8627" r="30.3457" gradientTransform="matrix(1.314 -0.5713 0.6338 1.4263 -1534.8344 -22.931)" gradientUnits="userSpaceOnUse">
				<stop  offset="0" style="stop-color:#F8E3D1"/>
				<stop  offset="0.2356" style="stop-color:#F7E0CA"/>
				<stop  offset="0.5458" style="stop-color:#F9DDC2"/>
				<stop  offset="1" style="stop-color:#FBDABC"/>
			</radialGradient>
			<path class="st12" d="M167.7,119.9c7.3,16.3-9,39.2-36.2,51c-27.3,11.9-55.3,8.2-62.5-8.1c-7.3-16.3,9-39.2,36.2-51
				C132.5,100,160.5,103.6,167.7,119.9z"/>
			<path class="st10" d="M63.6,74.9c28.9,31.7,76.6,14.9,112.9,6.4c8.1-1.6,16,4.8,23.7,11.7c-1.8-12.3-13.4-63.2-83.9-68.7
				c-63.5-5.9-70.1,62.2-70.1,62.2c0,0.5-7.5,26.6-9.8,58.1c0.2,0.5,0.4,1,0.6,1.4C54,124.8,68.3,102.3,63.6,74.9z"/>
			<linearGradient id="SVGID_2_" gradientUnits="userSpaceOnUse" x1="127.6825" y1="-59.7638" x2="124.2864" y2="139.9452">
				<stop  offset="0.2139" style="stop-color:#D49B71"/>
				<stop  offset="0.288" style="stop-color:#C18766"/>
				<stop  offset="0.4" style="stop-color:#AA6F58"/>
				<stop  offset="0.5042" style="stop-color:#9C6150"/>
				<stop  offset="0.5921" style="stop-color:#975C4D"/>
				<stop  offset="1" style="stop-color:#6E3F32"/>
			</linearGradient>
			<path class="st13" d="M207,166.8c-11.3-22.4-9.2-74.1-9.2-74.1s-15-24.2-26.9-18.8c-18.3,8.3-22.5,16.5-62.3,12
				c-49.3-5.6-44.7-27.5-44.7-27.5s-8.5,72.8-26.5,91.7c-1.3,4.2-30.5-72.9,6-102c0,0-25.8-60.2,49.7-38.7c0,0,73.9-27.7,119,42.5
				C212.3,51.9,244,77.5,207,166.8z"/>
			<path class="st10" d="M30.4,167.4c-2.8-1.2-4.3-1.8-6.3-1c-0.6,1.4-3.1,3.5-0.9,6c1.1-2.7,3.7-4.8,6-2.3
				c3.1,4.5,2.2,10.5,1.9,15.2c4.9-7.6,2.9-14.8,2.9-22.8c-1.1-5.3-5.7-10.4-11.9-11.4c-0.7,0.3-1.3,0.5-1.9,0.8
				c1,0.4,2,0.8,2.8,1.1C28.7,155.5,29.3,162.1,30.4,167.4z"/>
			<path class="st10" d="M208.7,180.8c2.6-1,3.9-1.4,5.6-0.6c0.3,1.3,2.3,3.5,0,5.8c-0.7-2.6-2.6-4.8-4.9-2.5
				c-3.3,4.1-3.3,9.9-3.6,14.3c-3.3-7.5-0.7-14.2,0.3-21.8c1.6-4.9,6.2-9.5,11.8-10.1c0.5,0.3,1.1,0.6,1.6,0.9
				c-0.9,0.3-1.8,0.6-2.6,0.9C211.6,169.6,210.3,175.8,208.7,180.8z"/>
			
				<radialGradient id="SVGID_3_" cx="1284.5824" cy="420.1158" r="24.739" gradientTransform="matrix(0.9286 -9.585051e-02 9.045588e-02 0.8498 -1153.7449 -50.889)" gradientUnits="userSpaceOnUse">
				<stop  offset="4.902740e-02" style="stop-color:#F2B29D"/>
				<stop  offset="1" style="stop-color:#FBDABC"/>
			</radialGradient>
			<path class="st14" d="M101.6,180.5c1.1,10.8-8.9,20.7-22.4,22.1c-13.5,1.4-25.4-6.2-26.6-17c-1.1-10.8,8.9-20.7,22.4-22.1
				C88.6,162.1,100.5,169.7,101.6,180.5z"/>
			
				<radialGradient id="SVGID_4_" cx="1292.1017" cy="255.7258" r="24.739" gradientTransform="matrix(0.9977 6.739807e-02 -6.671578e-02 0.9884 -1105.0021 -149.762)" gradientUnits="userSpaceOnUse">
				<stop  offset="4.902740e-02" style="stop-color:#F2B29D"/>
				<stop  offset="1" style="stop-color:#FBDABC"/>
			</radialGradient>
			<path class="st15" d="M193.4,191.9c-0.8,12.6-13.3,21.9-27.8,21c-14.5-1-25.6-12-24.8-24.5c0.8-12.6,13.3-21.9,27.8-21
				C183.2,168.3,194.3,179.3,193.4,191.9z"/>
			<g>
				
					<radialGradient id="SVGID_5_" cx="886.0493" cy="-80.3861" r="11.6631" gradientTransform="matrix(1.3099 0.5972 -0.3723 0.8042 -1075.9958 -282.974)" gradientUnits="userSpaceOnUse">
					<stop  offset="2.353710e-02" style="stop-color:#D1A18C"/>
					<stop  offset="1" style="stop-color:#F5D8BC"/>
				</radialGradient>
				<path class="st16" d="M122.9,188.4c-0.4,0.9-3.1,0.6-6-0.7c-2.9-1.3-4.9-3.1-4.5-4.1c0.4-0.9,3.1-0.6,6,0.7
					C121.4,185.6,123.4,187.4,122.9,188.4z"/>
				<path class="st17" d="M115,180.3c-4.6,4.1-2.3,7.2,5.3,8.9"/>
			</g>
			<g>
				<path class="st18" d="M175.7,126.3c-1.3-1.2-2.4-2.8-5.2-4c-3.7-1.6-6.1-1.3-7.5-0.7c-1.8,0.7,1.7-4.6,8.4-1.8
					C176.1,121.7,177.2,127.7,175.7,126.3z"/>
				<path class="st18" d="M68.4,116.1c1.6-0.7,3.2-1.9,6.3-2.1c4-0.3,6.2,0.8,7.4,1.7c1.5,1.3-0.2-4.9-7.4-4.4
					C69.6,111.6,66.6,116.9,68.4,116.1z"/>
			</g>
			<g>
				<path class="st19" d="M76.3,157.3c-6-0.8-11.4,2.6-12.1,7.6c-0.7,5,3.9,7,9.8,7.8c6,0.8,11.2,0.1,11.8-4.9
					C86.6,162.8,82.3,158.2,76.3,157.3z M75.2,172.4c-5.3-0.7-9.2-2.5-8.6-6.8c0.6-4.4,5.3-7.3,10.6-6.6c5.3,0.7,9,4.8,8.4,9.2
					C85,172.5,80.4,173.2,75.2,172.4z"/>
				<path class="st20" d="M85.7,168.5c-0.7,5-5.9,5.7-11.8,4.9c-6-0.8-10.5-2.8-9.8-7.8c0.7-5,6.1-8.4,12.1-7.6
					C82.1,158.8,86.4,163.5,85.7,168.5z"/>
				<path class="st21" d="M85.4,168.8c-0.6,4.4-5.1,5-10.4,4.3c-5.3-0.7-9.2-2.5-8.6-6.8c0.6-4.4,5.3-7.3,10.6-6.6
					C82.2,160.3,86,164.4,85.4,168.8z"/>
				<path class="st19" d="M82.4,167.3c-0.5,3.7-4,6.2-7.7,5.7c-3.8-0.5-6.4-3.9-5.9-7.5c0.5-3.7,4-6.2,7.7-5.7
					C80.2,160.3,82.9,163.6,82.4,167.3z"/>
				<path class="st22" d="M80.7,165c-0.2,1.7-1.8,2.8-3.5,2.6c-1.7-0.2-2.9-1.8-2.7-3.4c0.2-1.7,1.8-2.8,3.5-2.6
					C79.7,161.8,81,163.3,80.7,165z"/>
				<path class="st21" d="M80.2,164.3c-0.1,0.9-1,1.6-2,1.5c-1-0.1-1.7-1-1.5-1.9c0.1-0.9,1-1.6,2-1.5
					C79.7,162.5,80.4,163.4,80.2,164.3z"/>
				<path class="st20" d="M64,165.5c-0.7,5,3.9,7,9.8,7.8c6,0.8,11.2,0.1,11.8-4.9c0.7-5-3.6-9.7-9.6-10.5S64.7,160.5,64,165.5z
					 M66.4,166.2c0.1-1.1,0.6-2.1,1.2-3c0.3-0.4,0.7-0.8,1.1-1.2c1.1-1,2.5-1.7,4-2.1c0.3-0.1,0.7-0.2,1-0.2
					c1.1-0.2,2.2-0.2,3.3-0.1c3.3,0.4,6,2.2,7.4,4.5c0.6,0.9,0.9,2,1,3c0.1,0.5,0.1,1.1,0,1.6c-0.2,1.6-1,2.7-2.2,3.5
					c-1.9,1.2-4.9,1.3-8.2,0.8l0,0l0,0C69.8,172.4,65.8,170.6,66.4,166.2z"/>
			</g>
			<g>
				<path class="st19" d="M154.3,173.9c-0.1,5,5,6.5,11,6.6c6,0.1,10.8-1.3,10.9-6.3c0.1-5-4.8-9.2-10.9-9.2
					C159.3,164.8,154.3,168.8,154.3,173.9z M154.6,174.2c0-4.4,4.4-7.9,9.7-7.9c5.3,0.1,9.6,3.7,9.5,8.1c0,4.4-4.2,5.6-9.5,5.5
					C158.9,179.9,154.5,178.6,154.6,174.2z"/>
				<path class="st20" d="M154.3,174.5c-0.1,5,5,6.5,11,6.6c6,0.1,10.8-1.3,10.9-6.3c0.1-5-4.8-9.2-10.9-9.2
					C159.3,165.4,154.4,169.5,154.3,174.5z"/>
				<path class="st21" d="M154.6,174.9c0,4.4,4.4,5.7,9.7,5.7c5.3,0.1,9.5-1.1,9.5-5.5c0-4.4-4.2-8-9.5-8.1
					C159,166.9,154.7,170.5,154.6,174.9z"/>
				<path class="st19" d="M157.9,173.8c0,3.7,3,6.7,6.8,6.8c3.8,0,6.9-2.9,7-6.6c0-3.7-3-6.7-6.8-6.8
					C161,167.2,157.9,170.2,157.9,173.8z"/>
				<path class="st22" d="M159.8,171.8c0,1.7,1.4,3.1,3.1,3.1c1.7,0,3.1-1.3,3.2-3c0-1.7-1.4-3.1-3.1-3.1
					C161.2,168.8,159.8,170.1,159.8,171.8z"/>
				<path class="st21" d="M160.4,171.2c0,1,0.8,1.7,1.8,1.7c1,0,1.8-0.8,1.8-1.7c0-0.9-0.8-1.7-1.8-1.7
					C161.2,169.5,160.4,170.3,160.4,171.2z"/>
				<path class="st20" d="M165.4,165.5c-6-0.1-11,4-11,9c-0.1,5,5,6.5,11,6.6c6,0.1,10.8-1.3,10.9-6.3
					C176.3,169.7,171.4,165.6,165.4,165.5z M164.3,180.6L164.3,180.6L164.3,180.6c-3.3,0-6.3-0.5-8-2c-1-0.9-1.7-2.1-1.6-3.7
					c0-0.6,0.1-1.1,0.2-1.6c0.3-1,0.8-2,1.5-2.8c1.7-2.1,4.7-3.5,8-3.4c1.2,0,2.2,0.2,3.3,0.5c0.3,0.1,0.7,0.2,1,0.4
					c1.5,0.6,2.8,1.6,3.7,2.7c0.3,0.4,0.6,0.9,0.9,1.4c0.5,1,0.7,2,0.7,3.1C173.8,179.5,169.6,180.7,164.3,180.6z"/>
			</g>
			<g>
				<path class="st23" d="M140.7,219.8c4.2-6.9,4.4-15.4,4.2-19.5c-0.1-1.3-1.3-2.3-2.6-2.1c-21.6,3.1-44-1.4-51.4-3.1
					c-1.4-0.3-2.7,0.7-2.8,2.1c-0.3,4.2-0.2,12.6,3.8,20C105.1,205.9,125.4,211.5,140.7,219.8z"/>
				<path class="st24" d="M92,217.1c3.7,6.8,10.8,12.7,24,13.5c13.5,0.8,20.8-4.4,24.6-10.8C125.4,211.5,105.1,205.9,92,217.1z"/>
			</g>
		</g>
	</g>
</g>
</svg>
