<svg clip-rule="evenodd" fill-rule="evenodd" stroke-linejoin="round" stroke-miterlimit="1.414" viewBox="0 0 24 24" xmlns="http://www.w3.org/2000/svg"><clipPath id="a"><path d="M0 0h24v24H0z"/></clipPath><path d="M0 0h24v24H0z" fill="none"/><g clip-path="url(#a)"><path d="M13.665 24H10.11v-3.43h3.555zm3.678-13.292l-1.599 1.577c-.889.875-1.529 1.664-1.848 2.899a7.57 7.57 0 0 0-.231 1.955H10.11v-.857c0-.789.142-1.544.391-2.247a6.832 6.832 0 0 1 1.688-2.607l2.204-2.161c.818-.755 1.209-1.887.978-3.087-.231-1.235-1.227-2.282-2.471-2.625-1.972-.531-3.803.549-4.389 2.179-.214.634-.764 1.114-1.458 1.114H6.52c-1.03 0-1.741-.96-1.457-1.921.764-2.521 2.986-4.442 5.74-4.853 2.702-.412 5.278.943 6.878 3.087 2.097 2.796 1.475 5.797-.338 7.547z" fill="#2cb16e" fill-rule="nonzero"/></g></svg>