<?xml version="1.0" encoding="UTF-8" standalone="no"?><!DOCTYPE svg PUBLIC "-//W3C//DTD SVG 1.1//EN" "http://www.w3.org/Graphics/SVG/1.1/DTD/svg11.dtd"><svg width="100%" height="100%" viewBox="0 0 24 24" version="1.1" xmlns="http://www.w3.org/2000/svg" xmlns:xlink="http://www.w3.org/1999/xlink" xml:space="preserve" xmlns:serif="http://www.serif.com/" style="fill-rule:evenodd;clip-rule:evenodd;stroke-linejoin:round;stroke-miterlimit:1.41421;"><rect id="Artboard3" x="0" y="0" width="24" height="24" style="fill:none;"/><clipPath id="_clip1"><rect x="0" y="0" width="24" height="24"/></clipPath><g clip-path="url(#_clip1)"><path d="M13.665,24l-3.555,0l0,-3.43l3.555,0l0,3.43Zm3.678,-13.292l-1.599,1.577c-0.889,0.875 -1.529,1.664 -1.848,2.899c-0.143,0.549 -0.231,1.166 -0.231,1.955l-3.555,0l0,-0.857c0,-0.789 0.142,-1.544 0.391,-2.247c0.356,-0.995 0.942,-1.887 1.688,-2.607l2.204,-2.161c0.818,-0.755 1.209,-1.887 0.978,-3.087c-0.231,-1.235 -1.227,-2.282 -2.471,-2.625c-1.972,-0.531 -3.803,0.549 -4.389,2.179c-0.214,0.634 -0.764,1.114 -1.458,1.114l-0.533,0c-1.03,0 -1.741,-0.96 -1.457,-1.921c0.764,-2.521 2.986,-4.442 5.74,-4.853c2.702,-0.412 5.278,0.943 6.878,3.087c2.097,2.796 1.475,5.797 -0.338,7.547Z" style="fill:#fff;fill-rule:nonzero;"/></g></svg>