<svg clip-rule="evenodd" fill-rule="evenodd" stroke-linejoin="round" stroke-miterlimit="1.414" viewBox="0 0 24 24" xmlns="http://www.w3.org/2000/svg"><clipPath id="a"><path d="M0 0h24v24H0z"/></clipPath><path d="M0 0h24v24H0z" fill="none"/><g clip-path="url(#a)"><path d="M12.149.001l.149.003.148.004.148.006.147.008.148.01.147.012.146.013.146.015.146.017.146.019.145.02.144.023.145.024.144.026.144.027.143.03.143.031.142.033.143.035.142.036.141.039.141.04.141.042.141.044.14.045.14.047.139.049.139.051.139.053.138.054.138.056.138.058.136.06.135.061.134.062.134.064.132.065.131.067.13.069.13.07.128.071.127.073.126.074.126.076.124.078.123.079.122.08.121.083.12.083.12.085.118.087.117.088.116.089.115.092.114.092.113.094.112.096.111.097.11.099.109.1.108.102.107.103.106.105.105.106.103.107.102.108.1.109.099.11.097.111.096.112.094.113.092.114.092.115.089.116.088.117.087.118.085.12.083.12.083.121.08.122.079.123.078.124.076.126.074.126.073.127.071.128.07.13.069.13.067.131.065.132.064.134.062.134.061.135.06.136.058.138.056.138.054.138.053.139.051.139.049.139.047.14.045.14.044.141.042.141.04.141.039.141.036.142.035.143.033.142.031.143.03.143.027.144.026.144.024.145.023.144.02.145.019.146.017.146.015.146.013.146.012.147.01.148.008.147.006.148.004.148.003.149L24 12l-.001.149-.003.149-.004.148-.006.148-.008.147-.01.148-.012.147-.013.146-.015.146-.017.146-.019.146-.02.145-.023.144-.024.145-.026.144-.027.144-.03.143-.031.143-.033.142-.035.143-.036.142-.039.141-.04.141-.042.141-.044.141-.045.14-.047.14-.049.139-.051.139-.053.139-.054.138-.056.138-.058.138-.06.136-.061.135-.062.134-.064.134-.065.132-.067.131-.069.13-.07.13-.071.128-.073.127-.074.126-.076.126-.078.124-.079.123-.08.122-.083.121-.083.12-.085.12-.087.118-.088.117-.089.116-.092.115-.092.114-.094.113-.096.112-.097.111-.099.11-.1.109-.102.108-.103.107-.105.106-.106.105-.107.103-.108.102-.109.1-.11.099-.111.097-.112.096-.113.094-.114.092-.115.092-.116.089-.117.088-.118.087-.12.085-.12.083-.121.083-.122.08-.123.079-.124.078-.126.076-.126.074-.127.073-.128.071-.13.07-.13.069-.131.067-.132.065-.134.064-.134.062-.135.061-.136.06-.138.058-.138.056-.138.054-.139.053-.139.051-.139.049-.14.047-.14.045-.141.044-.141.042-.141.04-.141.039-.142.036-.143.035-.142.033-.143.031-.143.03-.144.027-.144.026-.145.024-.144.023-.145.02-.146.019-.146.017-.146.015-.146.013-.147.012-.148.01-.147.008-.148.006-.148.004-.149.003L12 24l-.149-.001-.149-.003-.148-.004-.148-.006-.147-.008-.148-.01-.147-.012-.146-.013-.146-.015-.146-.017-.146-.019-.145-.02-.144-.023-.145-.024-.144-.026-.144-.027-.143-.03-.143-.031-.142-.033-.143-.035-.142-.036-.141-.039-.141-.04-.141-.042-.141-.044-.14-.045-.14-.047-.139-.049-.139-.051-.139-.053-.138-.054-.138-.056-.138-.058-.136-.06-.135-.061-.134-.062-.134-.064-.132-.065-.131-.067-.13-.069-.13-.07-.128-.071-.127-.073-.126-.074-.126-.076-.124-.078-.123-.079-.122-.08-.121-.083-.12-.083-.12-.085-.118-.087-.117-.088-.116-.089-.115-.092-.114-.092-.113-.094-.112-.096-.111-.097-.11-.099-.109-.1-.108-.102-.107-.103-.106-.105-.105-.106-.103-.107-.102-.108-.1-.109-.099-.11-.097-.111-.096-.112-.094-.113-.092-.114-.092-.115-.089-.116-.088-.117-.087-.118-.085-.12-.083-.12-.083-.121-.08-.122-.079-.123-.078-.124-.076-.126-.074-.126-.073-.127-.071-.128-.07-.13-.069-.13-.067-.131-.065-.132-.064-.134-.062-.134-.061-.135-.06-.136-.058-.138-.056-.138-.054-.138-.053-.139-.051-.139-.049-.139-.047-.14-.045-.14-.044-.141-.042-.141-.04-.141-.039-.141-.036-.142-.035-.143-.033-.142-.031-.143-.03-.143-.027-.144-.026-.144-.024-.145-.023-.144-.02-.145-.019-.146-.017-.146-.015-.146-.013-.146-.012-.147-.01-.148-.008-.147-.006-.148-.004-.148-.003-.149L0 12l.001-.149.003-.149.004-.148.006-.148.008-.147.01-.148.012-.147.013-.146.015-.146.017-.146.019-.146.02-.145.023-.144.024-.145.026-.144.027-.144.03-.143.031-.143.033-.142.035-.143.036-.142.039-.141.04-.141.042-.141.044-.141.045-.14.047-.14.049-.139.051-.139.053-.139.054-.138.056-.138.058-.138.06-.136.061-.135.062-.134.064-.134.065-.132.067-.131.069-.13.07-.13.071-.128.073-.127.074-.126.076-.126.078-.124.079-.123.08-.122.083-.121.083-.12.085-.12.087-.118.088-.117.089-.116.092-.115.092-.114.094-.113.096-.112.097-.111.099-.11.1-.109.102-.108.103-.107.105-.106.106-.105.107-.103.108-.102.109-.1.11-.099.111-.097.112-.096.113-.094.114-.092.115-.092.116-.089.117-.088.118-.087.12-.085.12-.083.121-.083.122-.08.123-.079.124-.078.126-.076.126-.074.127-.073.128-.071.13-.07.13-.069.131-.067.132-.065.134-.064.134-.062.135-.061.136-.06.138-.058.138-.056.138-.054.139-.053.139-.051.139-.049.14-.047.14-.045.141-.044.141-.042.141-.04.141-.039.142-.036.143-.035.142-.033.143-.031.143-.03.144-.027.144-.026.145-.024.144-.023.145-.02.146-.019.146-.017.146-.015.146-.013.147-.012.148-.01.147-.008.148-.006.148-.004.149-.003L12 0l.149.001zm-.274 2l-.125.002-.124.004-.123.005-.124.007-.123.008-.122.01-.122.011-.122.012-.121.014-.121.016-.12.017-.121.019-.119.02-.12.021-.119.023-.119.024-.119.026-.118.028-.119.029-.117.03-.118.032-.118.033-.117.035-.117.037-.117.038-.116.039-.117.041-.116.042-.116.044-.116.046-.116.047-.115.049-.114.05-.114.05-.112.053-.111.053-.11.055-.11.055-.108.057-.108.059-.107.059-.105.061-.105.062-.104.063-.103.064-.103.066-.101.066-.101.069-.099.069-.099.071-.098.071-.098.074-.096.074-.096.076-.095.077-.094.078-.093.08-.093.081-.092.083-.091.083-.09.086-.09.086-.089.088-.088.089-.086.09-.086.09-.083.091-.083.092-.081.093-.08.093-.078.094-.077.095-.076.096-.074.096-.074.098-.071.098-.071.099-.069.099-.069.101-.066.101-.066.103-.064.103-.063.104-.062.105-.061.105-.059.107-.059.108-.057.108-.055.11-.055.11-.053.111-.053.112-.05.114-.05.114-.049.115-.047.116-.046.116-.044.116-.042.116-.041.117-.039.116-.038.117-.037.117-.035.117-.033.118-.032.118-.03.117-.029.119-.028.118-.026.119-.024.119-.023.119-.021.12-.02.119-.019.121-.017.12-.016.121-.014.121-.012.122-.011.122-.01.122-.008.123-.007.124-.005.123-.004.124-.002.125L2 12l.001.125.002.125.004.124.005.123.007.124.008.123.01.122.011.122.012.122.014.121.016.121.017.12.019.121.02.119.021.12.023.119.024.119.026.119.028.118.029.119.03.117.032.118.033.118.035.117.037.117.038.117.039.116.041.117.042.116.044.116.046.116.047.116.049.115.05.114.05.114.053.112.053.111.055.11.055.11.057.108.059.108.059.107.061.105.062.105.063.104.064.103.066.103.066.101.069.101.069.099.071.099.071.098.074.098.074.096.076.096.077.095.078.094.08.093.081.093.083.092.083.091.086.09.086.09.088.089.089.088.09.086.09.086.091.083.092.083.093.081.093.08.094.078.095.077.096.076.096.074.098.074.098.071.099.071.099.069.101.069.101.066.103.066.103.064.104.063.105.062.105.061.107.059.108.059.108.057.11.055.11.055.111.053.112.053.114.05.114.05.115.049.116.047.116.046.116.044.116.042.117.041.116.039.117.038.117.037.117.035.118.033.118.032.117.03.119.029.118.028.119.026.119.024.119.023.12.021.119.02.121.019.12.017.121.016.121.014.122.012.122.011.123.01.122.008.124.007.123.005.124.004.125.002L12 22l.125-.001.125-.002.124-.004.123-.005.124-.007.122-.008.123-.01.122-.011.122-.012.121-.014.121-.016.12-.017.121-.019.119-.02.12-.021.119-.023.119-.024.119-.026.118-.028.119-.029.117-.03.118-.032.118-.033.117-.035.117-.037.117-.038.116-.039.117-.041.116-.042.116-.044.116-.046.116-.047.115-.049.114-.05.114-.05.112-.053.111-.053.11-.055.11-.055.108-.057.108-.059.107-.059.105-.061.105-.062.104-.063.103-.064.103-.066.101-.066.101-.069.099-.069.099-.071.098-.071.098-.074.096-.074.096-.076.095-.077.094-.078.093-.08.093-.081.092-.083.091-.083.09-.086.09-.086.089-.088.088-.089.086-.09.086-.09.083-.091.083-.092.081-.093.08-.093.078-.094.077-.095.076-.096.074-.096.074-.098.071-.098.071-.099.069-.099.069-.101.066-.101.066-.103.064-.103.063-.104.062-.105.061-.105.059-.107.059-.108.057-.108.055-.11.055-.11.053-.111.053-.112.05-.114.05-.114.049-.115.047-.116.046-.116.044-.116.042-.116.041-.117.039-.116.038-.117.037-.117.035-.117.033-.118.032-.118.03-.117.029-.119.028-.118.026-.119.024-.119.023-.119.021-.12.02-.119.019-.121.017-.12.016-.121.014-.121.012-.122.011-.122.01-.123.008-.122.007-.124.005-.123.004-.124.002-.125L22 12l-.001-.125-.002-.125-.004-.124-.005-.123-.007-.124-.008-.122-.01-.123-.011-.122-.012-.122-.014-.121-.016-.121-.017-.12-.019-.121-.02-.119-.021-.12-.023-.119-.024-.119-.026-.119-.028-.118-.029-.119-.03-.117-.032-.118-.033-.118-.035-.117-.037-.117-.038-.117-.039-.116-.041-.117-.042-.116-.044-.116-.046-.116-.047-.116-.049-.115-.05-.114-.05-.114-.053-.112-.053-.111-.055-.11-.055-.11-.057-.108-.059-.108-.059-.107-.061-.105-.062-.105-.063-.104-.064-.103-.066-.103-.066-.101-.069-.101-.069-.099-.071-.099-.071-.098-.074-.098-.074-.096-.076-.096-.077-.095-.078-.094-.08-.093-.081-.093-.083-.092-.083-.091-.086-.09-.086-.09-.088-.089-.089-.088-.09-.086-.09-.086-.091-.083-.092-.083-.093-.081-.093-.08-.094-.078-.095-.077-.096-.076-.096-.074-.098-.074-.098-.071-.099-.071-.099-.069-.101-.069-.101-.066-.103-.066-.103-.064-.104-.063-.105-.062-.105-.061-.107-.059-.108-.059-.108-.057-.11-.055-.11-.055-.111-.053-.112-.053-.114-.05-.114-.05-.115-.049-.116-.047-.116-.046-.116-.044-.116-.042-.117-.041-.116-.039-.117-.038-.117-.037-.117-.035-.118-.033-.118-.032-.117-.03-.119-.029-.118-.028-.119-.026-.119-.024-.119-.023-.12-.021-.119-.02-.121-.019-.12-.017-.121-.016-.121-.014-.122-.012-.122-.011-.122-.01-.123-.008-.124-.007-.123-.005-.124-.004-.125-.002L12 2z" fill="#2cb16e"/></g></svg>