<?xml version="1.0" encoding="UTF-8" standalone="no"?><!DOCTYPE svg PUBLIC "-//W3C//DTD SVG 1.1//EN" "http://www.w3.org/Graphics/SVG/1.1/DTD/svg11.dtd"><svg width="100%" height="100%" viewBox="0 0 24 24" version="1.1" xmlns="http://www.w3.org/2000/svg" xmlns:xlink="http://www.w3.org/1999/xlink" xml:space="preserve" xmlns:serif="http://www.serif.com/" style="fill-rule:evenodd;clip-rule:evenodd;stroke-linejoin:round;stroke-miterlimit:1.41421;"><rect id="Artboard1" x="0" y="0" width="24" height="24" style="fill:none;"/><clipPath id="_clip1"><rect x="0" y="0" width="24" height="24"/></clipPath><g clip-path="url(#_clip1)"><path d="M12.149,0.001l0.149,0.003l0.148,0.004l0.148,0.006l0.147,0.008l0.148,0.01l0.147,0.012l0.146,0.013l0.146,0.015l0.146,0.017l0.146,0.019l0.145,0.02l0.144,0.023l0.145,0.024l0.144,0.026l0.144,0.027l0.143,0.03l0.143,0.031l0.142,0.033l0.143,0.035l0.142,0.036l0.141,0.039l0.141,0.04l0.141,0.042l0.141,0.044l0.14,0.045l0.14,0.047l0.139,0.049l0.139,0.051l0.139,0.053l0.138,0.054l0.138,0.056l0.138,0.058l0.136,0.06l0.135,0.061l0.134,0.062l0.134,0.064l0.132,0.065l0.131,0.067l0.13,0.069l0.13,0.07l0.128,0.071l0.127,0.073l0.126,0.074l0.126,0.076l0.124,0.078l0.123,0.079l0.122,0.08l0.121,0.083l0.12,0.083l0.12,0.085l0.118,0.087l0.117,0.088l0.116,0.089l0.115,0.092l0.114,0.092l0.113,0.094l0.112,0.096l0.111,0.097l0.11,0.099l0.109,0.1l0.108,0.102l0.107,0.103l0.106,0.105l0.105,0.106l0.103,0.107l0.102,0.108l0.1,0.109l0.099,0.11l0.097,0.111l0.096,0.112l0.094,0.113l0.092,0.114l0.092,0.115l0.089,0.116l0.088,0.117l0.087,0.118l0.085,0.12l0.083,0.12l0.083,0.121l0.08,0.122l0.079,0.123l0.078,0.124l0.076,0.126l0.074,0.126l0.073,0.127l0.071,0.128l0.07,0.13l0.069,0.13l0.067,0.131l0.065,0.132l0.064,0.134l0.062,0.134l0.061,0.135l0.06,0.136l0.058,0.138l0.056,0.138l0.054,0.138l0.053,0.139l0.051,0.139l0.049,0.139l0.047,0.14l0.045,0.14l0.044,0.141l0.042,0.141l0.04,0.141l0.039,0.141l0.036,0.142l0.035,0.143l0.033,0.142l0.031,0.143l0.03,0.143l0.027,0.144l0.026,0.144l0.024,0.145l0.023,0.144l0.02,0.145l0.019,0.146l0.017,0.146l0.015,0.146l0.013,0.146l0.012,0.147l0.01,0.148l0.008,0.147l0.006,0.148l0.004,0.148l0.003,0.149l0.001,0.149l-0.001,0.149l-0.003,0.149l-0.004,0.148l-0.006,0.148l-0.008,0.147l-0.01,0.148l-0.012,0.147l-0.013,0.146l-0.015,0.146l-0.017,0.146l-0.019,0.146l-0.02,0.145l-0.023,0.144l-0.024,0.145l-0.026,0.144l-0.027,0.144l-0.03,0.143l-0.031,0.143l-0.033,0.142l-0.035,0.143l-0.036,0.142l-0.039,0.141l-0.04,0.141l-0.042,0.141l-0.044,0.141l-0.045,0.14l-0.047,0.14l-0.049,0.139l-0.051,0.139l-0.053,0.139l-0.054,0.138l-0.056,0.138l-0.058,0.138l-0.06,0.136l-0.061,0.135l-0.062,0.134l-0.064,0.134l-0.065,0.132l-0.067,0.131l-0.069,0.13l-0.07,0.13l-0.071,0.128l-0.073,0.127l-0.074,0.126l-0.076,0.126l-0.078,0.124l-0.079,0.123l-0.08,0.122l-0.083,0.121l-0.083,0.12l-0.085,0.12l-0.087,0.118l-0.088,0.117l-0.089,0.116l-0.092,0.115l-0.092,0.114l-0.094,0.113l-0.096,0.112l-0.097,0.111l-0.099,0.11l-0.1,0.109l-0.102,0.108l-0.103,0.107l-0.105,0.106l-0.106,0.105l-0.107,0.103l-0.108,0.102l-0.109,0.1l-0.11,0.099l-0.111,0.097l-0.112,0.096l-0.113,0.094l-0.114,0.092l-0.115,0.092l-0.116,0.089l-0.117,0.088l-0.118,0.087l-0.12,0.085l-0.12,0.083l-0.121,0.083l-0.122,0.08l-0.123,0.079l-0.124,0.078l-0.126,0.076l-0.126,0.074l-0.127,0.073l-0.128,0.071l-0.13,0.07l-0.13,0.069l-0.131,0.067l-0.132,0.065l-0.134,0.064l-0.134,0.062l-0.135,0.061l-0.136,0.06l-0.138,0.058l-0.138,0.056l-0.138,0.054l-0.139,0.053l-0.139,0.051l-0.139,0.049l-0.14,0.047l-0.14,0.045l-0.141,0.044l-0.141,0.042l-0.141,0.04l-0.141,0.039l-0.142,0.036l-0.143,0.035l-0.142,0.033l-0.143,0.031l-0.143,0.03l-0.144,0.027l-0.144,0.026l-0.145,0.024l-0.144,0.023l-0.145,0.02l-0.146,0.019l-0.146,0.017l-0.146,0.015l-0.146,0.013l-0.147,0.012l-0.148,0.01l-0.147,0.008l-0.148,0.006l-0.148,0.004l-0.149,0.003l-0.149,0.001l-0.149,-0.001l-0.149,-0.003l-0.148,-0.004l-0.148,-0.006l-0.147,-0.008l-0.148,-0.01l-0.147,-0.012l-0.146,-0.013l-0.146,-0.015l-0.146,-0.017l-0.146,-0.019l-0.145,-0.02l-0.144,-0.023l-0.145,-0.024l-0.144,-0.026l-0.144,-0.027l-0.143,-0.03l-0.143,-0.031l-0.142,-0.033l-0.143,-0.035l-0.142,-0.036l-0.141,-0.039l-0.141,-0.04l-0.141,-0.042l-0.141,-0.044l-0.14,-0.045l-0.14,-0.047l-0.139,-0.049l-0.139,-0.051l-0.139,-0.053l-0.138,-0.054l-0.138,-0.056l-0.138,-0.058l-0.136,-0.06l-0.135,-0.061l-0.134,-0.062l-0.134,-0.064l-0.132,-0.065l-0.131,-0.067l-0.13,-0.069l-0.13,-0.07l-0.128,-0.071l-0.127,-0.073l-0.126,-0.074l-0.126,-0.076l-0.124,-0.078l-0.123,-0.079l-0.122,-0.08l-0.121,-0.083l-0.12,-0.083l-0.12,-0.085l-0.118,-0.087l-0.117,-0.088l-0.116,-0.089l-0.115,-0.092l-0.114,-0.092l-0.113,-0.094l-0.112,-0.096l-0.111,-0.097l-0.11,-0.099l-0.109,-0.1l-0.108,-0.102l-0.107,-0.103l-0.106,-0.105l-0.105,-0.106l-0.103,-0.107l-0.102,-0.108l-0.1,-0.109l-0.099,-0.11l-0.097,-0.111l-0.096,-0.112l-0.094,-0.113l-0.092,-0.114l-0.092,-0.115l-0.089,-0.116l-0.088,-0.117l-0.087,-0.118l-0.085,-0.12l-0.083,-0.12l-0.083,-0.121l-0.08,-0.122l-0.079,-0.123l-0.078,-0.124l-0.076,-0.126l-0.074,-0.126l-0.073,-0.127l-0.071,-0.128l-0.07,-0.13l-0.069,-0.13l-0.067,-0.131l-0.065,-0.132l-0.064,-0.134l-0.062,-0.134l-0.061,-0.135l-0.06,-0.136l-0.058,-0.138l-0.056,-0.138l-0.054,-0.138l-0.053,-0.139l-0.051,-0.139l-0.049,-0.139l-0.047,-0.14l-0.045,-0.14l-0.044,-0.141l-0.042,-0.141l-0.04,-0.141l-0.039,-0.141l-0.036,-0.142l-0.035,-0.143l-0.033,-0.142l-0.031,-0.143l-0.03,-0.143l-0.027,-0.144l-0.026,-0.144l-0.024,-0.145l-0.023,-0.144l-0.02,-0.145l-0.019,-0.146l-0.017,-0.146l-0.015,-0.146l-0.013,-0.146l-0.012,-0.147l-0.01,-0.148l-0.008,-0.147l-0.006,-0.148l-0.004,-0.148l-0.003,-0.149l-0.001,-0.149l0.001,-0.149l0.003,-0.149l0.004,-0.148l0.006,-0.148l0.008,-0.147l0.01,-0.148l0.012,-0.147l0.013,-0.146l0.015,-0.146l0.017,-0.146l0.019,-0.146l0.02,-0.145l0.023,-0.144l0.024,-0.145l0.026,-0.144l0.027,-0.144l0.03,-0.143l0.031,-0.143l0.033,-0.142l0.035,-0.143l0.036,-0.142l0.039,-0.141l0.04,-0.141l0.042,-0.141l0.044,-0.141l0.045,-0.14l0.047,-0.14l0.049,-0.139l0.051,-0.139l0.053,-0.139l0.054,-0.138l0.056,-0.138l0.058,-0.138l0.06,-0.136l0.061,-0.135l0.062,-0.134l0.064,-0.134l0.065,-0.132l0.067,-0.131l0.069,-0.13l0.07,-0.13l0.071,-0.128l0.073,-0.127l0.074,-0.126l0.076,-0.126l0.078,-0.124l0.079,-0.123l0.08,-0.122l0.083,-0.121l0.083,-0.12l0.085,-0.12l0.087,-0.118l0.088,-0.117l0.089,-0.116l0.092,-0.115l0.092,-0.114l0.094,-0.113l0.096,-0.112l0.097,-0.111l0.099,-0.11l0.1,-0.109l0.102,-0.108l0.103,-0.107l0.105,-0.106l0.106,-0.105l0.107,-0.103l0.108,-0.102l0.109,-0.1l0.11,-0.099l0.111,-0.097l0.112,-0.096l0.113,-0.094l0.114,-0.092l0.115,-0.092l0.116,-0.089l0.117,-0.088l0.118,-0.087l0.12,-0.085l0.12,-0.083l0.121,-0.083l0.122,-0.08l0.123,-0.079l0.124,-0.078l0.126,-0.076l0.126,-0.074l0.127,-0.073l0.128,-0.071l0.13,-0.07l0.13,-0.069l0.131,-0.067l0.132,-0.065l0.134,-0.064l0.134,-0.062l0.135,-0.061l0.136,-0.06l0.138,-0.058l0.138,-0.056l0.138,-0.054l0.139,-0.053l0.139,-0.051l0.139,-0.049l0.14,-0.047l0.14,-0.045l0.141,-0.044l0.141,-0.042l0.141,-0.04l0.141,-0.039l0.142,-0.036l0.143,-0.035l0.142,-0.033l0.143,-0.031l0.143,-0.03l0.144,-0.027l0.144,-0.026l0.145,-0.024l0.144,-0.023l0.145,-0.02l0.146,-0.019l0.146,-0.017l0.146,-0.015l0.146,-0.013l0.147,-0.012l0.148,-0.01l0.147,-0.008l0.148,-0.006l0.148,-0.004l0.149,-0.003l0.149,-0.001l0.149,0.001Zm-0.274,2l-0.125,0.002l-0.124,0.004l-0.123,0.005l-0.124,0.007l-0.123,0.008l-0.122,0.01l-0.122,0.011l-0.122,0.012l-0.121,0.014l-0.121,0.016l-0.12,0.017l-0.121,0.019l-0.119,0.02l-0.12,0.021l-0.119,0.023l-0.119,0.024l-0.119,0.026l-0.118,0.028l-0.119,0.029l-0.117,0.03l-0.118,0.032l-0.118,0.033l-0.117,0.035l-0.117,0.037l-0.117,0.038l-0.116,0.039l-0.117,0.041l-0.116,0.042l-0.116,0.044l-0.116,0.046l-0.116,0.047l-0.115,0.049l-0.114,0.05l-0.114,0.05l-0.112,0.053l-0.111,0.053l-0.11,0.055l-0.11,0.055l-0.108,0.057l-0.108,0.059l-0.107,0.059l-0.105,0.061l-0.105,0.062l-0.104,0.063l-0.103,0.064l-0.103,0.066l-0.101,0.066l-0.101,0.069l-0.099,0.069l-0.099,0.071l-0.098,0.071l-0.098,0.074l-0.096,0.074l-0.096,0.076l-0.095,0.077l-0.094,0.078l-0.093,0.08l-0.093,0.081l-0.092,0.083l-0.091,0.083l-0.09,0.086l-0.09,0.086l-0.089,0.088l-0.088,0.089l-0.086,0.09l-0.086,0.09l-0.083,0.091l-0.083,0.092l-0.081,0.093l-0.08,0.093l-0.078,0.094l-0.077,0.095l-0.076,0.096l-0.074,0.096l-0.074,0.098l-0.071,0.098l-0.071,0.099l-0.069,0.099l-0.069,0.101l-0.066,0.101l-0.066,0.103l-0.064,0.103l-0.063,0.104l-0.062,0.105l-0.061,0.105l-0.059,0.107l-0.059,0.108l-0.057,0.108l-0.055,0.11l-0.055,0.11l-0.053,0.111l-0.053,0.112l-0.05,0.114l-0.05,0.114l-0.049,0.115l-0.047,0.116l-0.046,0.116l-0.044,0.116l-0.042,0.116l-0.041,0.117l-0.039,0.116l-0.038,0.117l-0.037,0.117l-0.035,0.117l-0.033,0.118l-0.032,0.118l-0.03,0.117l-0.029,0.119l-0.028,0.118l-0.026,0.119l-0.024,0.119l-0.023,0.119l-0.021,0.12l-0.02,0.119l-0.019,0.121l-0.017,0.12l-0.016,0.121l-0.014,0.121l-0.012,0.122l-0.011,0.122l-0.01,0.122l-0.008,0.123l-0.007,0.124l-0.005,0.123l-0.004,0.124l-0.002,0.125l-0.001,0.125l0.001,0.125l0.002,0.125l0.004,0.124l0.005,0.123l0.007,0.124l0.008,0.123l0.01,0.122l0.011,0.122l0.012,0.122l0.014,0.121l0.016,0.121l0.017,0.12l0.019,0.121l0.02,0.119l0.021,0.12l0.023,0.119l0.024,0.119l0.026,0.119l0.028,0.118l0.029,0.119l0.03,0.117l0.032,0.118l0.033,0.118l0.035,0.117l0.037,0.117l0.038,0.117l0.039,0.116l0.041,0.117l0.042,0.116l0.044,0.116l0.046,0.116l0.047,0.116l0.049,0.115l0.05,0.114l0.05,0.114l0.053,0.112l0.053,0.111l0.055,0.11l0.055,0.11l0.057,0.108l0.059,0.108l0.059,0.107l0.061,0.105l0.062,0.105l0.063,0.104l0.064,0.103l0.066,0.103l0.066,0.101l0.069,0.101l0.069,0.099l0.071,0.099l0.071,0.098l0.074,0.098l0.074,0.096l0.076,0.096l0.077,0.095l0.078,0.094l0.08,0.093l0.081,0.093l0.083,0.092l0.083,0.091l0.086,0.09l0.086,0.09l0.088,0.089l0.089,0.088l0.09,0.086l0.09,0.086l0.091,0.083l0.092,0.083l0.093,0.081l0.093,0.08l0.094,0.078l0.095,0.077l0.096,0.076l0.096,0.074l0.098,0.074l0.098,0.071l0.099,0.071l0.099,0.069l0.101,0.069l0.101,0.066l0.103,0.066l0.103,0.064l0.104,0.063l0.105,0.062l0.105,0.061l0.107,0.059l0.108,0.059l0.108,0.057l0.11,0.055l0.11,0.055l0.111,0.053l0.112,0.053l0.114,0.05l0.114,0.05l0.115,0.049l0.116,0.047l0.116,0.046l0.116,0.044l0.116,0.042l0.117,0.041l0.116,0.039l0.117,0.038l0.117,0.037l0.117,0.035l0.118,0.033l0.118,0.032l0.117,0.03l0.119,0.029l0.118,0.028l0.119,0.026l0.119,0.024l0.119,0.023l0.12,0.021l0.119,0.02l0.121,0.019l0.12,0.017l0.121,0.016l0.121,0.014l0.122,0.012l0.122,0.011l0.123,0.01l0.122,0.008l0.124,0.007l0.123,0.005l0.124,0.004l0.125,0.002l0.125,0.001l0.125,-0.001l0.125,-0.002l0.124,-0.004l0.123,-0.005l0.124,-0.007l0.122,-0.008l0.123,-0.01l0.122,-0.011l0.122,-0.012l0.121,-0.014l0.121,-0.016l0.12,-0.017l0.121,-0.019l0.119,-0.02l0.12,-0.021l0.119,-0.023l0.119,-0.024l0.119,-0.026l0.118,-0.028l0.119,-0.029l0.117,-0.03l0.118,-0.032l0.118,-0.033l0.117,-0.035l0.117,-0.037l0.117,-0.038l0.116,-0.039l0.117,-0.041l0.116,-0.042l0.116,-0.044l0.116,-0.046l0.116,-0.047l0.115,-0.049l0.114,-0.05l0.114,-0.05l0.112,-0.053l0.111,-0.053l0.11,-0.055l0.11,-0.055l0.108,-0.057l0.108,-0.059l0.107,-0.059l0.105,-0.061l0.105,-0.062l0.104,-0.063l0.103,-0.064l0.103,-0.066l0.101,-0.066l0.101,-0.069l0.099,-0.069l0.099,-0.071l0.098,-0.071l0.098,-0.074l0.096,-0.074l0.096,-0.076l0.095,-0.077l0.094,-0.078l0.093,-0.08l0.093,-0.081l0.092,-0.083l0.091,-0.083l0.09,-0.086l0.09,-0.086l0.089,-0.088l0.088,-0.089l0.086,-0.09l0.086,-0.09l0.083,-0.091l0.083,-0.092l0.081,-0.093l0.08,-0.093l0.078,-0.094l0.077,-0.095l0.076,-0.096l0.074,-0.096l0.074,-0.098l0.071,-0.098l0.071,-0.099l0.069,-0.099l0.069,-0.101l0.066,-0.101l0.066,-0.103l0.064,-0.103l0.063,-0.104l0.062,-0.105l0.061,-0.105l0.059,-0.107l0.059,-0.108l0.057,-0.108l0.055,-0.11l0.055,-0.11l0.053,-0.111l0.053,-0.112l0.05,-0.114l0.05,-0.114l0.049,-0.115l0.047,-0.116l0.046,-0.116l0.044,-0.116l0.042,-0.116l0.041,-0.117l0.039,-0.116l0.038,-0.117l0.037,-0.117l0.035,-0.117l0.033,-0.118l0.032,-0.118l0.03,-0.117l0.029,-0.119l0.028,-0.118l0.026,-0.119l0.024,-0.119l0.023,-0.119l0.021,-0.12l0.02,-0.119l0.019,-0.121l0.017,-0.12l0.016,-0.121l0.014,-0.121l0.012,-0.122l0.011,-0.122l0.01,-0.123l0.008,-0.122l0.007,-0.124l0.005,-0.123l0.004,-0.124l0.002,-0.125l0.001,-0.125l-0.001,-0.125l-0.002,-0.125l-0.004,-0.124l-0.005,-0.123l-0.007,-0.124l-0.008,-0.122l-0.01,-0.123l-0.011,-0.122l-0.012,-0.122l-0.014,-0.121l-0.016,-0.121l-0.017,-0.12l-0.019,-0.121l-0.02,-0.119l-0.021,-0.12l-0.023,-0.119l-0.024,-0.119l-0.026,-0.119l-0.028,-0.118l-0.029,-0.119l-0.03,-0.117l-0.032,-0.118l-0.033,-0.118l-0.035,-0.117l-0.037,-0.117l-0.038,-0.117l-0.039,-0.116l-0.041,-0.117l-0.042,-0.116l-0.044,-0.116l-0.046,-0.116l-0.047,-0.116l-0.049,-0.115l-0.05,-0.114l-0.05,-0.114l-0.053,-0.112l-0.053,-0.111l-0.055,-0.11l-0.055,-0.11l-0.057,-0.108l-0.059,-0.108l-0.059,-0.107l-0.061,-0.105l-0.062,-0.105l-0.063,-0.104l-0.064,-0.103l-0.066,-0.103l-0.066,-0.101l-0.069,-0.101l-0.069,-0.099l-0.071,-0.099l-0.071,-0.098l-0.074,-0.098l-0.074,-0.096l-0.076,-0.096l-0.077,-0.095l-0.078,-0.094l-0.08,-0.093l-0.081,-0.093l-0.083,-0.092l-0.083,-0.091l-0.086,-0.09l-0.086,-0.09l-0.088,-0.089l-0.089,-0.088l-0.09,-0.086l-0.09,-0.086l-0.091,-0.083l-0.092,-0.083l-0.093,-0.081l-0.093,-0.08l-0.094,-0.078l-0.095,-0.077l-0.096,-0.076l-0.096,-0.074l-0.098,-0.074l-0.098,-0.071l-0.099,-0.071l-0.099,-0.069l-0.101,-0.069l-0.101,-0.066l-0.103,-0.066l-0.103,-0.064l-0.104,-0.063l-0.105,-0.062l-0.105,-0.061l-0.107,-0.059l-0.108,-0.059l-0.108,-0.057l-0.11,-0.055l-0.11,-0.055l-0.111,-0.053l-0.112,-0.053l-0.114,-0.05l-0.114,-0.05l-0.115,-0.049l-0.116,-0.047l-0.116,-0.046l-0.116,-0.044l-0.116,-0.042l-0.117,-0.041l-0.116,-0.039l-0.117,-0.038l-0.117,-0.037l-0.117,-0.035l-0.118,-0.033l-0.118,-0.032l-0.117,-0.03l-0.119,-0.029l-0.118,-0.028l-0.119,-0.026l-0.119,-0.024l-0.119,-0.023l-0.12,-0.021l-0.119,-0.02l-0.121,-0.019l-0.12,-0.017l-0.121,-0.016l-0.121,-0.014l-0.122,-0.012l-0.122,-0.011l-0.122,-0.01l-0.123,-0.008l-0.124,-0.007l-0.123,-0.005l-0.124,-0.004l-0.125,-0.002l-0.125,-0.001l-0.125,0.001Z" style="fill:#2cb16e;"/></g></svg>